<svg xmlns="http://www.w3.org/2000/svg" xmlns:xlink="http://www.w3.org/1999/xlink" width="500" zoomAndPan="magnify" viewBox="0 0 375 374.999991" height="500" preserveAspectRatio="xMidYMid meet" version="1.0"><path fill="#ffffff" d="M 165.804688 0 Z M 142.566406 112.902344 C 144.007812 113.484375 145.574219 113.945312 147.261719 114.261719 L 145.210938 119.363281 C 144.113281 122.101562 145.445312 125.210938 148.179688 126.308594 C 150.917969 127.40625 154.03125 126.074219 155.128906 123.335938 L 158.203125 115.6875 L 159.28125 115.828125 C 165.28125 116.585938 171.46875 115.414062 176.578125 112.921875 C 181.960938 110.304688 186.320312 106.144531 188.351562 101.101562 C 188.898438 99.75 189.253906 98.351562 189.429688 96.964844 L 189.429688 96.945312 C 189.917969 93.085938 188.953125 89.410156 186.804688 86.289062 C 184.808594 83.390625 181.800781 81.007812 178.011719 79.492188 C 176.101562 78.722656 173.960938 78.167969 171.636719 77.867188 L 161.296875 76.566406 C 159.9375 76.398438 158.679688 76.070312 157.554688 75.617188 C 155.765625 74.898438 154.398438 73.867188 153.582031 72.675781 C 152.914062 71.699219 152.605469 70.566406 152.757812 69.402344 L 152.773438 69.382812 C 152.832031 68.898438 152.960938 68.398438 153.160156 67.902344 C 154.152344 65.429688 156.589844 63.242188 159.703125 61.726562 C 163.085938 60.085938 167.109375 59.304688 170.972656 59.785156 L 175.847656 60.402344 C 176.042969 60.441406 176.230469 60.460938 176.429688 60.476562 L 181.3125 61.097656 C 182.671875 61.265625 183.929688 61.59375 185.054688 62.042969 C 186.84375 62.765625 188.203125 63.796875 189.027344 64.988281 C 189.695312 65.953125 190.003906 67.085938 189.851562 68.257812 C 189.796875 68.71875 189.65625 69.226562 189.441406 69.757812 C 188.34375 72.496094 189.675781 75.609375 192.414062 76.707031 C 195.148438 77.804688 198.261719 76.472656 199.359375 73.734375 C 199.902344 72.375 200.257812 70.988281 200.4375 69.601562 L 200.4375 69.582031 C 200.925781 65.71875 199.960938 62.042969 197.8125 58.929688 C 195.816406 56.035156 192.804688 53.652344 189.019531 52.132812 C 187.574219 51.554688 186.007812 51.09375 184.320312 50.773438 L 186.375 45.664062 C 187.472656 42.929688 186.140625 39.816406 183.402344 38.71875 C 180.664062 37.621094 177.554688 38.953125 176.457031 41.691406 L 173.371094 49.339844 L 172.265625 49.199219 C 166.273438 48.449219 160.105469 49.613281 154.988281 52.105469 C 149.605469 54.730469 145.246094 58.882812 143.210938 63.929688 C 142.648438 65.324219 142.285156 66.722656 142.132812 68.089844 C 141.648438 71.960938 142.621094 75.628906 144.757812 78.75 C 146.757812 81.648438 149.773438 84.027344 153.554688 85.546875 C 155.464844 86.316406 157.601562 86.867188 159.929688 87.160156 L 170.269531 88.460938 C 171.628906 88.632812 172.882812 88.960938 174.007812 89.410156 C 175.800781 90.132812 177.160156 91.164062 177.984375 92.351562 C 178.648438 93.320312 178.960938 94.453125 178.808594 95.625 C 178.753906 96.085938 178.613281 96.589844 178.398438 97.125 C 177.402344 99.601562 174.964844 101.785156 171.851562 103.304688 C 168.46875 104.953125 164.4375 105.730469 160.585938 105.242188 L 155.71875 104.632812 C 155.511719 104.597656 155.316406 104.570312 155.109375 104.558594 L 150.242188 103.941406 C 148.882812 103.773438 147.628906 103.445312 146.503906 102.992188 C 144.710938 102.273438 143.351562 101.242188 142.527344 100.050781 C 141.863281 99.085938 141.554688 97.949219 141.703125 96.777344 C 141.757812 96.320312 141.898438 95.8125 142.117188 95.277344 C 143.210938 92.539062 141.882812 89.429688 139.144531 88.332031 C 136.40625 87.234375 133.292969 88.566406 132.195312 91.304688 C 131.652344 92.664062 131.296875 94.050781 131.117188 95.4375 L 131.117188 95.457031 C 130.632812 99.320312 131.597656 102.992188 133.742188 106.105469 C 135.769531 109.003906 138.789062 111.382812 142.566406 112.902344 Z M 165.804688 21.496094 Z M 25.332031 82.507812 C 25.332031 64.761719 41.726562 49.125 68.230469 38.210938 C 93.308594 27.882812 127.820312 21.488281 165.804688 21.488281 C 203.792969 21.488281 238.304688 27.882812 263.382812 38.210938 C 289.882812 49.125 306.28125 64.761719 306.28125 82.507812 C 306.28125 100.257812 289.882812 115.894531 263.382812 126.804688 C 238.304688 137.136719 203.792969 143.53125 165.804688 143.53125 C 127.820312 143.53125 93.308594 137.136719 68.230469 126.804688 C 41.726562 115.894531 25.332031 100.257812 25.332031 82.507812 Z M 36.039062 82.507812 C 36.039062 95.503906 49.894531 107.710938 72.289062 116.933594 C 96.113281 126.75 129.167969 132.816406 165.804688 132.816406 C 202.445312 132.816406 235.5 126.742188 259.320312 116.933594 C 281.71875 107.710938 295.574219 95.503906 295.574219 82.507812 C 295.574219 69.515625 281.71875 57.308594 259.320312 48.085938 C 235.5 38.269531 202.445312 32.203125 165.804688 32.203125 C 129.167969 32.203125 96.113281 38.277344 72.289062 48.085938 C 49.894531 57.308594 36.039062 69.515625 36.039062 82.507812 Z M 375 158.523438 L 375 216.46875 C 375 229.949219 368.710938 242.597656 357.523438 253.734375 C 357.28125 254.035156 357 254.316406 356.691406 254.558594 C 354.402344 256.773438 351.929688 258.917969 349.257812 261.007812 L 349.265625 292.492188 C 349.265625 316.023438 330.140625 336.992188 299.222656 351.851562 C 269.492188 366.160156 228.554688 375 183.46875 375 C 138.382812 375 97.445312 366.148438 67.714844 351.851562 C 36.796875 336.984375 17.671875 316.023438 17.671875 292.492188 L 17.671875 234.554688 C 17.671875 234.554688 17.671875 234.554688 17.671875 234.542969 C 17.671875 226.039062 20.195312 217.835938 24.882812 210.113281 C 28.367188 204.375 33.054688 198.929688 38.792969 193.835938 C 30.871094 189.167969 23.980469 184.039062 18.300781 178.539062 C 18 178.292969 17.726562 178.03125 17.484375 177.730469 C 6.289062 166.59375 0 153.945312 0 140.464844 L 0 82.507812 C 0 58.976562 19.132812 38.015625 50.042969 23.136719 C 79.78125 8.851562 120.722656 0 165.804688 0 C 210.890625 0 251.832031 8.851562 281.558594 23.148438 C 312.476562 38.015625 331.601562 58.988281 331.601562 82.519531 L 331.601562 102.5625 C 344.617188 109.585938 355.164062 117.769531 362.578125 126.789062 C 370.59375 136.527344 375 147.234375 375 158.523438 Z M 331.601562 114.816406 L 331.601562 128.035156 C 336.917969 132.113281 341.183594 136.527344 344.210938 141.207031 C 347.773438 146.679688 349.667969 152.492188 349.667969 158.53125 C 349.667969 175.941406 333.910156 191.304688 308.324219 202.179688 C 284.175781 212.4375 250.847656 218.980469 213.910156 219.488281 C 213.675781 219.523438 213.429688 219.554688 213.1875 219.589844 C 212.738281 219.65625 212.289062 219.722656 211.835938 219.789062 C 209.960938 220.050781 208.070312 220.304688 206.164062 220.539062 C 206.023438 220.554688 205.882812 220.574219 205.742188 220.59375 C 205.734375 220.59375 205.726562 220.59375 205.714844 220.59375 C 205.6875 220.59375 205.660156 220.601562 205.621094 220.601562 C 205.378906 220.632812 205.125 220.660156 204.882812 220.6875 C 203.195312 220.882812 201.507812 221.070312 199.800781 221.25 C 199.519531 221.277344 199.238281 221.304688 198.957031 221.335938 C 197.015625 221.53125 195.066406 221.699219 193.105469 221.859375 C 192.917969 221.878906 192.730469 221.898438 192.542969 221.90625 C 192.253906 221.925781 191.953125 221.953125 191.664062 221.972656 C 191.015625 222.019531 190.378906 222.066406 189.730469 222.113281 C 189.429688 222.132812 189.132812 222.148438 188.832031 222.167969 C 181.304688 222.683594 173.617188 222.957031 165.804688 222.957031 C 158.054688 222.957031 150.421875 222.683594 142.949219 222.179688 C 142.566406 222.148438 142.171875 222.132812 141.796875 222.101562 C 141.207031 222.066406 140.617188 222.019531 140.023438 221.972656 C 139.707031 221.945312 139.378906 221.925781 139.058594 221.898438 L 137.617188 221.773438 C 137.257812 221.746094 136.894531 221.71875 136.539062 221.679688 L 135.835938 221.625 C 136.011719 221.671875 136.179688 221.71875 136.359375 221.757812 C 137.960938 222.160156 139.574219 222.554688 141.214844 222.929688 C 141.214844 222.929688 141.226562 222.929688 141.226562 222.929688 C 142.339844 223.179688 143.476562 223.433594 144.601562 223.679688 C 144.75 223.707031 144.890625 223.734375 145.03125 223.773438 C 153.132812 225.507812 161.605469 226.921875 170.371094 227.992188 C 170.429688 228 170.476562 228 170.53125 228.007812 C 182.898438 229.5 195.84375 230.304688 209.203125 230.304688 C 222.507812 230.304688 235.414062 229.519531 247.742188 228.027344 C 247.867188 228.007812 247.976562 228 248.101562 227.992188 C 253.285156 227.363281 258.375 226.613281 263.335938 225.742188 C 266.71875 225.148438 270.046875 224.492188 273.308594 223.800781 C 273.515625 223.742188 273.722656 223.695312 273.9375 223.667969 C 273.945312 223.667969 273.964844 223.660156 273.976562 223.660156 C 277.453125 222.910156 280.867188 222.09375 284.203125 221.222656 C 289.246094 219.910156 294.113281 218.464844 298.800781 216.898438 C 299.070312 216.777344 299.363281 216.683594 299.664062 216.609375 C 307.058594 214.105469 313.976562 211.3125 320.34375 208.257812 C 321.695312 207.609375 323.007812 206.945312 324.300781 206.277344 C 324.5625 206.109375 324.84375 205.96875 325.132812 205.847656 C 334.742188 200.792969 342.871094 195.140625 349.191406 189.046875 C 349.445312 188.738281 349.734375 188.457031 350.042969 188.203125 C 359.164062 179.101562 364.273438 169.03125 364.273438 158.511719 C 364.273438 149.785156 360.742188 141.347656 354.328125 133.546875 C 348.769531 126.789062 341.0625 120.476562 331.601562 114.816406 Z M 315.871094 117.984375 C 315.695312 118.179688 315.507812 118.367188 315.328125 118.566406 L 315.328125 159.28125 C 315.648438 158.765625 315.945312 158.242188 316.226562 157.714844 C 316.414062 157.367188 316.59375 157.023438 316.773438 156.675781 C 316.882812 156.449219 317.007812 156.234375 317.109375 156.007812 C 317.335938 155.550781 317.550781 155.101562 317.746094 154.640625 C 317.792969 154.546875 317.832031 154.453125 317.878906 154.359375 C 318.09375 153.871094 318.289062 153.375 318.488281 152.886719 C 318.515625 152.804688 318.554688 152.726562 318.582031 152.644531 C 318.769531 152.15625 318.945312 151.660156 319.105469 151.164062 C 319.132812 151.070312 319.171875 150.976562 319.199219 150.871094 C 319.359375 150.394531 319.5 149.914062 319.632812 149.4375 C 319.667969 149.304688 319.695312 149.183594 319.734375 149.054688 C 319.855469 148.601562 319.96875 148.152344 320.070312 147.703125 C 320.109375 147.535156 320.148438 147.355469 320.175781 147.1875 C 320.257812 146.773438 320.34375 146.363281 320.417969 145.941406 C 320.457031 145.707031 320.484375 145.480469 320.523438 145.246094 C 320.578125 144.882812 320.632812 144.515625 320.671875 144.148438 C 320.710938 143.832031 320.726562 143.523438 320.757812 143.203125 C 320.785156 142.914062 320.8125 142.621094 320.832031 142.320312 C 320.859375 141.777344 320.878906 141.234375 320.878906 140.691406 C 320.878906 140.617188 320.886719 140.550781 320.886719 140.476562 L 320.886719 112.097656 C 320.773438 112.246094 320.652344 112.398438 320.53125 112.546875 C 320.164062 113.023438 319.789062 113.503906 319.398438 113.980469 C 319.21875 114.207031 319.03125 114.421875 318.84375 114.648438 C 318.46875 115.097656 318.085938 115.554688 317.679688 115.996094 C 317.484375 116.222656 317.277344 116.457031 317.070312 116.679688 C 316.6875 117.113281 316.285156 117.554688 315.871094 117.984375 Z M 198.628906 210.617188 C 199.011719 210.582031 199.386719 210.535156 199.761719 210.496094 L 199.761719 163.3125 C 194.679688 163.828125 189.507812 164.242188 184.257812 164.523438 L 184.257812 211.742188 C 186 211.648438 187.742188 211.539062 189.476562 211.414062 C 189.75 211.398438 190.03125 211.378906 190.304688 211.351562 C 190.976562 211.304688 191.652344 211.246094 192.328125 211.191406 C 194.222656 211.039062 196.097656 210.871094 197.960938 210.683594 C 198.1875 210.664062 198.402344 210.636719 198.628906 210.617188 Z M 141.929688 211.40625 C 143.71875 211.539062 145.527344 211.648438 147.335938 211.753906 L 147.335938 164.53125 C 142.097656 164.25 136.921875 163.835938 131.839844 163.320312 L 131.839844 210.507812 C 132.148438 210.535156 132.460938 210.582031 132.769531 210.609375 C 133.085938 210.636719 133.40625 210.675781 133.726562 210.710938 C 135.515625 210.890625 137.324219 211.050781 139.144531 211.199219 C 139.96875 211.265625 140.785156 211.332031 141.609375 211.398438 C 141.710938 211.386719 141.824219 211.398438 141.929688 211.40625 Z M 280.085938 233.25 L 280.085938 280.21875 C 285.441406 278.925781 290.617188 277.480469 295.585938 275.90625 L 295.585938 229.125 C 290.585938 230.632812 285.421875 232.011719 280.085938 233.25 Z M 306.289062 225.628906 L 306.289062 272.222656 C 311.230469 270.355469 315.917969 268.359375 320.34375 266.230469 C 320.832031 265.996094 321.308594 265.753906 321.789062 265.519531 L 321.789062 219.375 C 316.902344 221.605469 311.726562 223.695312 306.289062 225.628906 Z M 269.371094 235.507812 C 264.320312 236.476562 259.144531 237.328125 253.867188 238.050781 L 253.867188 285.195312 C 259.152344 284.445312 264.328125 283.574219 269.371094 282.570312 Z M 243.160156 286.519531 L 243.160156 239.335938 C 238.078125 239.851562 232.902344 240.261719 227.664062 240.542969 L 227.664062 287.765625 C 232.914062 287.464844 238.078125 287.054688 243.160156 286.519531 Z M 209.195312 241.039062 C 206.597656 241.039062 204.007812 241.003906 201.441406 240.945312 L 201.441406 288.148438 C 203.511719 288.207031 205.585938 288.242188 207.65625 288.273438 C 208.171875 288.273438 208.679688 288.28125 209.195312 288.28125 C 211.789062 288.28125 214.378906 288.253906 216.945312 288.1875 L 216.945312 240.957031 C 214.378906 241.011719 211.800781 241.039062 209.195312 241.039062 Z M 290.410156 137.269531 C 289.976562 137.511719 289.546875 137.746094 289.105469 137.992188 L 289.105469 183.601562 C 291.226562 182.304688 293.269531 180.984375 295.191406 179.632812 C 298.660156 177.195312 301.800781 174.664062 304.613281 172.058594 L 304.613281 128.007812 C 304.574219 128.035156 304.539062 128.0625 304.507812 128.082031 C 304.3125 128.230469 304.105469 128.371094 303.910156 128.523438 C 303.320312 128.960938 302.71875 129.414062 302.101562 129.84375 C 301.820312 130.050781 301.527344 130.246094 301.238281 130.453125 C 300.703125 130.828125 300.160156 131.210938 299.605469 131.578125 C 299.277344 131.804688 298.941406 132.019531 298.613281 132.242188 C 298.085938 132.589844 297.5625 132.9375 297.019531 133.285156 C 296.664062 133.507812 296.304688 133.742188 295.941406 133.96875 C 295.414062 134.296875 294.882812 134.625 294.335938 134.953125 C 293.960938 135.179688 293.585938 135.402344 293.203125 135.636719 C 292.660156 135.964844 292.105469 136.285156 291.554688 136.601562 C 291.179688 136.835938 290.804688 137.054688 290.410156 137.269531 Z M 278.398438 143.363281 C 273.507812 145.59375 268.332031 147.683594 262.894531 149.617188 L 262.894531 196.191406 C 265.011719 195.382812 267.113281 194.550781 269.195312 193.679688 C 272.382812 192.335938 275.457031 190.941406 278.390625 189.488281 L 278.390625 143.363281 Z M 252.1875 153.113281 C 247.191406 154.613281 242.015625 155.992188 236.679688 157.238281 L 236.679688 204.195312 C 238.921875 203.652344 241.152344 203.082031 243.375 202.472656 L 243.683594 202.40625 C 243.804688 202.378906 243.929688 202.339844 244.039062 202.3125 C 245.859375 201.804688 247.667969 201.289062 249.449219 200.746094 C 249.664062 200.679688 249.890625 200.617188 250.105469 200.550781 C 250.808594 200.335938 251.484375 200.109375 252.179688 199.882812 L 252.179688 153.113281 Z M 225.976562 159.496094 C 220.921875 160.460938 215.757812 161.316406 210.46875 162.039062 L 210.46875 209.183594 C 210.964844 209.109375 211.472656 209.042969 211.96875 208.96875 C 212.4375 208.902344 212.898438 208.828125 213.355469 208.761719 C 214.058594 208.660156 214.761719 208.546875 215.457031 208.433594 C 215.933594 208.359375 216.421875 208.285156 216.890625 208.199219 C 217.265625 208.132812 217.640625 208.070312 218.023438 208.011719 C 220.695312 207.5625 223.339844 207.066406 225.964844 206.539062 L 225.964844 159.496094 Z M 173.550781 212.164062 L 173.550781 164.933594 C 170.980469 164.992188 168.402344 165.027344 165.796875 165.027344 C 163.199219 165.027344 160.613281 165 158.042969 164.933594 L 158.042969 212.164062 C 160.613281 212.222656 163.199219 212.257812 165.796875 212.257812 C 168.402344 212.257812 170.980469 212.230469 173.550781 212.164062 Z M 149.015625 282.328125 C 154.105469 283.339844 159.28125 284.230469 164.523438 284.992188 L 164.523438 238.058594 C 159.242188 237.335938 154.070312 236.484375 149.015625 235.519531 Z M 175.226562 239.324219 L 175.226562 286.339844 C 180.355469 286.902344 185.53125 287.34375 190.734375 287.664062 L 190.734375 240.542969 C 185.484375 240.253906 180.320312 239.839844 175.226562 239.324219 Z M 59.558594 235.070312 L 59.671875 235.246094 L 59.671875 204.113281 C 59.382812 203.992188 59.082031 203.878906 58.789062 203.757812 C 58.078125 203.464844 57.382812 203.148438 56.679688 202.835938 C 56.230469 202.640625 55.78125 202.453125 55.332031 202.257812 C 54.929688 202.078125 54.507812 201.910156 54.101562 201.722656 L 54.101562 216.46875 C 54.101562 217.648438 54.167969 218.820312 54.300781 219.992188 C 54.335938 220.273438 54.375 220.554688 54.414062 220.835938 C 54.441406 221.0625 54.46875 221.289062 54.507812 221.503906 C 54.554688 221.785156 54.601562 222.054688 54.648438 222.335938 C 54.722656 222.742188 54.789062 223.144531 54.882812 223.546875 C 55.097656 224.429688 55.320312 225.253906 55.554688 226.039062 C 55.726562 226.574219 55.894531 227.109375 56.070312 227.652344 C 56.417969 228.65625 56.804688 229.613281 57.234375 230.578125 C 57.414062 230.953125 57.589844 231.335938 57.769531 231.703125 C 57.777344 231.710938 57.777344 231.730469 57.789062 231.742188 C 57.863281 231.898438 57.945312 232.058594 58.023438 232.21875 C 58.414062 233.007812 58.847656 233.8125 59.335938 234.664062 C 59.410156 234.804688 59.484375 234.9375 59.558594 235.070312 Z M 94.914062 157.238281 C 89.578125 156 84.414062 154.613281 79.40625 153.113281 L 79.40625 199.882812 L 80.625 200.277344 L 85.707031 201.777344 C 85.742188 201.789062 85.773438 201.804688 85.800781 201.816406 C 86.082031 201.890625 86.351562 201.976562 86.632812 202.050781 C 87.582031 202.3125 88.519531 202.566406 89.4375 202.808594 C 89.550781 202.835938 89.664062 202.867188 89.765625 202.894531 C 90.308594 203.035156 90.84375 203.175781 91.378906 203.316406 C 92.148438 203.511719 92.914062 203.710938 93.695312 203.898438 C 94.097656 204 94.507812 204.09375 94.921875 204.1875 L 94.921875 157.238281 Z M 75.207031 252.226562 C 75.796875 252.695312 76.386719 253.164062 76.988281 253.621094 C 77.222656 253.753906 77.417969 253.914062 77.605469 254.082031 L 80.25 255.976562 C 81.234375 256.660156 82.304688 257.371094 83.457031 258.113281 L 85.753906 259.546875 C 85.789062 259.574219 85.835938 259.59375 85.875 259.621094 L 85.875 214.003906 C 85.507812 213.796875 85.132812 213.601562 84.769531 213.394531 C 84.261719 213.113281 83.765625 212.820312 83.269531 212.53125 C 82.894531 212.316406 82.507812 212.101562 82.144531 211.882812 L 77.484375 210.476562 C 75.890625 209.980469 74.269531 209.457031 72.628906 208.914062 C 72.402344 208.847656 72.179688 208.78125 71.972656 208.6875 C 71.746094 208.613281 71.53125 208.539062 71.304688 208.460938 C 71.109375 208.398438 70.914062 208.320312 70.707031 208.257812 C 70.59375 208.21875 70.480469 208.179688 70.378906 208.144531 L 70.378906 247.929688 C 71.765625 249.308594 73.3125 250.695312 75.207031 252.226562 Z M 112.097656 272.007812 L 112.097656 225.628906 C 111.882812 225.554688 111.65625 225.476562 111.441406 225.394531 C 110.851562 225.179688 110.269531 224.960938 109.679688 224.746094 C 109.058594 224.511719 108.429688 224.289062 107.8125 224.054688 C 107.230469 223.828125 106.667969 223.601562 106.085938 223.378906 C 105.476562 223.144531 104.867188 222.898438 104.269531 222.664062 C 103.707031 222.441406 103.144531 222.207031 102.589844 221.972656 C 101.992188 221.726562 101.398438 221.484375 100.808594 221.230469 C 100.257812 220.996094 99.710938 220.753906 99.167969 220.519531 C 98.585938 220.265625 97.996094 220.011719 97.425781 219.75 C 97.144531 219.628906 96.871094 219.496094 96.589844 219.367188 L 96.589844 265.378906 C 101.511719 267.769531 106.6875 269.980469 112.097656 272.007812 Z M 121.125 209.183594 L 121.125 162.039062 C 115.847656 161.316406 110.671875 160.460938 105.617188 159.496094 L 105.617188 206.539062 C 106.246094 206.664062 106.875 206.804688 107.503906 206.925781 C 107.578125 206.945312 107.652344 206.953125 107.726562 206.972656 C 109.621094 207.335938 111.535156 207.675781 113.457031 207.992188 C 113.914062 208.070312 114.367188 208.152344 114.824219 208.226562 C 115.210938 208.292969 115.59375 208.351562 115.976562 208.414062 C 116.773438 208.539062 117.5625 208.667969 118.359375 208.789062 C 118.734375 208.847656 119.109375 208.902344 119.484375 208.960938 C 120.039062 209.035156 120.582031 209.109375 121.125 209.183594 Z M 53.195312 143.351562 L 53.195312 189.488281 C 53.34375 189.5625 53.492188 189.636719 53.644531 189.710938 C 53.886719 189.835938 54.121094 189.945312 54.367188 190.070312 C 57.054688 191.363281 59.898438 192.636719 62.886719 193.882812 C 64.789062 194.679688 66.742188 195.441406 68.699219 196.179688 L 68.699219 149.605469 C 63.273438 147.675781 58.085938 145.585938 53.195312 143.351562 Z M 134.71875 232.398438 C 134.15625 232.257812 133.601562 232.117188 133.050781 231.964844 C 132.253906 231.757812 131.457031 231.5625 130.667969 231.355469 C 130.039062 231.1875 129.421875 231.019531 128.804688 230.851562 C 128.101562 230.652344 127.386719 230.464844 126.683594 230.269531 C 126.046875 230.089844 125.417969 229.902344 124.789062 229.714844 C 124.125 229.519531 123.460938 229.332031 122.804688 229.132812 L 122.804688 275.671875 C 127.828125 277.246094 133.003906 278.679688 138.308594 279.957031 L 138.308594 233.25 C 137.109375 232.96875 135.910156 232.6875 134.71875 232.398438 Z M 280.753906 200.242188 C 289.285156 197.980469 297.132812 195.335938 304.144531 192.355469 C 325.695312 183.195312 338.960938 171.234375 338.960938 158.539062 C 338.960938 154.613281 337.679688 150.742188 335.257812 147.027344 C 334.226562 145.433594 332.992188 143.867188 331.566406 142.332031 C 331.566406 142.378906 331.554688 142.433594 331.554688 142.480469 C 331.546875 142.613281 331.546875 142.742188 331.539062 142.875 C 331.527344 143.089844 331.5 143.296875 331.492188 143.511719 C 331.480469 143.710938 331.460938 143.90625 331.445312 144.101562 C 331.425781 144.300781 331.414062 144.496094 331.398438 144.695312 C 331.378906 144.898438 331.351562 145.097656 331.332031 145.304688 C 331.304688 145.519531 331.273438 145.726562 331.246094 145.941406 C 331.171875 146.558594 331.078125 147.167969 330.976562 147.777344 C 330.945312 147.945312 330.917969 148.117188 330.882812 148.285156 C 330.75 148.976562 330.609375 149.664062 330.449219 150.355469 C 330.429688 150.441406 330.414062 150.515625 330.394531 150.601562 C 329.429688 154.648438 327.890625 158.597656 325.820312 162.429688 C 325.761719 162.542969 325.695312 162.65625 325.632812 162.769531 C 325.304688 163.367188 324.957031 163.96875 324.601562 164.570312 C 324.476562 164.773438 324.355469 164.980469 324.234375 165.179688 C 323.933594 165.65625 323.632812 166.132812 323.316406 166.613281 C 323.128906 166.894531 322.949219 167.183594 322.753906 167.464844 C 322.527344 167.792969 322.285156 168.132812 322.050781 168.460938 C 319.714844 171.757812 316.988281 174.957031 313.882812 178.023438 C 313.761719 178.152344 313.640625 178.273438 313.507812 178.386719 C 309.910156 181.894531 305.839844 185.25 301.339844 188.398438 C 296.746094 191.625 291.722656 194.664062 286.320312 197.476562 C 286.3125 197.484375 286.304688 197.484375 286.285156 197.492188 C 286.265625 197.503906 286.246094 197.511719 286.21875 197.53125 C 285.234375 198.046875 284.242188 198.554688 283.226562 199.050781 C 283.039062 199.144531 282.851562 199.238281 282.664062 199.320312 C 282.039062 199.613281 281.398438 199.929688 280.753906 200.242188 Z M 26.980469 172.117188 C 31.367188 176.175781 36.570312 180.027344 42.488281 183.628906 L 42.488281 137.992188 C 42.046875 137.746094 41.617188 137.511719 41.183594 137.269531 C 40.808594 137.054688 40.445312 136.847656 40.070312 136.632812 C 39.496094 136.304688 38.933594 135.976562 38.371094 135.648438 C 38.007812 135.429688 37.648438 135.214844 37.285156 134.992188 C 36.722656 134.652344 36.167969 134.304688 35.625 133.96875 C 35.289062 133.753906 34.941406 133.539062 34.601562 133.320312 C 34.039062 132.964844 33.488281 132.601562 32.945312 132.234375 C 32.632812 132.027344 32.324219 131.820312 32.015625 131.617188 C 31.433594 131.222656 30.863281 130.828125 30.300781 130.425781 C 30.039062 130.246094 29.773438 130.058594 29.523438 129.882812 C 28.867188 129.414062 28.226562 128.945312 27.589844 128.464844 C 27.429688 128.34375 27.273438 128.230469 27.113281 128.109375 C 27.074219 128.082031 27.027344 128.042969 26.980469 128.015625 Z M 44.652344 324.148438 C 49.039062 328.210938 54.242188 332.0625 60.148438 335.664062 L 60.148438 290.015625 C 59.726562 289.78125 59.304688 289.546875 58.882812 289.3125 C 58.472656 289.078125 58.070312 288.84375 57.664062 288.609375 C 57.132812 288.300781 56.605469 288 56.082031 287.679688 C 55.6875 287.445312 55.292969 287.210938 54.910156 286.976562 C 54.382812 286.660156 53.859375 286.339844 53.34375 286.011719 C 52.96875 285.777344 52.601562 285.542969 52.238281 285.308594 C 51.710938 284.972656 51.1875 284.625 50.671875 284.289062 C 50.335938 284.0625 49.988281 283.835938 49.660156 283.613281 C 49.117188 283.246094 48.582031 282.871094 48.046875 282.496094 C 47.757812 282.289062 47.457031 282.085938 47.164062 281.878906 C 46.554688 281.445312 45.964844 281.007812 45.375 280.566406 C 45.167969 280.414062 44.960938 280.265625 44.765625 280.117188 C 44.726562 280.085938 44.691406 280.058594 44.664062 280.039062 L 44.664062 324.148438 Z M 97.070312 305.136719 L 97.070312 351.917969 C 102.046875 353.492188 107.222656 354.929688 112.574219 356.230469 L 112.574219 309.261719 C 107.242188 308.023438 102.074219 306.648438 97.070312 305.136719 Z M 123.289062 358.585938 C 128.324219 359.585938 133.5 360.460938 138.796875 361.210938 L 138.796875 314.0625 C 133.519531 313.339844 128.34375 312.488281 123.289062 311.523438 Z M 149.503906 362.53125 C 154.585938 363.066406 159.75 363.476562 165.007812 363.777344 L 165.007812 316.554688 C 159.769531 316.273438 154.59375 315.863281 149.503906 315.347656 Z M 201.929688 316.546875 L 201.929688 363.769531 C 207.179688 363.476562 212.351562 363.054688 217.425781 362.523438 L 217.425781 315.335938 C 212.34375 315.863281 207.167969 316.265625 201.929688 316.546875 Z M 228.140625 361.210938 C 233.429688 360.460938 238.601562 359.585938 243.648438 358.585938 L 243.648438 311.523438 C 238.59375 312.488281 233.429688 313.339844 228.140625 314.0625 Z M 254.351562 356.230469 C 259.707031 354.9375 264.882812 353.492188 269.851562 351.917969 L 269.851562 305.15625 C 269.765625 305.183594 269.691406 305.203125 269.617188 305.230469 C 264.695312 306.703125 259.601562 308.042969 254.351562 309.261719 Z M 306.777344 290.015625 L 306.777344 335.664062 C 312.683594 332.0625 317.886719 328.210938 322.285156 324.148438 L 322.285156 280.050781 C 322.265625 280.070312 322.238281 280.085938 322.210938 280.105469 C 321.648438 280.527344 321.066406 280.949219 320.492188 281.363281 C 320.007812 281.71875 319.527344 282.074219 319.03125 282.421875 C 318.402344 282.863281 317.757812 283.292969 317.117188 283.726562 C 316.640625 284.042969 316.179688 284.363281 315.703125 284.679688 C 315.007812 285.132812 314.289062 285.582031 313.574219 286.03125 C 313.117188 286.3125 312.675781 286.601562 312.214844 286.882812 C 311.445312 287.351562 310.660156 287.8125 309.871094 288.273438 C 309.441406 288.523438 309.019531 288.777344 308.578125 289.03125 C 307.976562 289.359375 307.378906 289.6875 306.777344 290.015625 Z M 340.921875 253.996094 C 343.472656 252.09375 345.84375 250.144531 348.019531 248.136719 L 348.019531 204.039062 C 347.980469 204.066406 347.933594 204.09375 347.898438 204.132812 C 347.738281 204.253906 347.570312 204.375 347.410156 204.496094 C 346.78125 204.964844 346.144531 205.445312 345.488281 205.902344 C 345.226562 206.089844 344.960938 206.269531 344.699219 206.457031 C 344.136719 206.851562 343.566406 207.253906 342.984375 207.648438 C 342.675781 207.851562 342.367188 208.058594 342.054688 208.265625 C 341.503906 208.632812 340.960938 208.988281 340.398438 209.351562 C 340.058594 209.570312 339.722656 209.785156 339.375 210 C 338.820312 210.347656 338.269531 210.683594 337.707031 211.03125 C 337.351562 211.246094 336.992188 211.460938 336.636719 211.679688 C 336.074219 212.015625 335.492188 212.34375 334.921875 212.679688 C 334.554688 212.886719 334.199219 213.101562 333.835938 213.308594 C 333.394531 213.554688 332.953125 213.796875 332.511719 214.039062 L 332.511719 259.519531 C 335.242188 257.90625 337.941406 256.226562 340.753906 254.128906 C 340.808594 254.054688 340.867188 254.035156 340.921875 253.996094 Z M 10.707031 82.507812 C 10.707031 88.332031 12.28125 94.023438 15.226562 99.476562 C 17.597656 103.875 20.859375 108.121094 24.929688 112.179688 C 25.246094 112.433594 25.539062 112.726562 25.800781 113.042969 C 32.117188 119.136719 40.238281 124.789062 49.847656 129.84375 C 50.136719 129.964844 50.417969 130.105469 50.679688 130.273438 C 51.984375 130.949219 53.296875 131.617188 54.648438 132.261719 C 61.023438 135.328125 67.960938 138.132812 75.367188 140.632812 C 75.636719 140.699219 75.910156 140.792969 76.164062 140.898438 C 83.972656 143.503906 92.304688 145.78125 101.082031 147.675781 C 101.277344 147.703125 101.476562 147.75 101.664062 147.796875 C 109.742188 149.53125 118.199219 150.9375 126.945312 152.007812 C 127.023438 152.015625 127.097656 152.023438 127.171875 152.035156 C 139.519531 153.523438 152.457031 154.320312 165.796875 154.320312 C 179.128906 154.320312 192.054688 153.523438 204.402344 152.042969 C 204.488281 152.035156 204.570312 152.023438 204.65625 152.015625 C 213.414062 150.957031 221.867188 149.539062 229.960938 147.804688 C 230.136719 147.757812 230.316406 147.722656 230.492188 147.695312 C 239.269531 145.789062 247.601562 143.523438 255.421875 140.914062 C 255.683594 140.804688 255.945312 140.71875 256.226562 140.644531 C 263.632812 138.140625 270.570312 135.335938 276.945312 132.273438 C 278.296875 131.625 279.617188 130.960938 280.921875 130.285156 C 281.175781 130.125 281.445312 129.984375 281.726562 129.871094 C 291.347656 124.820312 299.476562 119.164062 305.792969 113.0625 C 306.046875 112.742188 306.335938 112.460938 306.65625 112.21875 C 311.765625 107.109375 315.617188 101.710938 318.019531 96.085938 C 319.894531 91.679688 320.886719 87.148438 320.886719 82.527344 C 320.886719 63.449219 304.097656 45.835938 276.945312 32.773438 C 248.617188 19.152344 209.316406 10.726562 165.796875 10.726562 C 122.269531 10.726562 82.976562 19.152344 54.648438 32.773438 C 27.507812 45.816406 10.707031 63.429688 10.707031 82.507812 Z M 10.707031 140.464844 C 10.707031 146.945312 12.648438 153.253906 16.265625 159.273438 L 16.265625 118.554688 C 16.085938 118.367188 15.917969 118.191406 15.742188 118.003906 C 15.320312 117.554688 14.898438 117.101562 14.492188 116.644531 C 14.296875 116.429688 14.101562 116.210938 13.914062 115.988281 C 13.507812 115.527344 13.117188 115.070312 12.730469 114.609375 C 12.554688 114.394531 12.375 114.179688 12.195312 113.972656 C 11.804688 113.492188 11.429688 113.007812 11.054688 112.519531 C 10.941406 112.367188 10.820312 112.226562 10.707031 112.078125 Z M 33.992188 215.632812 C 30.335938 221.652344 28.378906 228 28.378906 234.542969 C 28.378906 237.722656 28.855469 240.863281 29.757812 243.945312 C 34.273438 259.367188 49.695312 273.414062 72.320312 284.296875 C 100.648438 297.917969 139.941406 306.347656 183.46875 306.347656 C 214.011719 306.347656 242.484375 302.183594 266.558594 294.984375 C 267.226562 294.789062 267.871094 294.582031 268.527344 294.375 C 269.269531 294.140625 270.019531 293.914062 270.757812 293.679688 C 271.453125 293.457031 272.136719 293.222656 272.832031 292.996094 C 273.382812 292.808594 273.945312 292.632812 274.5 292.445312 C 270.429688 293.316406 266.492188 294.046875 262.621094 294.664062 C 258.253906 295.398438 253.800781 296.035156 249.273438 296.585938 C 249.167969 296.605469 249.066406 296.617188 248.960938 296.625 C 237.515625 298.011719 225.609375 298.808594 213.367188 298.960938 C 213.355469 298.960938 213.355469 298.960938 213.347656 298.960938 C 211.96875 298.976562 210.589844 298.988281 209.203125 298.988281 C 195.507812 298.988281 182.183594 298.164062 169.453125 296.625 C 169.339844 296.617188 169.226562 296.597656 169.117188 296.585938 C 163.445312 295.894531 157.882812 295.058594 152.464844 294.09375 C 121.554688 291.160156 94.527344 283.902344 75.261719 273.9375 C 55.070312 263.484375 43.003906 249.824219 43.003906 234.542969 C 43.003906 232.828125 43.171875 231.054688 43.507812 229.257812 L 43.507812 229.238281 C 43.726562 228.046875 44.035156 226.855469 44.398438 225.683594 C 44.089844 224.277344 43.855469 222.863281 43.695312 221.429688 C 43.695312 221.398438 43.6875 221.363281 43.6875 221.335938 C 43.6875 221.324219 43.6875 221.304688 43.6875 221.296875 C 43.507812 219.710938 43.414062 218.109375 43.40625 216.507812 C 43.40625 216.496094 43.40625 216.488281 43.40625 216.476562 L 43.40625 204.09375 C 39.570312 207.789062 36.414062 211.648438 33.992188 215.632812 Z M 28.378906 292.492188 C 28.378906 298.96875 30.320312 305.277344 33.9375 311.304688 L 33.9375 270.589844 C 33.75 270.402344 33.570312 270.207031 33.394531 270.007812 C 32.980469 269.578125 32.578125 269.136719 32.183594 268.695312 C 31.976562 268.460938 31.773438 268.238281 31.566406 268.003906 C 31.171875 267.5625 30.796875 267.113281 30.421875 266.664062 C 30.234375 266.4375 30.039062 266.203125 29.851562 265.976562 C 29.476562 265.519531 29.109375 265.050781 28.742188 264.582031 C 28.621094 264.421875 28.492188 264.261719 28.367188 264.101562 L 28.367188 292.492188 Z M 72.308594 342.234375 C 76.734375 344.363281 81.421875 346.359375 86.363281 348.226562 L 86.363281 301.632812 C 80.933594 299.699219 75.75 297.609375 70.855469 295.378906 L 70.855469 341.511719 C 71.34375 341.765625 71.820312 342 72.308594 342.234375 Z M 191.222656 364.199219 L 191.222656 316.960938 C 188.652344 317.015625 186.074219 317.054688 183.46875 317.054688 C 180.871094 317.054688 178.285156 317.023438 175.714844 316.960938 L 175.714844 364.191406 C 178.285156 364.246094 180.871094 364.285156 183.46875 364.285156 C 186.066406 364.292969 188.652344 364.257812 191.222656 364.199219 Z M 294.617188 342.234375 C 295.105469 342 295.585938 341.757812 296.0625 341.523438 L 296.0625 295.386719 C 295.105469 295.828125 294.132812 296.257812 293.148438 296.679688 C 292.960938 296.765625 292.773438 296.851562 292.585938 296.933594 C 291.207031 297.535156 289.800781 298.117188 288.382812 298.6875 C 288.347656 298.707031 288.300781 298.726562 288.261719 298.734375 C 285.757812 299.738281 283.191406 300.703125 280.566406 301.640625 L 280.566406 348.226562 C 285.496094 346.367188 290.195312 344.363281 294.617188 342.234375 Z M 338.558594 268.460938 C 336.824219 269.578125 334.894531 270.683594 332.992188 271.714844 L 332.992188 311.304688 C 336.617188 305.289062 338.558594 298.96875 338.558594 292.492188 Z M 363.976562 188.492188 C 363.589844 189 363.1875 189.507812 362.785156 190.003906 C 362.617188 190.210938 362.445312 190.40625 362.277344 190.613281 C 361.882812 191.089844 361.480469 191.558594 361.070312 192.027344 C 360.882812 192.234375 360.695312 192.449219 360.507812 192.65625 C 360.09375 193.117188 359.671875 193.574219 359.242188 194.035156 C 359.070312 194.210938 358.894531 194.398438 358.726562 194.578125 L 358.726562 235.292969 C 362.34375 229.273438 364.292969 222.957031 364.292969 216.476562 L 364.292969 188.101562 C 364.191406 188.230469 364.078125 188.363281 363.976562 188.492188 Z M 363.976562 188.492188 " fill-opacity="1" fill-rule="nonzero"/></svg>