<svg xmlns="http://www.w3.org/2000/svg" xmlns:xlink="http://www.w3.org/1999/xlink" width="500" zoomAndPan="magnify" viewBox="0 0 375 374.999991" height="500" preserveAspectRatio="xMidYMid meet" version="1.0"><path fill="#100f0d" d="M 120.003906 163.503906 L 120.003906 172.5 L 127.503906 172.5 L 127.503906 165.003906 L 129.003906 165.003906 L 129.003906 163.503906 Z M 238.503906 163.503906 L 238.503906 165.003906 L 240.003906 165.003906 L 240.003906 172.5 L 247.496094 172.5 L 247.496094 163.503906 Z M 373.5 301.503906 L 373.5 328.496094 L 358.496094 328.496094 L 358.496094 336.003906 L 322.496094 336.003906 L 322.496094 337.503906 L 292.503906 337.503906 L 292.503906 336.003906 L 291.003906 336.003906 L 291.003906 343.496094 L 284.996094 343.496094 L 284.996094 344.996094 L 277.503906 344.996094 L 277.503906 360 L 247.496094 360 L 247.496094 358.5 L 120.003906 358.5 L 120.003906 360 L 90.003906 360 L 90.003906 344.996094 L 82.503906 344.996094 L 82.503906 343.496094 L 76.5 343.496094 L 76.5 336.003906 L 75 336.003906 L 75 337.503906 L 45.007812 337.503906 L 45.007812 336.003906 L 9.007812 336.003906 L 9.007812 285 L 7.507812 285 L 7.507812 269.996094 L 15.003906 269.996094 L 15.003906 271.496094 L 16.503906 271.496094 L 16.503906 269.996094 L 15.003906 269.996094 L 15.003906 262.503906 L 22.507812 262.503906 L 22.507812 264.003906 L 24.007812 264.003906 L 24.007812 262.503906 L 22.507812 262.503906 L 22.507812 255.003906 L 30.003906 255.003906 L 30.003906 256.503906 L 31.503906 256.503906 L 31.503906 255.003906 L 30.003906 255.003906 L 30.003906 240.003906 L 37.5 240.003906 L 37.5 241.503906 L 39 241.503906 L 39 240.003906 L 37.5 240.003906 L 37.5 232.496094 L 45.007812 232.496094 L 45.007812 233.996094 L 46.507812 233.996094 L 46.507812 232.496094 L 45.007812 232.496094 L 45.007812 225.003906 L 52.503906 225.003906 L 52.503906 226.503906 L 54.003906 226.503906 L 54.003906 225.003906 L 52.503906 225.003906 L 52.503906 217.503906 L 60.007812 217.503906 L 60.007812 219.003906 L 61.507812 219.003906 L 61.507812 217.503906 L 60.007812 217.503906 L 60.007812 202.503906 L 67.503906 202.503906 L 67.503906 204.003906 L 69.003906 204.003906 L 69.003906 202.503906 L 67.503906 202.503906 L 67.503906 180.003906 L 60.007812 180.003906 L 60.007812 172.5 L 52.503906 172.5 L 52.503906 171 L 51.003906 171 L 51.003906 178.503906 L 39 178.503906 L 39 172.5 L 37.5 172.5 L 37.5 165.003906 L 45.007812 165.003906 L 45.007812 166.503906 L 46.507812 166.503906 L 46.507812 165.003906 L 45.007812 165.003906 L 45.007812 157.496094 L 46.507812 157.496094 L 46.507812 155.996094 L 45.007812 155.996094 L 45.007812 157.496094 L 37.5 157.496094 L 37.5 150.003906 L 39 150.003906 L 39 148.503906 L 37.5 148.503906 L 37.5 150.003906 L 30.003906 150.003906 L 30.003906 142.503906 L 31.503906 142.503906 L 31.503906 141.003906 L 30.003906 141.003906 L 30.003906 142.503906 L 22.507812 142.503906 L 22.507812 135 L 24.007812 135 L 24.007812 133.5 L 22.507812 133.5 L 22.507812 135 L 15.003906 135 L 15.003906 127.503906 L 16.503906 127.503906 L 16.503906 126.003906 L 15.003906 126.003906 L 15.003906 127.503906 L 7.507812 127.503906 L 7.507812 119.996094 L 0 119.996094 L 0 105.003906 L 7.507812 105.003906 L 7.507812 97.5 L 22.507812 97.5 L 22.507812 105.003906 L 30.003906 105.003906 L 30.003906 112.503906 L 28.503906 112.503906 L 28.503906 114.003906 L 30.003906 114.003906 L 30.003906 112.503906 L 37.5 112.503906 L 37.5 119.996094 L 36 119.996094 L 36 121.496094 L 37.5 121.496094 L 37.5 119.996094 L 45.007812 119.996094 L 45.007812 127.503906 L 43.507812 127.503906 L 43.507812 129.003906 L 45.007812 129.003906 L 45.007812 127.503906 L 52.503906 127.503906 L 52.503906 135 L 51.003906 135 L 51.003906 136.5 L 52.503906 136.5 L 52.503906 135 L 60.007812 135 L 60.007812 142.503906 L 58.507812 142.503906 L 58.507812 144.003906 L 60.007812 144.003906 L 60.007812 142.503906 L 67.503906 142.503906 L 67.503906 144.003906 L 69.003906 144.003906 L 69.003906 142.503906 L 67.503906 142.503906 L 67.503906 135 L 75 135 L 75 136.5 L 81.003906 136.5 L 81.003906 148.503906 L 73.5 148.503906 L 73.5 158.996094 L 81.003906 158.996094 L 81.003906 166.503906 L 88.503906 166.503906 L 88.503906 174 L 95.996094 174 L 95.996094 181.503906 L 103.503906 181.503906 L 103.503906 187.503906 L 112.5 187.503906 L 112.5 165.003906 L 105.003906 165.003906 L 105.003906 150.003906 L 106.503906 150.003906 L 106.503906 148.503906 L 105.003906 148.503906 L 105.003906 150.003906 L 97.496094 150.003906 L 97.496094 142.503906 L 98.996094 142.503906 L 98.996094 141.003906 L 97.496094 141.003906 L 97.496094 142.503906 L 90.003906 142.503906 L 90.003906 126.003906 L 84.003906 126.003906 L 84.003906 114.003906 L 88.503906 114.003906 L 88.503906 121.496094 L 90.003906 121.496094 L 90.003906 119.996094 L 97.496094 119.996094 L 97.496094 121.496094 L 98.996094 121.496094 L 98.996094 119.996094 L 97.496094 119.996094 L 97.496094 112.503906 L 106.503906 112.503906 L 106.503906 105.003906 L 105.003906 105.003906 L 105.003906 103.503906 L 84.003906 103.503906 L 84.003906 99 L 98.996094 99 L 98.996094 97.5 L 97.496094 97.5 L 97.496094 90.003906 L 98.996094 90.003906 L 98.996094 88.503906 L 91.503906 88.503906 L 91.503906 76.503906 L 95.996094 76.503906 L 95.996094 83.996094 L 106.503906 83.996094 L 106.503906 66.003906 L 98.996094 66.003906 L 98.996094 58.5 L 91.503906 58.5 L 91.503906 54.003906 L 103.503906 54.003906 L 103.503906 61.5 L 111 61.5 L 111 69.003906 L 121.503906 69.003906 L 121.503906 51.003906 L 114 51.003906 L 114 24 L 121.503906 24 L 121.503906 16.503906 L 133.496094 16.503906 L 133.496094 24 L 148.5 24 L 148.5 54.003906 L 159.003906 54.003906 L 159.003906 46.503906 L 163.503906 46.503906 L 163.503906 61.5 L 173.996094 61.5 L 173.996094 54.003906 L 178.503906 54.003906 L 178.503906 76.503906 L 189 76.503906 L 189 54.003906 L 193.503906 54.003906 L 193.503906 61.5 L 204.003906 61.5 L 204.003906 46.503906 L 208.496094 46.503906 L 208.496094 54.003906 L 219.003906 54.003906 L 219.003906 31.503906 L 226.5 31.503906 L 226.5 24 L 234.003906 24 L 234.003906 16.503906 L 245.996094 16.503906 L 245.996094 24 L 253.503906 24 L 253.503906 51.003906 L 245.996094 51.003906 L 245.996094 69.003906 L 256.503906 69.003906 L 256.503906 61.5 L 264 61.5 L 264 54.003906 L 276.003906 54.003906 L 276.003906 58.5 L 268.503906 58.5 L 268.503906 66.003906 L 261 66.003906 L 261 83.996094 L 271.503906 83.996094 L 271.503906 76.503906 L 276.003906 76.503906 L 276.003906 88.503906 L 268.503906 88.503906 L 268.503906 90.003906 L 270.003906 90.003906 L 270.003906 97.5 L 268.503906 97.5 L 268.503906 99 L 283.496094 99 L 283.496094 103.503906 L 262.5 103.503906 L 262.5 105.003906 L 261 105.003906 L 261 112.503906 L 270.003906 112.503906 L 270.003906 119.996094 L 268.503906 119.996094 L 268.503906 121.496094 L 270.003906 121.496094 L 270.003906 119.996094 L 277.503906 119.996094 L 277.503906 121.496094 L 279.003906 121.496094 L 279.003906 114.003906 L 283.496094 114.003906 L 283.496094 126.003906 L 277.503906 126.003906 L 277.503906 142.503906 L 270.003906 142.503906 L 270.003906 141.003906 L 268.503906 141.003906 L 268.503906 142.503906 L 270.003906 142.503906 L 270.003906 150.003906 L 262.5 150.003906 L 262.5 148.503906 L 261 148.503906 L 261 150.003906 L 262.5 150.003906 L 262.5 165.003906 L 255.003906 165.003906 L 255.003906 187.503906 L 264 187.503906 L 264 181.503906 L 271.503906 181.503906 L 271.503906 174 L 279.003906 174 L 279.003906 166.503906 L 286.496094 166.503906 L 286.496094 158.996094 L 294.003906 158.996094 L 294.003906 148.503906 L 286.496094 148.503906 L 286.496094 136.5 L 292.503906 136.5 L 292.503906 135 L 300 135 L 300 142.503906 L 298.5 142.503906 L 298.5 144.003906 L 300 144.003906 L 300 142.503906 L 307.496094 142.503906 L 307.496094 144.003906 L 308.996094 144.003906 L 308.996094 142.503906 L 307.496094 142.503906 L 307.496094 135 L 315.003906 135 L 315.003906 136.5 L 316.503906 136.5 L 316.503906 135 L 315.003906 135 L 315.003906 127.503906 L 322.496094 127.503906 L 322.496094 129.003906 L 323.996094 129.003906 L 323.996094 127.503906 L 322.496094 127.503906 L 322.496094 119.996094 L 330.003906 119.996094 L 330.003906 121.496094 L 331.503906 121.496094 L 331.503906 119.996094 L 330.003906 119.996094 L 330.003906 112.503906 L 337.5 112.503906 L 337.5 114.003906 L 339 114.003906 L 339 112.503906 L 337.5 112.503906 L 337.5 105.003906 L 344.996094 105.003906 L 344.996094 97.5 L 359.996094 97.5 L 359.996094 105.003906 L 367.503906 105.003906 L 367.503906 119.996094 L 359.996094 119.996094 L 359.996094 127.503906 L 352.503906 127.503906 L 352.503906 126.003906 L 351.003906 126.003906 L 351.003906 127.503906 L 352.503906 127.503906 L 352.503906 135 L 344.996094 135 L 344.996094 133.5 L 343.496094 133.5 L 343.496094 135 L 344.996094 135 L 344.996094 142.503906 L 337.5 142.503906 L 337.5 141.003906 L 336 141.003906 L 336 142.503906 L 337.5 142.503906 L 337.5 150.003906 L 330.003906 150.003906 L 330.003906 148.503906 L 328.503906 148.503906 L 328.503906 150.003906 L 330.003906 150.003906 L 330.003906 157.496094 L 322.496094 157.496094 L 322.496094 155.996094 L 320.996094 155.996094 L 320.996094 157.496094 L 322.496094 157.496094 L 322.496094 165.003906 L 320.996094 165.003906 L 320.996094 166.503906 L 322.496094 166.503906 L 322.496094 165.003906 L 330.003906 165.003906 L 330.003906 172.5 L 328.503906 172.5 L 328.503906 178.503906 L 316.503906 178.503906 L 316.503906 171 L 315.003906 171 L 315.003906 172.5 L 307.496094 172.5 L 307.496094 180.003906 L 300 180.003906 L 300 187.503906 L 298.5 187.503906 L 298.5 194.996094 L 300 194.996094 L 300 202.503906 L 298.5 202.503906 L 298.5 204.003906 L 300 204.003906 L 300 202.503906 L 307.496094 202.503906 L 307.496094 217.503906 L 305.996094 217.503906 L 305.996094 219.003906 L 307.496094 219.003906 L 307.496094 217.503906 L 315.003906 217.503906 L 315.003906 225.003906 L 313.503906 225.003906 L 313.503906 226.503906 L 315.003906 226.503906 L 315.003906 225.003906 L 330.003906 225.003906 L 330.003906 240.003906 L 328.503906 240.003906 L 328.503906 241.503906 L 330.003906 241.503906 L 330.003906 240.003906 L 337.5 240.003906 L 337.5 255.003906 L 336 255.003906 L 336 256.503906 L 337.5 256.503906 L 337.5 255.003906 L 344.996094 255.003906 L 344.996094 262.503906 L 343.496094 262.503906 L 343.496094 264.003906 L 344.996094 264.003906 L 344.996094 262.503906 L 352.503906 262.503906 L 352.503906 269.996094 L 351.003906 269.996094 L 351.003906 271.496094 L 352.503906 271.496094 L 352.503906 269.996094 L 359.996094 269.996094 L 359.996094 285 L 358.496094 285 L 358.496094 293.996094 L 366.003906 293.996094 L 366.003906 301.503906 Z M 283.496094 69.003906 L 279.003906 69.003906 L 279.003906 73.503906 L 283.496094 73.503906 Z M 88.503906 69.003906 L 84.003906 69.003906 L 84.003906 73.503906 L 88.503906 73.503906 Z M 88.503906 46.503906 L 84.003906 46.503906 L 84.003906 51.003906 L 88.503906 51.003906 Z M 283.496094 51.003906 L 279.003906 51.003906 L 279.003906 46.503906 L 283.496094 46.503906 L 283.496094 51.003906 " fill-opacity="1" fill-rule="nonzero"/><path fill="#edda76" d="M 172.496094 180.003906 L 180.003906 180.003906 L 180.003906 172.5 L 172.496094 172.5 Z M 187.5 300.003906 L 195.003906 300.003906 L 195.003906 292.496094 L 187.5 292.496094 Z M 202.503906 142.503906 L 195.003906 142.503906 L 195.003906 150.003906 L 217.503906 150.003906 L 217.503906 142.503906 Z M 172.496094 202.503906 L 180.003906 202.503906 L 180.003906 194.996094 L 172.496094 194.996094 Z M 187.5 202.503906 L 195.003906 202.503906 L 195.003906 194.996094 L 187.5 194.996094 Z M 187.5 285 L 195.003906 285 L 195.003906 277.503906 L 187.5 277.503906 Z M 187.5 269.996094 L 195.003906 269.996094 L 195.003906 262.503906 L 187.5 262.503906 Z M 187.5 315.003906 L 195.003906 315.003906 L 195.003906 307.496094 L 187.5 307.496094 Z M 165.003906 150.003906 L 172.496094 150.003906 L 172.496094 142.503906 L 150 142.503906 L 150 150.003906 Z M 240.003906 22.5 L 232.503906 22.5 L 232.503906 30.003906 L 225 30.003906 L 225 45.003906 L 247.496094 45.003906 L 247.496094 22.5 Z M 195.003906 172.5 L 187.5 172.5 L 187.5 180.003906 L 195.003906 180.003906 Z M 134.996094 22.5 L 120.003906 22.5 L 120.003906 45.003906 L 142.503906 45.003906 L 142.503906 30.003906 L 134.996094 30.003906 Z M 172.496094 269.996094 L 180.003906 269.996094 L 180.003906 262.503906 L 172.496094 262.503906 Z M 172.496094 285 L 180.003906 285 L 180.003906 277.503906 L 172.496094 277.503906 Z M 172.496094 315.003906 L 180.003906 315.003906 L 180.003906 307.496094 L 172.496094 307.496094 Z M 172.496094 300.003906 L 180.003906 300.003906 L 180.003906 292.496094 L 172.496094 292.496094 Z M 202.503906 172.5 L 202.503906 180.003906 L 209.996094 180.003906 L 209.996094 165.003906 L 202.503906 165.003906 Z M 165.003906 187.503906 L 165.003906 194.996094 L 172.496094 194.996094 L 172.496094 187.503906 Z M 195.003906 194.996094 L 202.503906 194.996094 L 202.503906 187.503906 L 195.003906 187.503906 Z M 165.003906 180.003906 L 157.503906 180.003906 L 157.503906 165.003906 L 165.003906 165.003906 L 165.003906 180.003906 " fill-opacity="1" fill-rule="nonzero"/><path fill="#c7bb3f" d="M 67.503906 157.496094 L 60.007812 157.496094 L 60.007812 165.003906 L 75 165.003906 L 75 157.496094 Z M 75 165.003906 L 75 172.5 L 82.503906 172.5 L 82.503906 165.003906 Z M 82.503906 45.003906 L 82.503906 52.503906 L 90.003906 52.503906 L 90.003906 45.003906 Z M 90.003906 67.503906 L 82.503906 67.503906 L 82.503906 75.003906 L 90.003906 75.003906 Z M 82.503906 172.5 L 82.503906 180.003906 L 90.003906 180.003906 L 90.003906 172.5 Z M 90.003906 90.003906 L 97.496094 90.003906 L 97.496094 75.003906 L 90.003906 75.003906 Z M 90.003906 187.503906 L 97.496094 187.503906 L 97.496094 180.003906 L 90.003906 180.003906 Z M 105.003906 52.503906 L 90.003906 52.503906 L 90.003906 60 L 97.496094 60 L 97.496094 67.503906 L 105.003906 67.503906 L 105.003906 75.003906 L 112.5 75.003906 L 112.5 60 L 105.003906 60 Z M 97.496094 97.5 L 82.503906 97.5 L 82.503906 105.003906 L 105.003906 105.003906 L 105.003906 97.5 Z M 105.003906 112.503906 L 112.5 112.503906 L 112.5 105.003906 L 105.003906 105.003906 Z M 112.5 30.003906 L 112.5 52.503906 L 120.003906 52.503906 L 120.003906 22.5 L 112.5 22.5 Z M 127.503906 15.003906 L 120.003906 15.003906 L 120.003906 22.5 L 134.996094 22.5 L 134.996094 15.003906 Z M 142.503906 30.003906 L 142.503906 52.503906 L 150 52.503906 L 150 22.5 L 134.996094 22.5 L 134.996094 30.003906 Z M 180.003906 127.503906 L 180.003906 119.996094 L 165.003906 119.996094 L 165.003906 112.503906 L 150 112.503906 L 150 119.996094 L 142.503906 119.996094 L 142.503906 142.503906 L 150 142.503906 L 150 127.503906 L 172.496094 127.503906 L 172.496094 142.503906 L 180.003906 142.503906 Z M 195.003906 172.5 L 195.003906 165.003906 L 187.5 165.003906 L 187.5 172.5 L 180.003906 172.5 L 180.003906 165.003906 L 172.496094 165.003906 L 172.496094 172.5 L 165.003906 172.5 L 165.003906 165.003906 L 150 165.003906 L 150 180.003906 L 157.503906 180.003906 L 157.503906 187.503906 L 165.003906 187.503906 L 165.003906 194.996094 L 172.496094 194.996094 L 172.496094 202.503906 L 180.003906 202.503906 L 180.003906 194.996094 L 187.5 194.996094 L 187.5 202.503906 L 195.003906 202.503906 L 195.003906 194.996094 L 202.503906 194.996094 L 202.503906 187.503906 L 209.996094 187.503906 L 209.996094 180.003906 L 217.503906 180.003906 L 217.503906 165.003906 L 202.503906 165.003906 L 202.503906 172.5 Z M 180.003906 142.503906 L 187.5 142.503906 L 187.5 150.003906 L 195.003906 150.003906 L 195.003906 157.496094 L 217.503906 157.496094 L 217.503906 150.003906 L 225 150.003906 L 225 187.503906 L 217.503906 187.503906 L 217.503906 194.996094 L 209.996094 194.996094 L 209.996094 202.503906 L 202.503906 202.503906 L 202.503906 210 L 195.003906 210 L 195.003906 225.003906 L 172.496094 225.003906 L 172.496094 210 L 165.003906 210 L 165.003906 202.503906 L 157.503906 202.503906 L 157.503906 194.996094 L 150 194.996094 L 150 187.503906 L 142.503906 187.503906 L 142.503906 150.003906 L 150 150.003906 L 150 157.496094 L 172.496094 157.496094 L 172.496094 150.003906 L 180.003906 150.003906 Z M 217.503906 112.503906 L 202.503906 112.503906 L 202.503906 119.996094 L 187.5 119.996094 L 187.5 142.503906 L 195.003906 142.503906 L 195.003906 127.503906 L 217.503906 127.503906 L 217.503906 142.503906 L 225 142.503906 L 225 119.996094 L 217.503906 119.996094 Z M 217.503906 37.503906 L 217.503906 52.503906 L 225 52.503906 L 225 30.003906 L 217.503906 30.003906 Z M 225 30.003906 L 232.503906 30.003906 L 232.503906 22.5 L 225 22.5 Z M 240.003906 15.003906 L 232.503906 15.003906 L 232.503906 22.5 L 247.496094 22.5 L 247.496094 15.003906 Z M 247.496094 37.503906 L 247.496094 52.503906 L 255.003906 52.503906 L 255.003906 22.5 L 247.496094 22.5 Z M 255.003906 67.503906 L 255.003906 75.003906 L 262.5 75.003906 L 262.5 67.503906 L 270.003906 67.503906 L 270.003906 60 L 277.503906 60 L 277.503906 52.503906 L 262.5 52.503906 L 262.5 60 L 255.003906 60 Z M 255.003906 112.503906 L 262.5 112.503906 L 262.5 105.003906 L 255.003906 105.003906 Z M 270.003906 82.496094 L 270.003906 90.003906 L 277.503906 90.003906 L 277.503906 75.003906 L 270.003906 75.003906 Z M 277.503906 105.003906 L 284.996094 105.003906 L 284.996094 97.5 L 262.5 97.5 L 262.5 105.003906 Z M 270.003906 187.503906 L 277.503906 187.503906 L 277.503906 180.003906 L 270.003906 180.003906 Z M 284.996094 45.003906 L 277.503906 45.003906 L 277.503906 52.503906 L 284.996094 52.503906 Z M 277.503906 75.003906 L 284.996094 75.003906 L 284.996094 67.503906 L 277.503906 67.503906 Z M 277.503906 180.003906 L 284.996094 180.003906 L 284.996094 172.5 L 277.503906 172.5 Z M 284.996094 172.5 L 292.503906 172.5 L 292.503906 165.003906 L 284.996094 165.003906 Z M 300 157.496094 L 292.503906 157.496094 L 292.503906 165.003906 L 307.496094 165.003906 L 307.496094 157.496094 Z M 90.003906 119.996094 L 90.003906 112.503906 L 82.503906 112.503906 L 82.503906 127.503906 L 90.003906 127.503906 Z M 277.503906 112.503906 L 284.996094 112.503906 L 284.996094 127.503906 L 277.503906 127.503906 L 277.503906 112.503906 " fill-opacity="1" fill-rule="nonzero"/><path fill="#7c1520" d="M 15.003906 277.503906 L 15.003906 285 L 22.507812 285 L 22.507812 269.996094 L 15.003906 269.996094 Z M 22.507812 269.996094 L 30.003906 269.996094 L 30.003906 262.503906 L 22.507812 262.503906 Z M 30.003906 262.503906 L 37.5 262.503906 L 37.5 255.003906 L 30.003906 255.003906 Z M 30.003906 329.996094 L 7.507812 329.996094 L 7.507812 337.503906 L 45.007812 337.503906 L 45.007812 329.996094 Z M 37.5 247.5 L 37.5 255.003906 L 45.007812 255.003906 L 45.007812 240.003906 L 37.5 240.003906 Z M 45.007812 240.003906 L 52.503906 240.003906 L 52.503906 232.496094 L 45.007812 232.496094 Z M 52.503906 262.503906 L 52.503906 255.003906 L 45.007812 255.003906 L 45.007812 262.503906 Z M 52.503906 232.496094 L 60.007812 232.496094 L 60.007812 225.003906 L 52.503906 225.003906 Z M 60.007812 269.996094 L 60.007812 262.503906 L 52.503906 262.503906 L 52.503906 269.996094 Z M 60.007812 225.003906 L 67.503906 225.003906 L 67.503906 217.503906 L 60.007812 217.503906 Z M 67.503906 240.003906 L 67.503906 232.496094 L 60.007812 232.496094 L 60.007812 240.003906 Z M 67.503906 277.503906 L 82.503906 277.503906 L 82.503906 269.996094 L 75 269.996094 L 75 262.503906 L 67.503906 262.503906 L 67.503906 269.996094 L 60.007812 269.996094 L 60.007812 277.503906 Z M 60.007812 292.496094 L 45.007812 292.496094 L 45.007812 285 L 30.003906 285 L 30.003906 292.496094 L 37.5 292.496094 L 37.5 300.003906 L 60.007812 300.003906 L 60.007812 307.496094 L 67.503906 307.496094 L 67.503906 285 L 60.007812 285 Z M 75 202.503906 L 67.503906 202.503906 L 67.503906 217.503906 L 75 217.503906 Z M 75 247.5 L 75 240.003906 L 67.503906 240.003906 L 67.503906 247.5 Z M 75 217.503906 L 75 225.003906 L 82.503906 225.003906 L 82.503906 217.503906 Z M 82.503906 255.003906 L 82.503906 262.503906 L 90.003906 262.503906 L 90.003906 247.5 L 75 247.5 L 75 255.003906 Z M 75 292.496094 L 75 300.003906 L 82.503906 300.003906 L 82.503906 292.496094 Z M 90.003906 202.503906 L 105.003906 202.503906 L 105.003906 194.996094 L 75 194.996094 L 75 202.503906 Z M 82.503906 225.003906 L 82.503906 232.496094 L 90.003906 232.496094 L 90.003906 225.003906 Z M 90.003906 285 L 90.003906 277.503906 L 82.503906 277.503906 L 82.503906 285 Z M 82.503906 307.496094 L 82.503906 315.003906 L 112.5 315.003906 L 112.5 307.496094 L 90.003906 307.496094 L 90.003906 300.003906 L 82.503906 300.003906 Z M 90.003906 232.496094 L 90.003906 240.003906 L 97.496094 240.003906 L 97.496094 232.496094 Z M 97.496094 269.996094 L 97.496094 262.503906 L 90.003906 262.503906 L 90.003906 269.996094 Z M 90.003906 300.003906 L 112.5 300.003906 L 112.5 292.496094 L 97.496094 292.496094 L 97.496094 285 L 90.003906 285 Z M 105.003906 82.496094 L 97.496094 82.496094 L 97.496094 90.003906 L 105.003906 90.003906 Z M 97.496094 247.5 L 105.003906 247.5 L 105.003906 240.003906 L 97.496094 240.003906 Z M 105.003906 277.503906 L 105.003906 269.996094 L 97.496094 269.996094 L 97.496094 277.503906 Z M 97.496094 322.5 L 75 322.5 L 75 344.996094 L 82.503906 344.996094 L 82.503906 329.996094 L 112.5 329.996094 L 112.5 322.5 Z M 112.5 75.003906 L 105.003906 75.003906 L 105.003906 82.496094 L 112.5 82.496094 Z M 105.003906 90.003906 L 105.003906 97.5 L 112.5 97.5 L 112.5 90.003906 Z M 105.003906 119.996094 L 105.003906 127.503906 L 112.5 127.503906 L 112.5 119.996094 Z M 112.5 210 L 112.5 202.503906 L 105.003906 202.503906 L 105.003906 210 Z M 105.003906 240.003906 L 112.5 240.003906 L 112.5 232.496094 L 105.003906 232.496094 Z M 112.5 285 L 112.5 277.503906 L 105.003906 277.503906 L 105.003906 285 Z M 120.003906 67.503906 L 112.5 67.503906 L 112.5 75.003906 L 120.003906 75.003906 Z M 112.5 97.5 L 112.5 105.003906 L 120.003906 105.003906 L 120.003906 97.5 Z M 112.5 127.503906 L 112.5 135 L 120.003906 135 L 120.003906 127.503906 Z M 120.003906 217.503906 L 120.003906 210 L 112.5 210 L 112.5 217.503906 Z M 120.003906 225.003906 L 112.5 225.003906 L 112.5 232.496094 L 120.003906 232.496094 Z M 120.003906 135 L 120.003906 142.503906 L 127.503906 142.503906 L 127.503906 135 Z M 127.503906 225.003906 L 127.503906 217.503906 L 120.003906 217.503906 L 120.003906 225.003906 Z M 120.003906 300.003906 L 120.003906 307.496094 L 127.503906 307.496094 L 127.503906 292.496094 L 120.003906 292.496094 Z M 134.996094 67.503906 L 134.996094 75.003906 L 150 75.003906 L 150 90.003906 L 142.503906 90.003906 L 142.503906 97.5 L 134.996094 97.5 L 134.996094 105.003906 L 120.003906 105.003906 L 120.003906 119.996094 L 127.503906 119.996094 L 127.503906 135 L 134.996094 135 L 134.996094 142.503906 L 142.503906 142.503906 L 142.503906 119.996094 L 150 119.996094 L 150 112.503906 L 165.003906 112.503906 L 165.003906 45.003906 L 157.503906 45.003906 L 157.503906 52.503906 L 142.503906 52.503906 L 142.503906 45.003906 L 120.003906 45.003906 L 120.003906 67.503906 Z M 127.503906 150.003906 L 134.996094 150.003906 L 134.996094 142.503906 L 127.503906 142.503906 Z M 142.503906 157.496094 L 142.503906 150.003906 L 134.996094 150.003906 L 134.996094 157.496094 Z M 134.996094 300.003906 L 134.996094 307.496094 L 150 307.496094 L 150 300.003906 L 142.503906 300.003906 L 142.503906 292.496094 L 134.996094 292.496094 Z M 157.503906 165.003906 L 150 165.003906 L 150 180.003906 L 157.503906 180.003906 Z M 165.003906 187.503906 L 172.496094 187.503906 L 172.496094 194.996094 L 195.003906 194.996094 L 195.003906 187.503906 L 209.996094 187.503906 L 209.996094 180.003906 L 202.503906 180.003906 L 202.503906 172.5 L 195.003906 172.5 L 195.003906 180.003906 L 187.5 180.003906 L 187.5 172.5 L 180.003906 172.5 L 180.003906 180.003906 L 172.496094 180.003906 L 172.496094 172.5 L 165.003906 172.5 L 165.003906 180.003906 L 157.503906 180.003906 L 157.503906 187.503906 Z M 172.496094 119.996094 L 180.003906 119.996094 L 180.003906 142.503906 L 187.5 142.503906 L 187.5 119.996094 L 202.503906 119.996094 L 202.503906 112.503906 L 195.003906 112.503906 L 195.003906 90.003906 L 187.5 90.003906 L 187.5 75.003906 L 180.003906 75.003906 L 180.003906 90.003906 L 172.496094 90.003906 L 172.496094 112.503906 L 165.003906 112.503906 L 165.003906 119.996094 Z M 217.503906 112.503906 L 217.503906 119.996094 L 225 119.996094 L 225 142.503906 L 232.503906 142.503906 L 232.503906 135 L 240.003906 135 L 240.003906 119.996094 L 247.496094 119.996094 L 247.496094 105.003906 L 232.503906 105.003906 L 232.503906 97.5 L 225 97.5 L 225 90.003906 L 217.503906 90.003906 L 217.503906 75.003906 L 232.503906 75.003906 L 232.503906 67.503906 L 247.496094 67.503906 L 247.496094 45.003906 L 225 45.003906 L 225 52.503906 L 209.996094 52.503906 L 209.996094 45.003906 L 202.503906 45.003906 L 202.503906 112.503906 Z M 217.503906 172.5 L 217.503906 165.003906 L 209.996094 165.003906 L 209.996094 180.003906 L 217.503906 180.003906 Z M 217.503906 300.003906 L 217.503906 307.496094 L 232.503906 307.496094 L 232.503906 292.496094 L 225 292.496094 L 225 300.003906 Z M 225 157.496094 L 232.503906 157.496094 L 232.503906 150.003906 L 225 150.003906 Z M 232.503906 255.003906 L 232.503906 225.003906 L 217.503906 225.003906 L 217.503906 240.003906 L 225 240.003906 L 225 247.5 L 217.503906 247.5 L 217.503906 240.003906 L 209.996094 240.003906 L 209.996094 225.003906 L 202.503906 225.003906 L 202.503906 240.003906 L 187.5 240.003906 L 187.5 232.496094 L 180.003906 232.496094 L 180.003906 240.003906 L 165.003906 240.003906 L 165.003906 225.003906 L 157.503906 225.003906 L 157.503906 240.003906 L 150 240.003906 L 150 247.5 L 142.503906 247.5 L 142.503906 240.003906 L 150 240.003906 L 150 225.003906 L 134.996094 225.003906 L 134.996094 255.003906 L 142.503906 255.003906 L 142.503906 262.503906 L 150 262.503906 L 150 269.996094 L 172.496094 269.996094 L 172.496094 262.503906 L 180.003906 262.503906 L 180.003906 285 L 150 285 L 150 277.503906 L 142.503906 277.503906 L 142.503906 262.503906 L 134.996094 262.503906 L 134.996094 285 L 142.503906 285 L 142.503906 292.496094 L 180.003906 292.496094 L 180.003906 300.003906 L 187.5 300.003906 L 187.5 292.496094 L 225 292.496094 L 225 285 L 232.503906 285 L 232.503906 262.503906 L 225 262.503906 L 225 277.503906 L 217.503906 277.503906 L 217.503906 285 L 187.5 285 L 187.5 262.503906 L 195.003906 262.503906 L 195.003906 269.996094 L 217.503906 269.996094 L 217.503906 262.503906 L 225 262.503906 L 225 255.003906 Z M 232.503906 150.003906 L 240.003906 150.003906 L 240.003906 142.503906 L 232.503906 142.503906 Z M 247.496094 142.503906 L 247.496094 135 L 240.003906 135 L 240.003906 142.503906 Z M 240.003906 217.503906 L 240.003906 225.003906 L 247.496094 225.003906 L 247.496094 217.503906 Z M 240.003906 300.003906 L 240.003906 329.996094 L 225 329.996094 L 225 337.503906 L 187.5 337.503906 L 187.5 307.496094 L 180.003906 307.496094 L 180.003906 337.503906 L 142.503906 337.503906 L 142.503906 329.996094 L 127.503906 329.996094 L 127.503906 315.003906 L 120.003906 315.003906 L 120.003906 360 L 247.496094 360 L 247.496094 292.496094 L 240.003906 292.496094 Z M 255.003906 75.003906 L 255.003906 67.503906 L 247.496094 67.503906 L 247.496094 75.003906 Z M 247.496094 105.003906 L 255.003906 105.003906 L 255.003906 97.5 L 247.496094 97.5 Z M 255.003906 127.503906 L 247.496094 127.503906 L 247.496094 135 L 255.003906 135 Z M 255.003906 210 L 247.496094 210 L 247.496094 217.503906 L 255.003906 217.503906 Z M 247.496094 225.003906 L 247.496094 232.496094 L 255.003906 232.496094 L 255.003906 225.003906 Z M 262.5 82.496094 L 262.5 75.003906 L 255.003906 75.003906 L 255.003906 82.496094 Z M 255.003906 97.5 L 262.5 97.5 L 262.5 90.003906 L 255.003906 90.003906 Z M 262.5 119.996094 L 255.003906 119.996094 L 255.003906 127.503906 L 262.5 127.503906 Z M 262.5 202.503906 L 255.003906 202.503906 L 255.003906 210 L 262.5 210 Z M 255.003906 232.496094 L 255.003906 240.003906 L 262.5 240.003906 L 262.5 232.496094 Z M 255.003906 285 L 262.5 285 L 262.5 277.503906 L 255.003906 277.503906 Z M 270.003906 90.003906 L 270.003906 82.496094 L 262.5 82.496094 L 262.5 90.003906 Z M 262.5 247.5 L 270.003906 247.5 L 270.003906 240.003906 L 262.5 240.003906 Z M 262.5 277.503906 L 270.003906 277.503906 L 270.003906 269.996094 L 262.5 269.996094 Z M 277.503906 202.503906 L 292.503906 202.503906 L 292.503906 194.996094 L 262.5 194.996094 L 262.5 202.503906 Z M 270.003906 240.003906 L 277.503906 240.003906 L 277.503906 232.496094 L 270.003906 232.496094 Z M 270.003906 269.996094 L 277.503906 269.996094 L 277.503906 262.503906 L 270.003906 262.503906 Z M 277.503906 285 L 270.003906 285 L 270.003906 292.496094 L 255.003906 292.496094 L 255.003906 300.003906 L 277.503906 300.003906 Z M 270.003906 307.496094 L 255.003906 307.496094 L 255.003906 315.003906 L 284.996094 315.003906 L 284.996094 300.003906 L 277.503906 300.003906 L 277.503906 307.496094 Z M 277.503906 232.496094 L 284.996094 232.496094 L 284.996094 225.003906 L 277.503906 225.003906 Z M 277.503906 247.5 L 277.503906 262.503906 L 284.996094 262.503906 L 284.996094 255.003906 L 292.503906 255.003906 L 292.503906 247.5 Z M 284.996094 277.503906 L 277.503906 277.503906 L 277.503906 285 L 284.996094 285 Z M 277.503906 322.5 L 255.003906 322.5 L 255.003906 329.996094 L 284.996094 329.996094 L 284.996094 344.996094 L 292.503906 344.996094 L 292.503906 322.5 Z M 284.996094 225.003906 L 292.503906 225.003906 L 292.503906 217.503906 L 284.996094 217.503906 Z M 292.503906 292.496094 L 284.996094 292.496094 L 284.996094 300.003906 L 292.503906 300.003906 Z M 300 202.503906 L 292.503906 202.503906 L 292.503906 217.503906 L 300 217.503906 Z M 292.503906 247.5 L 300 247.5 L 300 240.003906 L 292.503906 240.003906 Z M 300 277.503906 L 307.496094 277.503906 L 307.496094 269.996094 L 300 269.996094 L 300 262.503906 L 292.503906 262.503906 L 292.503906 269.996094 L 284.996094 269.996094 L 284.996094 277.503906 Z M 300 217.503906 L 300 225.003906 L 307.496094 225.003906 L 307.496094 217.503906 Z M 300 240.003906 L 307.496094 240.003906 L 307.496094 232.496094 L 300 232.496094 Z M 307.496094 225.003906 L 307.496094 232.496094 L 315.003906 232.496094 L 315.003906 225.003906 Z M 315.003906 262.503906 L 307.496094 262.503906 L 307.496094 269.996094 L 315.003906 269.996094 Z M 315.003906 232.496094 L 315.003906 240.003906 L 322.496094 240.003906 L 322.496094 232.496094 Z M 322.496094 255.003906 L 315.003906 255.003906 L 315.003906 262.503906 L 322.496094 262.503906 Z M 330.003906 247.5 L 330.003906 240.003906 L 322.496094 240.003906 L 322.496094 255.003906 L 330.003906 255.003906 Z M 330.003906 300.003906 L 330.003906 292.496094 L 337.5 292.496094 L 337.5 285 L 322.496094 285 L 322.496094 292.496094 L 307.496094 292.496094 L 307.496094 285 L 300 285 L 300 307.496094 L 307.496094 307.496094 L 307.496094 300.003906 Z M 337.5 262.503906 L 337.5 255.003906 L 330.003906 255.003906 L 330.003906 262.503906 Z M 344.996094 269.996094 L 344.996094 262.503906 L 337.5 262.503906 L 337.5 269.996094 Z M 344.996094 285 L 352.503906 285 L 352.503906 269.996094 L 344.996094 269.996094 Z M 344.996094 329.996094 L 322.496094 329.996094 L 322.496094 337.503906 L 359.996094 337.503906 L 359.996094 329.996094 Z M 375 315.003906 L 375 329.996094 L 359.996094 329.996094 L 359.996094 322.5 L 367.503906 322.5 L 367.503906 315.003906 L 375 315.003906 " fill-opacity="1" fill-rule="nonzero"/><path fill="#bd202c" d="M 22.507812 119.996094 L 30.003906 119.996094 L 30.003906 112.503906 L 15.003906 112.503906 L 15.003906 127.503906 L 22.507812 127.503906 Z M 22.507812 127.503906 L 22.507812 135 L 30.003906 135 L 30.003906 127.503906 Z M 37.5 127.503906 L 37.5 119.996094 L 30.003906 119.996094 L 30.003906 127.503906 Z M 30.003906 135 L 30.003906 142.503906 L 37.5 142.503906 L 37.5 135 Z M 37.5 300.003906 L 30.003906 300.003906 L 30.003906 292.496094 L 15.003906 292.496094 L 15.003906 285 L 7.507812 285 L 7.507812 329.996094 L 45.007812 329.996094 L 45.007812 307.496094 L 37.5 307.496094 Z M 45.007812 135 L 45.007812 127.503906 L 37.5 127.503906 L 37.5 135 Z M 37.5 142.503906 L 37.5 150.003906 L 45.007812 150.003906 L 45.007812 142.503906 Z M 52.503906 142.503906 L 52.503906 135 L 45.007812 135 L 45.007812 142.503906 Z M 45.007812 157.496094 L 52.503906 157.496094 L 52.503906 150.003906 L 45.007812 150.003906 Z M 45.007812 172.5 L 37.5 172.5 L 37.5 180.003906 L 52.503906 180.003906 L 52.503906 165.003906 L 45.007812 165.003906 Z M 52.503906 269.996094 L 45.007812 269.996094 L 45.007812 262.503906 L 30.003906 262.503906 L 30.003906 269.996094 L 22.507812 269.996094 L 22.507812 285 L 45.007812 285 L 45.007812 292.496094 L 60.007812 292.496094 L 60.007812 277.503906 L 52.503906 277.503906 Z M 60.007812 150.003906 L 60.007812 142.503906 L 52.503906 142.503906 L 52.503906 150.003906 Z M 67.503906 247.5 L 60.007812 247.5 L 60.007812 240.003906 L 45.007812 240.003906 L 45.007812 255.003906 L 52.503906 255.003906 L 52.503906 262.503906 L 60.007812 262.503906 L 60.007812 269.996094 L 67.503906 269.996094 L 67.503906 262.503906 L 75 262.503906 L 75 255.003906 L 67.503906 255.003906 Z M 75 165.003906 L 67.503906 165.003906 L 67.503906 172.5 L 75 172.5 Z M 82.503906 150.003906 L 82.503906 135 L 75 135 L 75 142.503906 L 67.503906 142.503906 L 67.503906 157.496094 L 75 157.496094 L 75 150.003906 Z M 82.503906 157.496094 L 75 157.496094 L 75 165.003906 L 82.503906 165.003906 Z M 75 172.5 L 75 180.003906 L 82.503906 180.003906 L 82.503906 172.5 Z M 82.503906 232.496094 L 75 232.496094 L 75 225.003906 L 60.007812 225.003906 L 60.007812 232.496094 L 67.503906 232.496094 L 67.503906 240.003906 L 75 240.003906 L 75 247.5 L 90.003906 247.5 L 90.003906 240.003906 L 82.503906 240.003906 Z M 90.003906 172.5 L 90.003906 165.003906 L 82.503906 165.003906 L 82.503906 172.5 Z M 82.503906 187.503906 L 90.003906 187.503906 L 90.003906 180.003906 L 82.503906 180.003906 Z M 97.496094 180.003906 L 97.496094 172.5 L 90.003906 172.5 L 90.003906 180.003906 Z M 105.003906 187.503906 L 105.003906 180.003906 L 97.496094 180.003906 L 97.496094 187.503906 Z M 105.003906 150.003906 L 112.5 150.003906 L 112.5 157.496094 L 120.003906 157.496094 L 120.003906 165.003906 L 134.996094 165.003906 L 134.996094 150.003906 L 127.503906 150.003906 L 127.503906 142.503906 L 120.003906 142.503906 L 120.003906 135 L 112.5 135 L 112.5 127.503906 L 105.003906 127.503906 L 105.003906 119.996094 L 97.496094 119.996094 L 97.496094 142.503906 L 105.003906 142.503906 Z M 112.5 225.003906 L 120.003906 225.003906 L 120.003906 217.503906 L 112.5 217.503906 L 112.5 210 L 105.003906 210 L 105.003906 202.503906 L 75 202.503906 L 75 217.503906 L 82.503906 217.503906 L 82.503906 225.003906 L 90.003906 225.003906 L 90.003906 232.496094 L 97.496094 232.496094 L 97.496094 240.003906 L 105.003906 240.003906 L 105.003906 232.496094 L 112.5 232.496094 Z M 112.5 97.5 L 120.003906 97.5 L 120.003906 105.003906 L 134.996094 105.003906 L 134.996094 97.5 L 142.503906 97.5 L 142.503906 90.003906 L 150 90.003906 L 150 75.003906 L 134.996094 75.003906 L 134.996094 67.503906 L 120.003906 67.503906 L 120.003906 75.003906 L 112.5 75.003906 L 112.5 82.496094 L 105.003906 82.496094 L 105.003906 90.003906 L 112.5 90.003906 Z M 120.003906 269.996094 L 134.996094 269.996094 L 134.996094 255.003906 L 127.503906 255.003906 L 127.503906 247.5 L 112.5 247.5 L 112.5 255.003906 L 120.003906 255.003906 Z M 127.503906 329.996094 L 134.996094 329.996094 L 134.996094 322.5 L 127.503906 322.5 Z M 142.503906 269.996094 L 142.503906 277.503906 L 150 277.503906 L 150 269.996094 Z M 150 285 L 172.496094 285 L 172.496094 277.503906 L 150 277.503906 Z M 172.496094 135 L 172.496094 127.503906 L 157.503906 127.503906 L 157.503906 135 Z M 165.003906 232.496094 L 165.003906 240.003906 L 180.003906 240.003906 L 180.003906 232.496094 Z M 165.003906 300.003906 L 172.496094 300.003906 L 172.496094 292.496094 L 165.003906 292.496094 Z M 172.496094 307.496094 L 134.996094 307.496094 L 134.996094 300.003906 L 127.503906 300.003906 L 127.503906 315.003906 L 134.996094 315.003906 L 134.996094 322.5 L 142.503906 322.5 L 142.503906 315.003906 L 150 315.003906 L 150 322.5 L 142.503906 322.5 L 142.503906 329.996094 L 180.003906 329.996094 L 180.003906 315.003906 L 172.496094 315.003906 Z M 172.496094 60 L 165.003906 60 L 165.003906 112.503906 L 172.496094 112.503906 L 172.496094 90.003906 L 180.003906 90.003906 L 180.003906 52.503906 L 172.496094 52.503906 Z M 195.003906 97.5 L 195.003906 112.503906 L 202.503906 112.503906 L 202.503906 60 L 195.003906 60 L 195.003906 52.503906 L 187.5 52.503906 L 187.5 90.003906 L 195.003906 90.003906 Z M 195.003906 127.503906 L 195.003906 135 L 209.996094 135 L 209.996094 127.503906 Z M 202.503906 240.003906 L 202.503906 232.496094 L 187.5 232.496094 L 187.5 240.003906 Z M 202.503906 277.503906 L 195.003906 277.503906 L 195.003906 285 L 217.503906 285 L 217.503906 277.503906 Z M 225 269.996094 L 217.503906 269.996094 L 217.503906 277.503906 L 225 277.503906 Z M 225 97.5 L 232.503906 97.5 L 232.503906 105.003906 L 247.496094 105.003906 L 247.496094 97.5 L 255.003906 97.5 L 255.003906 90.003906 L 262.5 90.003906 L 262.5 82.496094 L 255.003906 82.496094 L 255.003906 75.003906 L 247.496094 75.003906 L 247.496094 67.503906 L 232.503906 67.503906 L 232.503906 75.003906 L 217.503906 75.003906 L 217.503906 90.003906 L 225 90.003906 Z M 232.503906 307.496094 L 195.003906 307.496094 L 195.003906 315.003906 L 187.5 315.003906 L 187.5 329.996094 L 225 329.996094 L 225 322.5 L 217.503906 322.5 L 217.503906 315.003906 L 225 315.003906 L 225 322.5 L 232.503906 322.5 L 232.503906 315.003906 L 240.003906 315.003906 L 240.003906 300.003906 L 232.503906 300.003906 Z M 240.003906 329.996094 L 240.003906 322.5 L 232.503906 322.5 L 232.503906 329.996094 Z M 240.003906 247.5 L 240.003906 255.003906 L 232.503906 255.003906 L 232.503906 269.996094 L 247.496094 269.996094 L 247.496094 255.003906 L 255.003906 255.003906 L 255.003906 247.5 Z M 262.5 127.503906 L 255.003906 127.503906 L 255.003906 135 L 247.496094 135 L 247.496094 142.503906 L 240.003906 142.503906 L 240.003906 150.003906 L 232.503906 150.003906 L 232.503906 165.003906 L 247.496094 165.003906 L 247.496094 157.496094 L 255.003906 157.496094 L 255.003906 150.003906 L 262.5 150.003906 L 262.5 142.503906 L 270.003906 142.503906 L 270.003906 119.996094 L 262.5 119.996094 Z M 262.5 180.003906 L 262.5 187.503906 L 270.003906 187.503906 L 270.003906 180.003906 Z M 270.003906 180.003906 L 277.503906 180.003906 L 277.503906 172.5 L 270.003906 172.5 Z M 277.503906 225.003906 L 284.996094 225.003906 L 284.996094 217.503906 L 292.503906 217.503906 L 292.503906 202.503906 L 262.5 202.503906 L 262.5 210 L 255.003906 210 L 255.003906 217.503906 L 247.496094 217.503906 L 247.496094 225.003906 L 255.003906 225.003906 L 255.003906 232.496094 L 262.5 232.496094 L 262.5 240.003906 L 270.003906 240.003906 L 270.003906 232.496094 L 277.503906 232.496094 Z M 284.996094 165.003906 L 277.503906 165.003906 L 277.503906 172.5 L 284.996094 172.5 Z M 277.503906 187.503906 L 270.003906 187.503906 L 270.003906 194.996094 L 300 194.996094 L 300 187.503906 L 284.996094 187.503906 L 284.996094 180.003906 L 277.503906 180.003906 Z M 292.503906 157.496094 L 284.996094 157.496094 L 284.996094 165.003906 L 292.503906 165.003906 Z M 284.996094 180.003906 L 292.503906 180.003906 L 292.503906 172.5 L 284.996094 172.5 Z M 292.503906 240.003906 L 300 240.003906 L 300 232.496094 L 307.496094 232.496094 L 307.496094 225.003906 L 292.503906 225.003906 L 292.503906 232.496094 L 284.996094 232.496094 L 284.996094 240.003906 L 277.503906 240.003906 L 277.503906 247.5 L 292.503906 247.5 Z M 300 150.003906 L 300 142.503906 L 292.503906 142.503906 L 292.503906 135 L 284.996094 135 L 284.996094 150.003906 L 292.503906 150.003906 L 292.503906 157.496094 L 300 157.496094 Z M 300 172.5 L 300 165.003906 L 292.503906 165.003906 L 292.503906 172.5 Z M 307.496094 269.996094 L 307.496094 262.503906 L 315.003906 262.503906 L 315.003906 255.003906 L 322.496094 255.003906 L 322.496094 240.003906 L 307.496094 240.003906 L 307.496094 247.5 L 300 247.5 L 300 255.003906 L 292.503906 255.003906 L 292.503906 262.503906 L 300 262.503906 L 300 269.996094 Z M 315.003906 142.503906 L 307.496094 142.503906 L 307.496094 150.003906 L 315.003906 150.003906 Z M 322.496094 135 L 315.003906 135 L 315.003906 142.503906 L 322.496094 142.503906 Z M 315.003906 157.496094 L 322.496094 157.496094 L 322.496094 150.003906 L 315.003906 150.003906 Z M 315.003906 165.003906 L 315.003906 180.003906 L 330.003906 180.003906 L 330.003906 172.5 L 322.496094 172.5 L 322.496094 165.003906 Z M 322.496094 285 L 344.996094 285 L 344.996094 269.996094 L 337.5 269.996094 L 337.5 262.503906 L 322.496094 262.503906 L 322.496094 269.996094 L 315.003906 269.996094 L 315.003906 277.503906 L 307.496094 277.503906 L 307.496094 292.496094 L 322.496094 292.496094 Z M 330.003906 127.503906 L 322.496094 127.503906 L 322.496094 135 L 330.003906 135 Z M 322.496094 150.003906 L 330.003906 150.003906 L 330.003906 142.503906 L 322.496094 142.503906 Z M 337.5 119.996094 L 330.003906 119.996094 L 330.003906 127.503906 L 337.5 127.503906 Z M 330.003906 142.503906 L 337.5 142.503906 L 337.5 135 L 330.003906 135 Z M 337.5 135 L 344.996094 135 L 344.996094 127.503906 L 337.5 127.503906 Z M 344.996094 127.503906 L 352.503906 127.503906 L 352.503906 112.503906 L 337.5 112.503906 L 337.5 119.996094 L 344.996094 119.996094 Z M 375 300.003906 L 375 315.003906 L 367.503906 315.003906 L 367.503906 322.5 L 359.996094 322.5 L 359.996094 329.996094 L 322.496094 329.996094 L 322.496094 307.496094 L 330.003906 307.496094 L 330.003906 300.003906 L 337.5 300.003906 L 337.5 292.496094 L 352.503906 292.496094 L 352.503906 285 L 359.996094 285 L 359.996094 292.496094 L 367.503906 292.496094 L 367.503906 300.003906 L 375 300.003906 " fill-opacity="1" fill-rule="nonzero"/></svg>