<svg xmlns="http://www.w3.org/2000/svg" xmlns:xlink="http://www.w3.org/1999/xlink" width="500" zoomAndPan="magnify" viewBox="0 0 375 374.999991" height="500" preserveAspectRatio="xMidYMid meet" version="1.0"><defs><clipPath id="ee453b2f52"><path d="M 69.179688 13.960938 L 306.179688 13.960938 L 306.179688 361.210938 L 69.179688 361.210938 Z M 69.179688 13.960938 " clip-rule="nonzero"/></clipPath></defs><g clip-path="url(#ee453b2f52)"><path fill="#100f0d" d="M 306.175781 195.476562 L 306.175781 227.046875 L 298.277344 227.046875 L 298.277344 225.65625 L 296.886719 225.65625 L 296.886719 233.546875 L 288.988281 233.546875 L 288.988281 234.933594 L 290.378906 234.933594 L 290.378906 242.832031 L 266.683594 242.832031 L 266.683594 241.445312 L 265.292969 241.445312 L 265.292969 242.832031 L 266.683594 242.832031 L 266.683594 274.394531 L 265.292969 274.394531 L 265.292969 275.785156 L 266.683594 275.785156 L 266.683594 274.394531 L 274.578125 274.394531 L 274.578125 290.179688 L 273.1875 290.179688 L 273.1875 291.570312 L 274.578125 291.570312 L 274.578125 290.179688 L 282.476562 290.179688 L 282.476562 313.855469 L 266.683594 313.855469 L 266.683594 312.46875 L 265.292969 312.46875 L 265.292969 313.855469 L 266.683594 313.855469 L 266.683594 321.753906 L 258.777344 321.753906 L 258.777344 329.640625 L 242.976562 329.640625 L 242.976562 328.25 L 233.6875 328.25 L 233.6875 329.640625 L 235.078125 329.640625 L 235.078125 345.425781 L 219.273438 345.425781 L 219.273438 344.035156 L 217.882812 344.035156 L 217.882812 345.425781 L 219.273438 345.425781 L 219.273438 361.210938 L 156.074219 361.210938 L 156.074219 345.425781 L 140.277344 345.425781 L 140.277344 337.527344 L 124.472656 337.527344 L 124.472656 329.640625 L 125.863281 329.640625 L 125.863281 328.25 L 124.472656 328.25 L 124.472656 329.640625 L 116.578125 329.640625 L 116.578125 321.753906 L 117.964844 321.753906 L 117.964844 320.363281 L 116.578125 320.363281 L 116.578125 321.753906 L 108.679688 321.753906 L 108.679688 313.855469 L 110.070312 313.855469 L 110.070312 312.46875 L 108.679688 312.46875 L 108.679688 313.855469 L 100.777344 313.855469 L 100.777344 282.292969 L 108.679688 282.292969 L 108.679688 283.679688 L 110.070312 283.679688 L 110.070312 282.292969 L 108.679688 282.292969 L 108.679688 274.394531 L 116.578125 274.394531 L 116.578125 258.617188 L 117.964844 258.617188 L 117.964844 257.230469 L 116.578125 257.230469 L 116.578125 258.617188 L 108.679688 258.617188 L 108.679688 242.832031 L 110.070312 242.832031 L 110.070312 241.445312 L 108.679688 241.445312 L 108.679688 242.832031 L 84.972656 242.832031 L 84.972656 234.933594 L 86.363281 234.933594 L 86.363281 233.546875 L 84.972656 233.546875 L 84.972656 234.933594 L 77.078125 234.933594 L 77.078125 227.046875 L 78.46875 227.046875 L 78.46875 225.65625 L 77.078125 225.65625 L 77.078125 227.046875 L 69.179688 227.046875 L 69.179688 195.476562 L 77.078125 195.476562 L 77.078125 196.867188 L 86.363281 196.867188 L 86.363281 195.476562 L 84.972656 195.476562 L 84.972656 171.800781 L 86.363281 171.800781 L 86.363281 170.410156 L 84.972656 170.410156 L 84.972656 171.800781 L 77.078125 171.800781 L 77.078125 92.882812 L 84.972656 92.882812 L 84.972656 94.273438 L 86.363281 94.273438 L 86.363281 92.882812 L 84.972656 92.882812 L 84.972656 77.097656 L 92.878906 77.097656 L 92.878906 78.484375 L 94.269531 78.484375 L 94.269531 77.097656 L 92.878906 77.097656 L 92.878906 61.320312 L 100.777344 61.320312 L 100.777344 53.421875 L 108.679688 53.421875 L 108.679688 54.808594 L 110.070312 54.808594 L 110.070312 53.421875 L 108.679688 53.421875 L 108.679688 45.535156 L 116.578125 45.535156 L 116.578125 46.925781 L 117.964844 46.925781 L 117.964844 45.535156 L 116.578125 45.535156 L 116.578125 37.644531 L 124.472656 37.644531 L 124.472656 39.035156 L 125.863281 39.035156 L 125.863281 37.644531 L 124.472656 37.644531 L 124.472656 29.75 L 140.277344 29.75 L 140.277344 21.859375 L 156.074219 21.859375 L 156.074219 13.960938 L 227.179688 13.960938 L 227.179688 21.859375 L 250.878906 21.859375 L 250.878906 29.75 L 258.777344 29.75 L 258.777344 37.644531 L 266.683594 37.644531 L 266.683594 45.535156 L 274.578125 45.535156 L 274.578125 53.421875 L 282.476562 53.421875 L 282.476562 61.320312 L 290.378906 61.320312 L 290.378906 69.207031 L 298.277344 69.207031 L 298.277344 156.015625 L 296.886719 156.015625 L 296.886719 178.308594 L 290.378906 178.308594 L 290.378906 187.585938 L 288.988281 187.585938 L 288.988281 188.976562 L 290.378906 188.976562 L 290.378906 187.585938 L 298.277344 187.585938 L 298.277344 195.476562 L 296.886719 195.476562 L 296.886719 196.867188 L 298.277344 196.867188 L 298.277344 195.476562 L 306.175781 195.476562 " fill-opacity="1" fill-rule="nonzero"/></g><path fill="#ffffff" d="M 132.378906 187.585938 L 132.378906 171.800781 L 124.472656 171.800781 L 124.472656 195.476562 L 132.378906 195.476562 Z M 148.179688 171.800781 L 156.074219 171.800781 L 156.074219 163.910156 L 132.378906 163.910156 L 132.378906 171.800781 Z M 140.277344 195.476562 L 132.378906 195.476562 L 132.378906 203.375 L 156.074219 203.375 L 156.074219 195.476562 Z M 148.179688 242.832031 L 140.277344 242.832031 L 140.277344 258.617188 L 148.179688 258.617188 Z M 140.277344 290.179688 L 132.378906 290.179688 L 132.378906 305.96875 L 140.277344 305.96875 L 140.277344 298.070312 L 148.179688 298.070312 L 148.179688 282.292969 L 140.277344 282.292969 Z M 156.074219 266.507812 L 156.074219 258.617188 L 148.179688 258.617188 L 148.179688 266.507812 Z M 156.074219 187.585938 L 156.074219 195.476562 L 163.976562 195.476562 L 163.976562 171.800781 L 156.074219 171.800781 Z M 163.976562 258.617188 L 163.976562 266.507812 L 171.878906 266.507812 L 171.878906 250.722656 L 163.976562 250.722656 Z M 179.777344 282.292969 L 179.777344 274.394531 L 171.878906 274.394531 L 171.878906 282.292969 L 163.976562 282.292969 L 163.976562 274.394531 L 156.074219 274.394531 L 156.074219 298.070312 L 163.976562 298.070312 L 163.976562 290.179688 L 179.777344 290.179688 Z M 179.777344 305.96875 L 187.679688 305.96875 L 187.679688 298.070312 L 179.777344 298.070312 Z M 195.578125 258.617188 L 187.679688 258.617188 L 187.679688 266.507812 L 195.578125 266.507812 Z M 203.476562 266.507812 L 203.476562 274.394531 L 211.378906 274.394531 L 211.378906 258.617188 L 203.476562 258.617188 Z M 203.476562 290.179688 L 195.578125 290.179688 L 195.578125 282.292969 L 187.679688 282.292969 L 187.679688 298.070312 L 211.378906 298.070312 L 211.378906 282.292969 L 203.476562 282.292969 Z M 227.179688 163.910156 L 227.179688 156.015625 L 219.273438 156.015625 L 219.273438 179.699219 L 227.179688 179.699219 Z M 219.273438 282.292969 L 219.273438 298.070312 L 227.179688 298.070312 L 227.179688 274.394531 L 219.273438 274.394531 Z M 235.078125 250.722656 L 219.273438 250.722656 L 219.273438 266.507812 L 227.179688 266.507812 L 227.179688 258.617188 L 235.078125 258.617188 Z M 242.976562 156.015625 L 250.878906 156.015625 L 250.878906 148.128906 L 227.179688 148.128906 L 227.179688 156.015625 Z M 235.078125 179.699219 L 227.179688 179.699219 L 227.179688 187.585938 L 250.878906 187.585938 L 250.878906 179.699219 Z M 235.078125 274.394531 L 242.976562 274.394531 L 242.976562 266.507812 L 235.078125 266.507812 Z M 242.976562 290.179688 L 235.078125 290.179688 L 235.078125 305.96875 L 250.878906 305.96875 L 250.878906 298.070312 L 242.976562 298.070312 Z M 242.976562 266.507812 L 250.878906 266.507812 L 250.878906 258.617188 L 242.976562 258.617188 Z M 258.777344 156.015625 L 258.777344 179.699219 L 250.878906 179.699219 L 250.878906 156.015625 L 258.777344 156.015625 " fill-opacity="1" fill-rule="nonzero"/><path fill="#638856" d="M 187.679688 171.800781 L 187.679688 179.699219 L 195.578125 179.699219 L 195.578125 171.800781 Z M 171.878906 156.015625 L 171.878906 148.128906 L 163.976562 148.128906 L 163.976562 156.015625 Z M 203.476562 187.585938 L 203.476562 179.699219 L 195.578125 179.699219 L 195.578125 203.375 L 203.476562 203.375 L 203.476562 211.261719 L 211.378906 211.261719 L 211.378906 195.476562 L 203.476562 195.476562 Z M 108.679688 163.910156 L 116.578125 163.910156 L 116.578125 156.015625 L 108.679688 156.015625 Z M 116.578125 156.015625 L 124.472656 156.015625 L 124.472656 148.128906 L 116.578125 148.128906 Z M 163.976562 140.238281 L 124.472656 140.238281 L 124.472656 148.128906 L 163.976562 148.128906 Z M 250.878906 219.160156 L 242.976562 219.160156 L 242.976562 227.046875 L 250.878906 227.046875 Z M 266.683594 234.933594 L 274.578125 234.933594 L 274.578125 227.046875 L 266.683594 227.046875 Z M 227.179688 211.261719 L 235.078125 211.261719 L 235.078125 203.375 L 227.179688 203.375 Z M 140.277344 219.160156 L 140.277344 227.046875 L 148.179688 227.046875 L 148.179688 211.261719 L 140.277344 211.261719 Z M 211.378906 156.015625 L 219.273438 156.015625 L 219.273438 148.128906 L 211.378906 148.128906 Z M 250.878906 140.238281 L 250.878906 132.34375 L 227.179688 132.34375 L 227.179688 140.238281 Z M 219.273438 148.128906 L 227.179688 148.128906 L 227.179688 140.238281 L 219.273438 140.238281 Z M 132.378906 84.992188 L 132.378906 77.097656 L 124.472656 77.097656 L 124.472656 84.992188 Z M 116.578125 84.992188 L 116.578125 92.882812 L 124.472656 92.882812 L 124.472656 84.992188 Z M 92.878906 116.554688 L 92.878906 92.882812 L 84.972656 92.882812 L 84.972656 124.453125 L 92.878906 124.453125 Z M 92.878906 179.699219 L 92.878906 203.375 L 100.777344 203.375 L 100.777344 171.800781 L 92.878906 171.800781 Z M 108.679688 77.097656 L 108.679688 84.992188 L 116.578125 84.992188 L 116.578125 77.097656 Z M 140.277344 92.882812 L 140.277344 100.78125 L 132.378906 100.78125 L 132.378906 92.882812 L 124.472656 92.882812 L 124.472656 108.667969 L 148.179688 108.667969 L 148.179688 84.992188 L 132.378906 84.992188 L 132.378906 92.882812 Z M 116.578125 61.320312 L 108.679688 61.320312 L 108.679688 69.207031 L 116.578125 69.207031 Z M 124.472656 77.097656 L 124.472656 69.207031 L 116.578125 69.207031 L 116.578125 77.097656 Z M 108.679688 69.207031 L 100.777344 69.207031 L 100.777344 77.097656 L 108.679688 77.097656 Z M 258.777344 195.476562 L 266.683594 195.476562 L 266.683594 187.585938 L 258.777344 187.585938 Z M 290.378906 156.015625 L 290.378906 179.699219 L 298.277344 179.699219 L 298.277344 156.015625 Z M 250.878906 258.617188 L 250.878906 266.507812 L 258.777344 266.507812 L 258.777344 250.722656 L 250.878906 250.722656 Z M 290.378906 140.238281 L 290.378906 124.453125 L 282.476562 124.453125 L 282.476562 156.015625 L 290.378906 156.015625 Z M 266.683594 179.699219 L 266.683594 187.585938 L 274.578125 187.585938 L 274.578125 171.800781 L 266.683594 171.800781 Z M 108.679688 187.585938 L 108.679688 195.476562 L 116.578125 195.476562 L 116.578125 203.375 L 124.472656 203.375 L 124.472656 187.585938 Z M 171.878906 227.046875 L 171.878906 234.933594 L 179.777344 234.933594 L 179.777344 227.046875 Z M 195.578125 227.046875 L 195.578125 211.261719 L 187.679688 211.261719 L 187.679688 234.933594 L 179.777344 234.933594 L 179.777344 242.832031 L 203.476562 242.832031 L 203.476562 234.933594 L 195.578125 234.933594 Z M 171.878906 195.476562 L 179.777344 195.476562 L 179.777344 187.585938 L 163.976562 187.585938 L 163.976562 203.375 L 171.878906 203.375 Z M 203.476562 227.046875 L 211.378906 227.046875 L 211.378906 234.933594 L 203.476562 234.933594 L 203.476562 227.046875 " fill-opacity="1" fill-rule="nonzero"/><path fill="#33452f" d="M 92.878906 156.015625 L 92.878906 124.453125 L 84.972656 124.453125 L 84.972656 163.910156 L 92.878906 163.910156 Z M 100.777344 108.667969 L 100.777344 84.992188 L 92.878906 84.992188 L 92.878906 116.554688 L 100.777344 116.554688 Z M 100.777344 219.160156 L 92.878906 219.160156 L 92.878906 211.261719 L 84.972656 211.261719 L 84.972656 219.160156 L 77.078125 219.160156 L 77.078125 227.046875 L 84.972656 227.046875 L 84.972656 234.933594 L 108.679688 234.933594 L 108.679688 227.046875 L 100.777344 227.046875 Z M 124.472656 124.453125 L 108.679688 124.453125 L 108.679688 132.34375 L 124.472656 132.34375 Z M 132.378906 140.238281 L 156.074219 140.238281 L 156.074219 132.34375 L 124.472656 132.34375 L 124.472656 140.238281 Z M 132.378906 124.453125 L 140.277344 124.453125 L 140.277344 108.667969 L 124.472656 108.667969 L 124.472656 116.554688 L 132.378906 116.554688 Z M 140.277344 219.160156 L 140.277344 203.375 L 124.472656 203.375 L 124.472656 211.261719 L 132.378906 211.261719 L 132.378906 219.160156 Z M 148.179688 219.160156 L 156.074219 219.160156 L 156.074219 211.261719 L 148.179688 211.261719 Z M 156.074219 211.261719 L 163.976562 211.261719 L 163.976562 203.375 L 156.074219 203.375 Z M 163.976562 290.179688 L 163.976562 298.070312 L 156.074219 298.070312 L 156.074219 290.179688 L 148.179688 290.179688 L 148.179688 298.070312 L 140.277344 298.070312 L 140.277344 305.96875 L 163.976562 305.96875 L 163.976562 313.855469 L 171.878906 313.855469 L 171.878906 305.96875 L 179.777344 305.96875 L 179.777344 290.179688 Z M 203.476562 250.722656 L 195.578125 250.722656 L 195.578125 258.617188 L 203.476562 258.617188 Z M 203.476562 298.070312 L 187.679688 298.070312 L 187.679688 305.96875 L 219.273438 305.96875 L 219.273438 298.070312 Z M 211.378906 187.585938 L 211.378906 195.476562 L 219.273438 195.476562 L 219.273438 187.585938 Z M 211.378906 258.617188 L 219.273438 258.617188 L 219.273438 250.722656 L 211.378906 250.722656 Z M 219.273438 203.375 L 227.179688 203.375 L 227.179688 195.476562 L 219.273438 195.476562 Z M 242.976562 195.476562 L 242.976562 203.375 L 258.777344 203.375 L 258.777344 195.476562 Z M 250.878906 274.394531 L 250.878906 282.292969 L 258.777344 282.292969 L 258.777344 266.507812 L 250.878906 266.507812 Z M 258.777344 187.585938 L 266.683594 187.585938 L 266.683594 179.699219 L 258.777344 179.699219 Z M 298.277344 211.261719 L 298.277344 234.933594 L 274.578125 234.933594 L 274.578125 227.046875 L 290.378906 227.046875 L 290.378906 211.261719 L 298.277344 211.261719 " fill-opacity="1" fill-rule="nonzero"/><path fill="#c7bb3f" d="M 100.777344 77.097656 L 100.777344 84.992188 L 92.878906 84.992188 L 92.878906 77.097656 Z M 132.378906 282.292969 L 124.472656 282.292969 L 124.472656 266.507812 L 132.378906 266.507812 Z M 140.277344 219.160156 L 140.277344 227.046875 L 132.378906 227.046875 L 132.378906 234.933594 L 124.472656 234.933594 L 124.472656 258.617188 L 116.578125 258.617188 L 116.578125 242.832031 L 108.679688 242.832031 L 108.679688 227.046875 L 100.777344 227.046875 L 100.777344 219.160156 L 92.878906 219.160156 L 92.878906 211.261719 L 84.972656 211.261719 L 84.972656 219.160156 L 77.078125 219.160156 L 77.078125 195.476562 L 92.878906 195.476562 L 92.878906 203.375 L 100.777344 203.375 L 100.777344 171.800781 L 84.972656 171.800781 L 84.972656 163.910156 L 92.878906 163.910156 L 92.878906 116.554688 L 100.777344 116.554688 L 100.777344 84.992188 L 116.578125 84.992188 L 116.578125 100.78125 L 124.472656 100.78125 L 124.472656 116.554688 L 132.378906 116.554688 L 132.378906 124.453125 L 108.679688 124.453125 L 108.679688 140.238281 L 116.578125 140.238281 L 116.578125 132.34375 L 124.472656 132.34375 L 124.472656 148.128906 L 116.578125 148.128906 L 116.578125 156.015625 L 108.679688 156.015625 L 108.679688 195.476562 L 116.578125 195.476562 L 116.578125 203.375 L 124.472656 203.375 L 124.472656 211.261719 L 132.378906 211.261719 L 132.378906 219.160156 Z M 148.179688 187.585938 L 140.277344 187.585938 L 140.277344 179.699219 L 148.179688 179.699219 Z M 211.378906 187.585938 L 211.378906 195.476562 L 203.476562 195.476562 L 203.476562 179.699219 L 211.378906 179.699219 Z M 242.976562 171.800781 L 235.078125 171.800781 L 235.078125 163.910156 L 242.976562 163.910156 Z M 266.683594 290.179688 L 274.578125 290.179688 L 274.578125 305.96875 L 266.683594 305.96875 L 266.683594 313.855469 L 250.878906 313.855469 L 250.878906 321.753906 L 242.976562 321.753906 L 242.976562 329.640625 L 227.179688 329.640625 L 227.179688 337.527344 L 219.273438 337.527344 L 219.273438 345.425781 L 211.378906 345.425781 L 211.378906 353.316406 L 195.578125 353.316406 L 195.578125 345.425781 L 187.679688 345.425781 L 187.679688 353.316406 L 163.976562 353.316406 L 163.976562 337.527344 L 156.074219 337.527344 L 156.074219 329.640625 L 124.472656 329.640625 L 124.472656 321.753906 L 116.578125 321.753906 L 116.578125 313.855469 L 108.679688 313.855469 L 108.679688 282.292969 L 124.472656 282.292969 L 124.472656 305.96875 L 163.976562 305.96875 L 163.976562 313.855469 L 171.878906 313.855469 L 171.878906 305.96875 L 219.273438 305.96875 L 219.273438 298.070312 L 227.179688 298.070312 L 227.179688 305.96875 L 258.777344 305.96875 L 258.777344 290.179688 L 250.878906 290.179688 L 250.878906 282.292969 L 258.777344 282.292969 L 258.777344 274.394531 L 266.683594 274.394531 Z M 242.976562 227.046875 L 242.976562 219.160156 L 250.878906 219.160156 L 250.878906 227.046875 Z M 235.078125 124.453125 L 219.273438 124.453125 L 219.273438 132.34375 L 211.378906 132.34375 L 211.378906 140.238281 L 203.476562 140.238281 L 203.476562 132.34375 L 211.378906 132.34375 L 211.378906 124.453125 L 219.273438 124.453125 L 219.273438 116.554688 L 242.976562 116.554688 L 242.976562 124.453125 Z M 290.378906 195.476562 L 290.378906 187.585938 L 282.476562 187.585938 L 282.476562 124.453125 L 290.378906 124.453125 L 290.378906 84.992188 L 282.476562 84.992188 L 282.476562 69.207031 L 274.578125 69.207031 L 274.578125 61.320312 L 266.683594 61.320312 L 266.683594 53.421875 L 258.777344 53.421875 L 258.777344 45.535156 L 250.878906 45.535156 L 250.878906 37.644531 L 235.078125 37.644531 L 235.078125 45.535156 L 242.976562 45.535156 L 242.976562 53.421875 L 235.078125 53.421875 L 235.078125 69.207031 L 227.179688 69.207031 L 227.179688 77.097656 L 235.078125 77.097656 L 235.078125 84.992188 L 227.179688 84.992188 L 227.179688 92.882812 L 219.273438 92.882812 L 219.273438 84.992188 L 211.378906 84.992188 L 211.378906 77.097656 L 219.273438 77.097656 L 219.273438 69.207031 L 211.378906 69.207031 L 211.378906 61.320312 L 227.179688 61.320312 L 227.179688 53.421875 L 219.273438 53.421875 L 219.273438 45.535156 L 227.179688 45.535156 L 227.179688 29.75 L 211.378906 29.75 L 211.378906 21.859375 L 187.679688 21.859375 L 187.679688 29.75 L 148.179688 29.75 L 148.179688 37.644531 L 124.472656 37.644531 L 124.472656 45.535156 L 116.578125 45.535156 L 116.578125 53.421875 L 108.679688 53.421875 L 108.679688 61.320312 L 124.472656 61.320312 L 124.472656 77.097656 L 140.277344 77.097656 L 140.277344 84.992188 L 148.179688 84.992188 L 148.179688 108.667969 L 140.277344 108.667969 L 140.277344 124.453125 L 163.976562 124.453125 L 163.976562 132.34375 L 156.074219 132.34375 L 156.074219 140.238281 L 163.976562 140.238281 L 163.976562 148.128906 L 171.878906 148.128906 L 171.878906 163.910156 L 179.777344 163.910156 L 179.777344 171.800781 L 171.878906 171.800781 L 171.878906 187.585938 L 187.679688 187.585938 L 187.679688 148.128906 L 195.578125 148.128906 L 195.578125 179.699219 L 203.476562 179.699219 L 203.476562 163.910156 L 211.378906 163.910156 L 211.378906 148.128906 L 219.273438 148.128906 L 219.273438 140.238281 L 227.179688 140.238281 L 227.179688 132.34375 L 250.878906 132.34375 L 250.878906 124.453125 L 258.777344 124.453125 L 258.777344 132.34375 L 250.878906 132.34375 L 250.878906 140.238281 L 258.777344 140.238281 L 258.777344 148.128906 L 266.683594 148.128906 L 266.683594 163.910156 L 274.578125 163.910156 L 274.578125 195.476562 L 258.777344 195.476562 L 258.777344 203.375 L 250.878906 203.375 L 250.878906 211.261719 L 242.976562 211.261719 L 242.976562 203.375 L 235.078125 203.375 L 235.078125 211.261719 L 227.179688 211.261719 L 227.179688 203.375 L 219.273438 203.375 L 219.273438 195.476562 L 211.378906 195.476562 L 211.378906 234.933594 L 203.476562 234.933594 L 203.476562 242.832031 L 179.777344 242.832031 L 179.777344 234.933594 L 171.878906 234.933594 L 171.878906 211.261719 L 179.777344 211.261719 L 179.777344 195.476562 L 171.878906 195.476562 L 171.878906 203.375 L 163.976562 203.375 L 163.976562 211.261719 L 156.074219 211.261719 L 156.074219 219.160156 L 148.179688 219.160156 L 148.179688 227.046875 L 140.277344 227.046875 L 140.277344 242.832031 L 148.179688 242.832031 L 148.179688 258.617188 L 163.976562 258.617188 L 163.976562 250.722656 L 171.878906 250.722656 L 171.878906 258.617188 L 195.578125 258.617188 L 195.578125 250.722656 L 203.476562 250.722656 L 203.476562 258.617188 L 211.378906 258.617188 L 211.378906 250.722656 L 235.078125 250.722656 L 235.078125 234.933594 L 242.976562 234.933594 L 242.976562 242.832031 L 250.878906 242.832031 L 250.878906 234.933594 L 258.777344 234.933594 L 258.777344 242.832031 L 266.683594 242.832031 L 266.683594 227.046875 L 290.378906 227.046875 L 290.378906 211.261719 L 298.277344 211.261719 L 298.277344 195.476562 L 290.378906 195.476562 " fill-opacity="1" fill-rule="nonzero"/></svg>