<svg xmlns="http://www.w3.org/2000/svg" xmlns:xlink="http://www.w3.org/1999/xlink" width="500" zoomAndPan="magnify" viewBox="0 0 375 374.999991" height="500" preserveAspectRatio="xMidYMid meet" version="1.0"><defs><clipPath id="2e3c4f8cec"><path d="M 25.570312 0 L 349.652344 0 L 349.652344 375 L 25.570312 375 Z M 25.570312 0 " clip-rule="nonzero"/></clipPath><clipPath id="65e57ccb94"><path d="M 59.34375 51 L 349.652344 51 L 349.652344 375 L 59.34375 375 Z M 59.34375 51 " clip-rule="nonzero"/></clipPath><clipPath id="8c7092c81b"><path d="M 25.226562 17 L 342 17 L 342 375 L 25.226562 375 Z M 25.226562 17 " clip-rule="nonzero"/></clipPath></defs><g clip-path="url(#2e3c4f8cec)"><path fill="#100f0d" d="M 349.652344 144.890625 L 349.652344 187.503906 L 341.121094 187.503906 L 341.121094 213.070312 L 332.59375 213.070312 L 332.59375 211.570312 L 331.09375 211.570312 L 331.09375 213.070312 L 332.59375 213.070312 L 332.59375 221.589844 L 315.535156 221.589844 L 315.535156 264.203125 L 298.484375 264.203125 L 298.484375 262.703125 L 296.984375 262.703125 L 296.984375 279.753906 L 289.953125 279.753906 L 289.953125 281.253906 L 288.449219 281.253906 L 288.449219 308.320312 L 314.035156 308.320312 L 314.035156 316.835938 L 322.570312 316.835938 L 322.570312 325.363281 L 331.09375 325.363281 L 331.09375 333.882812 L 339.617188 333.882812 L 339.617188 350.933594 L 348.148438 350.933594 L 348.148438 356.453125 L 331.09375 356.453125 L 331.09375 366.480469 L 332.59375 366.480469 L 332.59375 375 L 324.070312 375 L 324.070312 373.5 L 315.535156 373.5 L 315.535156 375 L 196.144531 375 L 196.140625 374.996094 L 196.140625 375 L 170.558594 375 L 170.558594 373.5 L 155 373.5 L 155 366.480469 L 144.972656 366.480469 L 144.972656 364.980469 L 143.472656 364.980469 L 143.472656 373.5 L 136.4375 373.5 L 136.4375 375 L 102.328125 375 L 102.328125 373.5 L 93.800781 373.5 L 93.800781 375 L 42.632812 375 L 42.632812 366.480469 L 25.570312 366.480469 L 25.570312 357.953125 L 27.074219 357.953125 L 27.074219 350.933594 L 35.605469 350.933594 L 35.605469 342.414062 L 51.164062 342.414062 L 51.164062 332.382812 L 52.664062 332.382812 L 52.664062 325.363281 L 68.214844 325.363281 L 68.214844 323.863281 L 69.714844 323.863281 L 69.714844 299.796875 L 78.25 299.796875 L 78.25 282.753906 L 86.773438 282.753906 L 86.773438 272.734375 L 85.273438 272.734375 L 85.273438 264.203125 L 76.75 264.203125 L 76.75 221.589844 L 59.691406 221.589844 L 59.691406 213.070312 L 61.191406 213.070312 L 61.191406 211.570312 L 59.691406 211.570312 L 59.691406 213.070312 L 51.164062 213.070312 L 51.164062 187.503906 L 42.632812 187.503906 L 42.632812 144.890625 L 51.164062 144.890625 L 51.164062 146.390625 L 52.664062 146.390625 L 52.664062 144.890625 L 51.164062 144.890625 L 51.164062 102.273438 L 59.691406 102.273438 L 59.691406 93.746094 L 68.214844 93.746094 L 68.214844 85.226562 L 76.75 85.226562 L 76.75 86.726562 L 78.25 86.726562 L 78.25 85.226562 L 76.75 85.226562 L 76.75 76.703125 L 85.273438 76.703125 L 85.273438 68.179688 L 93.800781 68.179688 L 93.800781 69.679688 L 95.300781 69.679688 L 95.300781 68.179688 L 93.800781 68.179688 L 93.800781 59.664062 L 102.328125 59.664062 L 102.328125 51.132812 L 110.855469 51.132812 L 110.855469 52.632812 L 112.355469 52.632812 L 112.355469 51.132812 L 110.855469 51.132812 L 110.855469 42.613281 L 119.390625 42.613281 L 119.390625 34.09375 L 136.4375 34.09375 L 136.4375 25.566406 L 153.496094 25.566406 L 153.496094 17.046875 L 162.03125 17.046875 L 162.03125 8.519531 L 170.558594 8.519531 L 170.558594 0 L 196.140625 0 L 196.140625 0.00390625 L 196.144531 0 L 213.203125 0 L 213.203125 8.519531 L 221.726562 8.519531 L 221.726562 17.046875 L 220.226562 17.046875 L 220.226562 18.546875 L 221.726562 18.546875 L 221.726562 17.046875 L 230.253906 17.046875 L 230.253906 25.566406 L 228.75 25.566406 L 228.75 27.066406 L 230.253906 27.066406 L 230.253906 25.566406 L 255.84375 25.566406 L 255.84375 34.09375 L 272.894531 34.09375 L 272.894531 42.613281 L 281.425781 42.613281 L 281.425781 51.132812 L 279.925781 51.132812 L 279.925781 52.632812 L 281.425781 52.632812 L 281.425781 51.132812 L 289.953125 51.132812 L 289.953125 59.664062 L 298.484375 59.664062 L 298.484375 68.179688 L 296.984375 68.179688 L 296.984375 69.679688 L 298.484375 69.679688 L 298.484375 68.179688 L 307.011719 68.179688 L 307.011719 76.703125 L 315.535156 76.703125 L 315.535156 85.226562 L 314.035156 85.226562 L 314.035156 86.726562 L 315.535156 86.726562 L 315.535156 85.226562 L 324.070312 85.226562 L 324.070312 93.746094 L 332.59375 93.746094 L 332.59375 102.273438 L 341.121094 102.273438 L 341.121094 144.890625 L 339.617188 144.890625 L 339.617188 146.390625 L 341.121094 146.390625 L 341.121094 144.890625 L 349.652344 144.890625 " fill-opacity="1" fill-rule="nonzero"/></g><path fill="#edda76" d="M 248.8125 322.363281 L 248.8125 316.835938 L 254.339844 316.835938 L 254.339844 322.363281 Z M 35.605469 342.414062 L 49.664062 342.414062 L 49.664062 356.453125 L 27.074219 356.453125 L 27.074219 350.933594 L 35.605469 350.933594 Z M 95.300781 359.453125 L 83.773438 359.453125 L 83.773438 347.933594 L 95.300781 347.933594 Z M 169.054688 350.933594 L 160.53125 350.933594 L 160.53125 342.414062 L 143.472656 342.414062 L 143.472656 333.882812 L 134.9375 333.882812 L 134.9375 325.363281 L 126.414062 325.363281 L 126.414062 316.835938 L 117.886719 316.835938 L 117.886719 308.320312 L 109.355469 308.320312 L 109.355469 299.796875 L 100.828125 299.796875 L 100.828125 282.753906 L 92.296875 282.753906 L 92.296875 274.234375 L 86.773438 274.234375 L 86.773438 282.753906 L 78.25 282.753906 L 78.25 299.796875 L 69.714844 299.796875 L 69.714844 322.363281 L 86.773438 322.363281 L 86.773438 330.882812 L 95.300781 330.882812 L 95.300781 342.414062 L 75.246094 342.414062 L 75.246094 333.882812 L 66.714844 333.882812 L 66.714844 325.363281 L 52.664062 325.363281 L 52.664062 330.882812 L 61.191406 330.882812 L 61.191406 356.453125 L 69.714844 356.453125 L 69.714844 364.980469 L 95.300781 364.980469 L 95.300781 373.5 L 100.828125 373.5 L 100.828125 356.453125 L 112.355469 356.453125 L 112.355469 364.980469 L 117.886719 364.980469 L 117.886719 347.933594 L 129.414062 347.933594 L 129.414062 364.980469 L 137.941406 364.980469 L 137.941406 373.5 L 143.472656 373.5 L 143.472656 356.453125 L 163.53125 356.453125 L 163.53125 367.980469 L 155 367.980469 L 155 373.5 L 169.054688 373.5 L 169.054688 364.980469 L 177.582031 364.980469 L 177.582031 359.453125 L 169.054688 359.453125 Z M 282.925781 359.453125 L 271.390625 359.453125 L 271.390625 347.933594 L 282.925781 347.933594 Z M 339.617188 350.933594 L 339.617188 333.882812 L 331.09375 333.882812 L 331.09375 325.363281 L 322.570312 325.363281 L 322.570312 316.835938 L 314.035156 316.835938 L 314.035156 308.320312 L 288.449219 308.320312 L 288.449219 282.753906 L 282.925781 282.753906 L 282.925781 291.273438 L 274.394531 291.273438 L 274.394531 299.796875 L 265.867188 299.796875 L 265.867188 308.320312 L 257.34375 308.320312 L 257.34375 313.835938 L 265.867188 313.835938 L 265.867188 333.882812 L 257.34375 333.882812 L 257.34375 342.414062 L 245.8125 342.414062 L 245.8125 325.363281 L 240.289062 325.363281 L 240.289062 342.414062 L 223.230469 342.414062 L 223.230469 356.453125 L 231.753906 356.453125 L 231.753906 364.980469 L 237.285156 364.980469 L 237.285156 356.453125 L 248.8125 356.453125 L 248.8125 364.980469 L 317.035156 364.980469 L 317.035156 373.5 L 322.570312 373.5 L 322.570312 364.980469 L 331.09375 364.980469 L 331.09375 356.453125 L 348.148438 356.453125 L 348.148438 350.933594 Z M 177.582031 66.679688 L 196.5 66.679688 L 197.644531 67.253906 L 197.644531 76.703125 L 197.640625 77.058594 L 197.484375 77.378906 L 194.640625 76.703125 L 196.140625 78.203125 L 177.582031 78.203125 Z M 177.582031 24.066406 L 189.117188 24.066406 L 189.117188 44.113281 L 177.582031 44.113281 Z M 194.644531 46.839844 L 197.316406 50.199219 L 198.0625 51.140625 L 194.640625 55.394531 Z M 211.703125 32.59375 L 223.230469 32.59375 L 223.230469 44.113281 L 211.703125 44.113281 Z M 231.753906 49.632812 L 231.753906 61.164062 L 220.226562 61.164062 L 220.226562 49.632812 Z M 109.355469 100.773438 L 117.886719 100.773438 L 117.886719 92.246094 L 134.9375 92.246094 L 134.9375 83.726562 L 143.472656 83.726562 L 143.472656 75.203125 L 172.058594 75.203125 L 172.058594 83.726562 L 211.703125 83.726562 L 211.703125 75.203125 L 248.8125 75.203125 L 248.8125 83.726562 L 257.34375 83.726562 L 257.34375 92.246094 L 274.394531 92.246094 L 274.394531 100.773438 L 282.925781 100.773438 L 282.925781 109.292969 L 322.570312 109.292969 L 322.570312 103.773438 L 314.035156 103.773438 L 314.035156 86.726562 L 296.984375 86.726562 L 296.984375 69.679688 L 279.925781 69.679688 L 279.925781 52.632812 L 262.867188 52.632812 L 262.867188 44.113281 L 237.285156 44.113281 L 237.285156 35.59375 L 228.75 35.59375 L 228.75 27.066406 L 220.226562 27.066406 L 220.226562 18.546875 L 197.011719 18.546875 L 194.640625 22.679688 L 194.640625 18.546875 L 172.058594 18.546875 L 172.058594 27.066406 L 163.53125 27.066406 L 163.53125 41.113281 L 172.058594 41.113281 L 172.058594 52.632812 L 160.53125 52.632812 L 160.53125 44.113281 L 151.996094 44.113281 L 151.996094 35.59375 L 146.472656 35.59375 L 146.472656 44.113281 L 129.414062 44.113281 L 129.414062 52.632812 L 112.355469 52.632812 L 112.355469 69.679688 L 95.300781 69.679688 L 95.300781 86.726562 L 78.25 86.726562 L 78.25 103.773438 L 69.714844 103.773438 L 69.714844 109.292969 L 109.355469 109.292969 Z M 231.753906 187.503906 L 230.253906 187.503906 L 230.253906 178.976562 L 238.785156 178.976562 L 238.785156 180.476562 L 245.8125 180.476562 L 245.8125 187.503906 L 247.3125 187.503906 L 247.3125 196.023438 L 238.785156 196.023438 L 238.785156 194.523438 L 231.753906 194.523438 Z M 197.640625 341.371094 L 194.640625 345.867188 L 194.640625 340.59375 L 194.773438 340.296875 L 197.644531 340.914062 Z M 160.53125 298.296875 L 162.03125 298.296875 L 162.03125 279.753906 L 170.558594 279.753906 L 170.558594 299.796875 L 160.53125 299.796875 Z M 143.472656 299.796875 L 143.472656 282.753906 L 134.9375 282.753906 L 134.9375 281.253906 L 136.4375 281.253906 L 136.4375 272.734375 L 146.472656 272.734375 L 146.472656 279.753906 L 153.496094 279.753906 L 153.496094 298.296875 L 155 298.296875 L 155 299.796875 Z M 186.113281 237.136719 L 186.113281 228.617188 L 197.644531 228.617188 L 197.640625 259.980469 L 194.640625 256.210938 L 194.640625 248.65625 L 189.117188 248.65625 L 189.117188 257.183594 L 177.582031 257.183594 L 177.582031 237.136719 Z M 196.144531 177.476562 L 197.644531 177.488281 L 197.644531 178.988281 L 194.679688 179.3125 L 194.273438 177.476562 Z M 194.644531 168.953125 L 196.144531 168.953125 L 198.355469 168.964844 L 197.535156 171.019531 L 194.640625 170.464844 Z M 203.167969 237.136719 L 214.703125 237.136719 L 214.703125 248.65625 L 203.167969 248.65625 Z M 213.203125 177.476562 L 213.203125 178.976562 L 221.726562 178.976562 L 221.726562 170.453125 L 220.226562 170.453125 L 220.226562 168.953125 L 221.726562 168.953125 L 221.726562 170.453125 L 255.84375 170.453125 L 255.84375 168.953125 L 257.34375 168.953125 L 257.34375 170.453125 L 255.84375 170.453125 L 255.84375 178.976562 L 264.367188 178.976562 L 264.367188 177.476562 L 265.867188 177.476562 L 265.867188 178.976562 L 264.367188 178.976562 L 264.367188 187.503906 L 265.867188 187.503906 L 265.867188 196.023438 L 264.367188 196.023438 L 264.367188 204.542969 L 265.867188 204.542969 L 265.867188 206.042969 L 257.34375 206.042969 L 257.34375 213.070312 L 255.84375 213.070312 L 255.84375 214.570312 L 248.8125 214.570312 L 248.8125 221.589844 L 237.285156 221.589844 L 237.285156 214.570312 L 221.726562 214.570312 L 221.726562 204.542969 L 213.203125 204.542969 L 213.203125 206.042969 L 211.703125 206.042969 L 211.703125 204.542969 L 213.203125 204.542969 L 213.203125 178.976562 L 211.703125 178.976562 L 211.703125 177.476562 Z M 194.644531 306.820312 L 196.140625 306.820312 L 196.140625 306.8125 L 196.144531 306.820312 L 196.144531 315.335938 L 197.640625 315.335938 L 197.640625 319.597656 L 194.640625 315.867188 Z M 189.117188 272.734375 L 187.617188 272.734375 L 187.617188 298.296875 L 179.082031 298.296875 L 179.082031 272.734375 L 177.582031 272.734375 L 177.582031 271.234375 L 189.117188 271.234375 Z M 223.230469 281.253906 L 221.726562 281.253906 L 221.726562 298.296875 L 213.203125 298.296875 L 213.203125 281.253906 L 221.726562 281.253906 L 221.726562 279.753906 L 223.230469 279.753906 Z M 194.640625 210.207031 L 194.640625 204.332031 L 194.703125 204.121094 L 197.644531 204.542969 L 197.640625 204.945312 Z M 197.488281 220.917969 L 197.644531 221.242188 L 197.644531 221.59375 L 194.796875 222.261719 L 194.640625 221.945312 L 194.640625 221.582031 Z M 206.167969 271.234375 L 206.167969 272.734375 L 204.667969 272.734375 L 204.667969 298.296875 L 196.140625 298.296875 L 196.140625 272.734375 L 194.640625 272.734375 L 194.640625 272.203125 L 197.644531 268.472656 L 197.644531 271.234375 Z M 240.289062 299.796875 L 230.253906 299.796875 L 230.253906 281.253906 L 228.75 281.253906 L 228.75 272.734375 L 238.785156 272.734375 L 238.785156 271.234375 L 240.289062 271.234375 Z M 78.25 168.953125 L 78.25 180.476562 L 66.714844 180.476562 L 66.714844 168.953125 Z M 296.984375 151.910156 L 317.035156 151.910156 L 317.035156 163.429688 L 296.984375 163.429688 Z M 237.285156 313.835938 L 245.8125 313.835938 L 245.8125 305.320312 L 254.339844 305.320312 L 254.339844 291.273438 L 245.8125 291.273438 L 245.8125 279.753906 L 254.339844 279.753906 L 254.339844 272.734375 L 255.84375 272.734375 L 255.84375 271.234375 L 262.867188 271.234375 L 262.867188 255.683594 L 264.367188 255.683594 L 264.367188 247.15625 L 262.867188 247.15625 L 262.867188 237.136719 L 271.390625 237.136719 L 271.390625 228.617188 L 281.425781 228.617188 L 281.425781 238.636719 L 289.953125 238.636719 L 289.953125 230.117188 L 298.484375 230.117188 L 298.484375 221.589844 L 289.953125 221.589844 L 289.953125 213.070312 L 281.425781 213.070312 L 281.425781 214.570312 L 279.925781 214.570312 L 279.925781 163.429688 L 255.84375 163.429688 L 255.84375 161.929688 L 238.785156 161.929688 L 238.785156 153.410156 L 237.285156 153.410156 L 237.285156 151.910156 L 291.453125 151.910156 L 291.453125 168.953125 L 308.511719 168.953125 L 308.511719 180.476562 L 291.453125 180.476562 L 291.453125 211.570312 L 331.09375 211.570312 L 331.09375 168.953125 L 339.617188 168.953125 L 339.617188 146.390625 L 331.09375 146.390625 L 331.09375 129.34375 L 282.925781 129.34375 L 282.925781 146.390625 L 271.390625 146.390625 L 271.390625 137.863281 L 265.867188 137.863281 L 265.867188 146.390625 L 196.144531 146.390625 L 197.484375 145.566406 L 194.640625 144.890625 L 196.140625 146.390625 L 126.414062 146.390625 L 126.414062 137.863281 L 120.890625 137.863281 L 120.890625 146.390625 L 109.355469 146.390625 L 109.355469 129.34375 L 61.191406 129.34375 L 61.191406 146.390625 L 52.664062 146.390625 L 52.664062 168.953125 L 61.191406 168.953125 L 61.191406 211.570312 L 100.828125 211.570312 L 100.828125 180.476562 L 83.773438 180.476562 L 83.773438 168.953125 L 100.828125 168.953125 L 100.828125 163.429688 L 66.714844 163.429688 L 66.714844 151.910156 L 155 151.910156 L 155 153.410156 L 153.496094 153.410156 L 153.496094 161.929688 L 136.4375 161.929688 L 136.4375 163.429688 L 112.355469 163.429688 L 112.355469 211.570312 L 117.886719 211.570312 L 117.886719 203.042969 L 119.390625 203.042969 L 119.390625 204.542969 L 127.914062 204.542969 L 127.914062 196.023438 L 126.414062 196.023438 L 126.414062 187.503906 L 127.914062 187.503906 L 127.914062 178.976562 L 126.414062 178.976562 L 126.414062 177.476562 L 127.914062 177.476562 L 127.914062 178.976562 L 136.4375 178.976562 L 136.4375 170.453125 L 134.9375 170.453125 L 134.9375 168.953125 L 136.4375 168.953125 L 136.4375 170.453125 L 162.03125 170.453125 L 162.03125 153.410156 L 160.53125 153.410156 L 160.53125 151.910156 L 231.753906 151.910156 L 231.753906 153.410156 L 230.253906 153.410156 L 230.253906 161.929688 L 221.726562 161.929688 L 221.726562 163.429688 L 196.144531 163.429688 L 197.535156 162.492188 L 194.640625 161.929688 L 196.140625 163.429688 L 189.117188 163.429688 L 189.117188 171.953125 L 180.582031 171.953125 L 180.582031 178.976562 L 179.082031 178.976562 L 179.082031 204.542969 L 180.582031 204.542969 L 180.582031 206.042969 L 172.058594 206.042969 L 172.058594 213.070312 L 170.558594 213.070312 L 170.558594 214.570312 L 155 214.570312 L 155 221.589844 L 143.472656 221.589844 L 143.472656 214.570312 L 136.4375 214.570312 L 136.4375 213.070312 L 127.914062 213.070312 L 127.914062 221.589844 L 129.414062 221.589844 L 129.414062 223.089844 L 120.890625 223.089844 L 120.890625 231.617188 L 110.855469 231.617188 L 110.855469 230.117188 L 102.328125 230.117188 L 102.328125 238.636719 L 110.855469 238.636719 L 110.855469 237.136719 L 120.890625 237.136719 L 120.890625 255.683594 L 119.390625 255.683594 L 119.390625 272.734375 L 127.914062 272.734375 L 127.914062 281.253906 L 129.414062 281.253906 L 129.414062 296.796875 L 137.941406 296.796875 L 137.941406 305.320312 L 146.472656 305.320312 L 146.472656 322.363281 L 172.058594 322.363281 L 172.058594 330.882812 L 189.117188 330.882812 L 189.117188 342.414062 L 180.582031 342.414062 L 180.582031 347.933594 L 211.703125 347.933594 L 211.703125 342.414062 L 203.167969 342.414062 L 203.167969 330.882812 L 220.226562 330.882812 L 220.226562 322.363281 L 237.285156 322.363281 Z M 257.34375 288.273438 L 257.34375 282.753906 L 262.867188 282.753906 L 262.867188 288.273438 Z M 93.800781 238.636719 L 102.328125 238.636719 L 102.328125 247.15625 L 100.828125 247.15625 L 100.828125 254.183594 L 95.300781 254.183594 L 95.300781 247.15625 L 93.800781 247.15625 L 93.800781 245.65625 L 86.773438 245.65625 L 86.773438 240.136719 L 93.800781 240.136719 Z M 289.953125 247.15625 L 289.953125 238.636719 L 298.484375 238.636719 L 298.484375 240.136719 L 305.507812 240.136719 L 305.507812 245.65625 L 298.484375 245.65625 L 298.484375 247.15625 L 296.984375 247.15625 L 296.984375 279.753906 L 291.453125 279.753906 L 291.453125 247.15625 Z M 194.730469 102.792969 L 194.546875 102.273438 L 197.644531 102.273438 L 197.644531 102.285156 Z M 230.253906 136.363281 L 230.253906 134.863281 L 262.867188 134.863281 L 262.867188 126.34375 L 271.390625 126.34375 L 271.390625 112.292969 L 262.867188 112.292969 L 262.867188 103.773438 L 255.84375 103.773438 L 255.84375 102.273438 L 247.3125 102.273438 L 247.3125 103.773438 L 245.8125 103.773438 L 245.8125 102.273438 L 247.3125 102.273438 L 247.3125 93.746094 L 196.144531 93.746094 L 196.140625 93.753906 L 196.140625 93.746094 L 144.972656 93.746094 L 144.972656 102.273438 L 146.472656 102.273438 L 146.472656 103.773438 L 129.414062 103.773438 L 129.414062 112.292969 L 120.890625 112.292969 L 120.890625 126.34375 L 129.414062 126.34375 L 129.414062 134.863281 L 196.140625 134.863281 L 194.730469 135.84375 L 197.644531 136.363281 L 196.144531 134.863281 L 204.667969 134.863281 L 204.667969 136.363281 L 213.203125 136.363281 L 213.203125 134.863281 L 221.726562 134.863281 L 221.726562 136.363281 L 230.253906 136.363281 " fill-opacity="1" fill-rule="nonzero"/><path fill="#c7bb3f" d="M 221.726562 247.15625 L 213.203125 247.15625 L 213.203125 238.636719 L 204.667969 238.636719 L 204.667969 230.117188 L 187.617188 230.117188 L 187.617188 238.636719 L 179.082031 238.636719 L 179.082031 247.15625 L 170.558594 247.15625 L 170.558594 255.683594 L 196.140625 255.683594 L 196.144531 255.6875 L 196.144531 247.15625 L 213.203125 247.15625 L 213.203125 255.683594 L 221.726562 255.683594 Z M 238.785156 255.683594 L 238.785156 264.203125 L 221.726562 264.203125 L 221.726562 272.734375 L 196.144531 272.734375 L 196.144531 272.730469 L 196.140625 272.734375 L 170.558594 272.734375 L 170.558594 264.203125 L 153.496094 264.203125 L 153.496094 255.683594 L 136.4375 255.683594 L 136.4375 247.15625 L 127.914062 247.15625 L 127.914062 255.683594 L 119.390625 255.683594 L 119.390625 238.636719 L 110.855469 238.636719 L 110.855469 230.117188 L 119.390625 230.117188 L 119.390625 221.589844 L 136.4375 221.589844 L 136.4375 230.117188 L 170.558594 230.117188 L 170.558594 221.589844 L 179.082031 221.589844 L 179.082031 213.070312 L 187.617188 213.070312 L 187.617188 221.589844 L 196.140625 221.589844 L 196.144531 221.59375 L 196.144531 221.589844 L 204.667969 221.589844 L 204.667969 213.070312 L 213.203125 213.070312 L 213.203125 221.589844 L 221.726562 221.589844 L 221.726562 230.117188 L 255.84375 230.117188 L 255.84375 221.589844 L 272.894531 221.589844 L 272.894531 213.070312 L 264.367188 213.070312 L 264.367188 204.542969 L 272.894531 204.542969 L 272.894531 196.023438 L 281.425781 196.023438 L 281.425781 230.117188 L 272.894531 230.117188 L 272.894531 238.636719 L 264.367188 238.636719 L 264.367188 247.15625 L 255.84375 247.15625 L 255.84375 255.683594 Z M 162.03125 213.070312 L 153.496094 213.070312 L 153.496094 221.589844 L 170.558594 221.589844 L 170.558594 213.070312 Z M 144.972656 213.070312 L 136.4375 213.070312 L 136.4375 221.589844 L 144.972656 221.589844 Z M 127.914062 264.203125 L 136.4375 264.203125 L 136.4375 255.683594 L 127.914062 255.683594 Z M 230.253906 281.253906 L 230.253906 272.734375 L 221.726562 272.734375 L 221.726562 281.253906 Z M 144.972656 340.914062 L 144.972656 332.382812 L 136.4375 332.382812 L 136.4375 323.863281 L 127.914062 323.863281 L 127.914062 315.335938 L 119.390625 315.335938 L 119.390625 306.820312 L 110.855469 306.820312 L 110.855469 298.296875 L 102.328125 298.296875 L 102.328125 281.253906 L 93.800781 281.253906 L 93.800781 272.734375 L 85.273438 272.734375 L 85.273438 281.253906 L 76.75 281.253906 L 76.75 289.773438 L 85.273438 289.773438 L 85.273438 298.296875 L 93.800781 298.296875 L 93.800781 306.820312 L 102.328125 306.820312 L 102.328125 315.335938 L 110.855469 315.335938 L 110.855469 323.863281 L 119.390625 323.863281 L 119.390625 349.433594 L 127.914062 349.433594 L 127.914062 340.914062 L 136.4375 340.914062 L 136.4375 349.433594 L 127.914062 349.433594 L 127.914062 357.953125 L 136.4375 357.953125 L 136.4375 366.480469 L 144.972656 366.480469 L 144.972656 357.953125 L 162.03125 357.953125 L 162.03125 340.914062 Z M 153.496094 272.734375 L 144.972656 272.734375 L 144.972656 281.253906 L 153.496094 281.253906 Z M 238.785156 357.953125 L 247.3125 357.953125 L 247.3125 349.433594 L 238.785156 349.433594 Z M 255.84375 340.914062 L 255.84375 349.433594 L 264.367188 349.433594 L 264.367188 332.382812 L 255.84375 332.382812 Z M 179.082031 204.542969 L 170.558594 204.542969 L 170.558594 213.070312 L 179.082031 213.070312 Z M 255.84375 272.734375 L 264.367188 272.734375 L 264.367188 255.683594 L 255.84375 255.683594 Z M 281.425781 349.433594 L 289.953125 349.433594 L 289.953125 340.914062 L 281.425781 340.914062 Z M 255.84375 298.296875 L 255.84375 289.773438 L 247.3125 289.773438 L 247.3125 281.253906 L 255.84375 281.253906 L 255.84375 272.734375 L 247.3125 272.734375 L 247.3125 264.203125 L 238.785156 264.203125 L 238.785156 298.296875 L 230.253906 298.296875 L 230.253906 306.820312 L 213.203125 306.820312 L 213.203125 315.335938 L 196.144531 315.335938 L 196.144531 315.34375 L 196.140625 315.335938 L 196.140625 306.820312 L 170.558594 306.820312 L 170.558594 298.296875 L 144.972656 298.296875 L 144.972656 281.253906 L 127.914062 281.253906 L 127.914062 298.296875 L 136.4375 298.296875 L 136.4375 306.820312 L 144.972656 306.820312 L 144.972656 323.863281 L 170.558594 323.863281 L 170.558594 332.382812 L 187.617188 332.382812 L 187.617188 340.914062 L 196.140625 340.914062 L 196.144531 340.90625 L 196.144531 340.914062 L 204.667969 340.914062 L 204.667969 332.382812 L 221.726562 332.382812 L 221.726562 323.863281 L 238.785156 323.863281 L 238.785156 315.335938 L 247.3125 315.335938 L 247.3125 306.820312 L 255.84375 306.820312 Z M 264.367188 323.863281 L 264.367188 332.382812 L 272.894531 332.382812 L 272.894531 315.335938 L 264.367188 315.335938 Z M 281.425781 306.820312 L 272.894531 306.820312 L 272.894531 315.335938 L 281.425781 315.335938 Z M 238.785156 221.589844 L 238.785156 213.070312 L 221.726562 213.070312 L 221.726562 221.589844 Z M 247.3125 213.070312 L 247.3125 221.589844 L 255.84375 221.589844 L 255.84375 213.070312 Z M 264.367188 289.773438 L 264.367188 281.253906 L 255.84375 281.253906 L 255.84375 289.773438 Z M 162.03125 281.253906 L 170.558594 281.253906 L 170.558594 272.734375 L 162.03125 272.734375 Z M 315.535156 315.335938 L 315.535156 332.382812 L 324.070312 332.382812 L 324.070312 315.335938 Z M 238.785156 119.3125 L 238.785156 127.84375 L 230.253906 127.84375 L 230.253906 136.363281 L 264.367188 136.363281 L 264.367188 127.84375 L 272.894531 127.84375 L 272.894531 110.792969 L 264.367188 110.792969 L 264.367188 102.273438 L 255.84375 102.273438 L 255.84375 110.792969 L 247.3125 110.792969 L 247.3125 119.3125 Z M 298.484375 315.335938 L 307.011719 315.335938 L 307.011719 306.820312 L 298.484375 306.820312 Z M 221.726562 119.3125 L 221.726562 127.84375 L 230.253906 127.84375 L 230.253906 119.3125 Z M 264.367188 170.457031 L 264.367188 178.976562 L 272.894531 178.976562 L 272.894531 170.457031 Z M 247.3125 102.273438 L 238.785156 102.273438 L 238.785156 110.792969 L 247.3125 110.792969 Z M 213.203125 136.363281 L 221.726562 136.363281 L 221.726562 127.84375 L 213.203125 127.84375 Z M 281.425781 187.503906 L 281.425781 178.976562 L 272.894531 178.976562 L 272.894531 187.503906 Z M 289.953125 323.863281 L 289.953125 340.914062 L 298.484375 340.914062 L 298.484375 332.382812 L 307.011719 332.382812 L 307.011719 323.863281 Z M 127.914062 170.457031 L 119.390625 170.457031 L 119.390625 178.976562 L 127.914062 178.976562 Z M 119.390625 178.976562 L 110.855469 178.976562 L 110.855469 187.503906 L 119.390625 187.503906 Z M 204.667969 204.542969 L 204.667969 178.976562 L 196.144531 178.976562 L 196.144531 178.988281 L 196.140625 178.976562 L 187.617188 178.976562 L 187.617188 204.542969 L 196.140625 204.542969 L 196.144531 204.53125 L 196.144531 204.542969 Z M 238.785156 119.3125 L 238.785156 110.792969 L 230.253906 110.792969 L 230.253906 119.3125 Z M 119.390625 204.542969 L 119.390625 196.023438 L 110.855469 196.023438 L 110.855469 213.070312 L 119.390625 213.070312 Z M 127.914062 136.363281 L 196.140625 136.363281 L 196.144531 136.351562 L 196.144531 136.363281 L 204.667969 136.363281 L 204.667969 127.84375 L 213.203125 127.84375 L 213.203125 119.3125 L 221.726562 119.3125 L 221.726562 110.792969 L 230.253906 110.792969 L 230.253906 102.273438 L 196.144531 102.273438 L 196.144531 102.285156 L 196.140625 102.273438 L 127.914062 102.273438 L 127.914062 110.792969 L 119.390625 110.792969 L 119.390625 127.84375 L 127.914062 127.84375 Z M 179.082031 170.457031 L 179.082031 178.976562 L 187.617188 178.976562 L 187.617188 170.457031 Z M 213.203125 170.457031 L 204.667969 170.457031 L 204.667969 178.976562 L 213.203125 178.976562 Z M 76.75 306.820312 L 85.273438 306.820312 L 85.273438 323.863281 L 68.214844 323.863281 L 68.214844 298.296875 L 76.75 298.296875 L 76.75 306.820312 " fill-opacity="1" fill-rule="nonzero"/><g clip-path="url(#65e57ccb94)"><path fill="#638856" d="M 230.253906 196.023438 L 238.785156 196.023438 L 238.785156 187.503906 L 230.253906 187.503906 Z M 230.253906 349.433594 L 230.253906 357.953125 L 238.785156 357.953125 L 238.785156 340.914062 L 230.253906 340.914062 Z M 255.84375 340.914062 L 247.3125 340.914062 L 247.3125 349.433594 L 255.84375 349.433594 Z M 247.3125 178.976562 L 238.785156 178.976562 L 238.785156 187.503906 L 247.3125 187.503906 Z M 230.253906 68.179688 L 230.253906 59.664062 L 221.726562 59.664062 L 221.726562 51.132812 L 196.144531 51.132812 L 196.140625 51.136719 L 196.140625 51.132812 L 162.03125 51.132812 L 162.03125 76.703125 L 179.082031 76.703125 L 179.082031 68.179688 L 196.144531 68.179688 L 196.144531 76.703125 L 230.253906 76.703125 Z M 127.914062 68.179688 L 127.914062 59.664062 L 110.855469 59.664062 L 110.855469 76.703125 L 119.390625 76.703125 L 119.390625 85.226562 L 127.914062 85.226562 L 127.914062 93.746094 L 136.4375 93.746094 L 136.4375 76.703125 L 127.914062 76.703125 Z M 136.4375 51.132812 L 136.4375 68.179688 L 144.972656 68.179688 L 144.972656 76.703125 L 153.496094 76.703125 L 153.496094 51.132812 Z M 187.617188 170.457031 L 187.617188 178.976562 L 204.667969 178.976562 L 204.667969 170.457031 L 196.144531 170.457031 L 196.140625 170.464844 L 196.140625 170.457031 Z M 196.144531 204.542969 L 196.140625 204.546875 L 196.140625 204.542969 L 179.082031 204.542969 L 179.082031 213.070312 L 187.617188 213.070312 L 187.617188 221.589844 L 196.140625 221.589844 L 196.140625 221.582031 L 196.144531 221.589844 L 204.667969 221.589844 L 204.667969 213.070312 L 213.203125 213.070312 L 213.203125 204.542969 Z M 255.84375 366.480469 L 264.367188 366.480469 L 264.367188 357.953125 L 255.84375 357.953125 Z M 315.535156 340.914062 L 307.011719 340.914062 L 307.011719 349.433594 L 315.535156 349.433594 Z M 307.011719 332.382812 L 315.535156 332.382812 L 315.535156 306.820312 L 307.011719 306.820312 L 307.011719 315.335938 L 298.484375 315.335938 L 298.484375 306.820312 L 289.953125 306.820312 L 289.953125 298.296875 L 281.425781 298.296875 L 281.425781 323.863281 L 307.011719 323.863281 Z M 341.121094 349.433594 L 341.121094 332.382812 L 332.59375 332.382812 L 332.59375 323.863281 L 324.070312 323.863281 L 324.070312 366.480469 L 332.59375 366.480469 L 332.59375 357.953125 L 349.652344 357.953125 L 349.652344 349.433594 Z M 315.535156 375 L 324.070312 375 L 324.070312 366.480469 L 315.535156 366.480469 Z M 281.425781 357.953125 L 289.953125 357.953125 L 289.953125 349.433594 L 281.425781 349.433594 Z M 281.425781 332.382812 L 272.894531 332.382812 L 272.894531 340.914062 L 281.425781 340.914062 Z M 289.953125 349.433594 L 298.484375 349.433594 L 298.484375 340.914062 L 289.953125 340.914062 Z M 264.367188 349.433594 L 272.894531 349.433594 L 272.894531 340.914062 L 264.367188 340.914062 Z M 298.484375 366.480469 L 298.484375 357.953125 L 289.953125 357.953125 L 289.953125 366.480469 Z M 85.273438 238.636719 L 85.273438 247.15625 L 93.800781 247.15625 L 93.800781 238.636719 Z M 298.484375 247.15625 L 307.011719 247.15625 L 307.011719 238.636719 L 298.484375 238.636719 Z M 272.894531 221.589844 L 272.894531 213.070312 L 264.367188 213.070312 L 264.367188 221.589844 Z M 255.84375 204.542969 L 255.84375 213.070312 L 264.367188 213.070312 L 264.367188 204.542969 Z M 281.425781 93.746094 L 272.894531 93.746094 L 272.894531 102.273438 L 289.953125 102.273438 L 289.953125 93.746094 L 298.484375 93.746094 L 298.484375 76.703125 L 289.953125 76.703125 L 289.953125 85.226562 L 281.425781 85.226562 Z M 298.484375 110.792969 L 315.535156 110.792969 L 315.535156 102.273438 L 307.011719 102.273438 L 307.011719 93.746094 L 298.484375 93.746094 Z M 324.070312 213.070312 L 324.070312 196.023438 L 307.011719 196.023438 L 307.011719 204.542969 L 315.535156 204.542969 L 315.535156 213.070312 Z M 289.953125 255.683594 L 298.484375 255.683594 L 298.484375 247.15625 L 289.953125 247.15625 Z M 332.59375 170.457031 L 332.59375 153.410156 L 315.535156 153.410156 L 315.535156 161.929688 L 307.011719 161.929688 L 307.011719 178.976562 L 315.535156 178.976562 L 315.535156 170.457031 Z M 307.011719 127.84375 L 307.011719 136.363281 L 298.484375 136.363281 L 298.484375 144.890625 L 324.070312 144.890625 L 324.070312 127.84375 Z M 281.425781 196.023438 L 281.425781 187.503906 L 264.367188 187.503906 L 264.367188 196.023438 Z M 93.800781 255.683594 L 102.328125 255.683594 L 102.328125 247.15625 L 93.800781 247.15625 Z M 85.273438 102.273438 L 76.75 102.273438 L 76.75 110.792969 L 93.800781 110.792969 L 93.800781 93.746094 L 85.273438 93.746094 Z M 110.855469 102.273438 L 119.390625 102.273438 L 119.390625 93.746094 L 110.855469 93.746094 L 110.855469 85.226562 L 102.328125 85.226562 L 102.328125 76.703125 L 93.800781 76.703125 L 93.800781 93.746094 L 102.328125 93.746094 L 102.328125 102.273438 Z M 85.273438 196.023438 L 68.214844 196.023438 L 68.214844 213.070312 L 76.75 213.070312 L 76.75 204.542969 L 85.273438 204.542969 Z M 76.75 170.457031 L 76.75 178.976562 L 85.273438 178.976562 L 85.273438 161.929688 L 68.214844 161.929688 L 68.214844 153.410156 L 59.691406 153.410156 L 59.691406 170.457031 Z M 247.3125 68.179688 L 255.84375 68.179688 L 255.84375 51.132812 L 238.785156 51.132812 L 238.785156 76.703125 L 247.3125 76.703125 Z M 255.84375 85.226562 L 255.84375 93.746094 L 264.367188 93.746094 L 264.367188 85.226562 L 272.894531 85.226562 L 272.894531 76.703125 L 281.425781 76.703125 L 281.425781 59.664062 L 264.367188 59.664062 L 264.367188 76.703125 L 255.84375 76.703125 Z M 85.273438 144.890625 L 93.800781 144.890625 L 93.800781 136.363281 L 85.273438 136.363281 L 85.273438 127.84375 L 68.214844 127.84375 L 68.214844 144.890625 Z M 119.390625 187.503906 L 127.914062 187.503906 L 127.914062 196.023438 L 110.855469 196.023438 L 110.855469 187.503906 L 119.390625 187.503906 " fill-opacity="1" fill-rule="nonzero"/></g><g clip-path="url(#8c7092c81b)"><path fill="#33452f" d="M 221.726562 255.683594 L 213.203125 255.683594 L 213.203125 247.15625 L 221.726562 247.15625 Z M 230.253906 349.433594 L 230.253906 357.953125 L 221.726562 357.953125 L 221.726562 340.914062 L 230.253906 340.914062 Z M 272.894531 340.914062 L 281.425781 340.914062 L 281.425781 349.433594 L 272.894531 349.433594 Z M 272.894531 332.382812 L 272.894531 340.914062 L 264.367188 340.914062 L 264.367188 332.382812 Z M 298.484375 281.253906 L 289.953125 281.253906 L 289.953125 255.683594 L 298.484375 255.683594 Z M 204.667969 340.914062 L 213.203125 340.914062 L 213.203125 349.433594 L 179.082031 349.433594 L 179.082031 340.914062 L 196.140625 340.914062 L 196.140625 340.917969 L 196.144531 340.914062 Z M 187.617188 247.15625 L 196.140625 247.15625 L 196.140625 255.683594 L 187.617188 255.683594 Z M 179.082031 255.683594 L 170.558594 255.683594 L 170.558594 247.15625 L 179.082031 247.15625 Z M 170.558594 357.953125 L 179.082031 357.953125 L 179.082031 366.480469 L 170.558594 366.480469 L 170.558594 375 L 153.496094 375 L 153.496094 366.480469 L 162.03125 366.480469 L 162.03125 349.433594 L 170.558594 349.433594 Z M 196.140625 161.929688 L 196.140625 161.933594 L 196.144531 161.929688 L 221.726562 161.929688 L 221.726562 170.457031 L 187.617188 170.457031 L 187.617188 161.929688 Z M 196.144531 238.636719 L 196.144531 230.117188 L 204.667969 230.117188 L 204.667969 247.15625 L 196.144531 247.15625 Z M 324.070312 170.457031 L 332.59375 170.457031 L 332.59375 213.070312 L 324.070312 213.070312 L 324.070312 196.023438 L 307.011719 196.023438 L 307.011719 204.542969 L 315.535156 204.542969 L 315.535156 213.070312 L 289.953125 213.070312 L 289.953125 178.976562 L 315.535156 178.976562 L 315.535156 170.457031 Z M 272.894531 323.863281 L 272.894531 315.335938 L 281.425781 315.335938 L 281.425781 323.863281 L 289.953125 323.863281 L 289.953125 340.914062 L 281.425781 340.914062 L 281.425781 332.382812 L 272.894531 332.382812 Z M 59.691406 178.976562 L 59.691406 170.457031 L 68.214844 170.457031 L 68.214844 178.976562 L 102.328125 178.976562 L 102.328125 213.070312 L 76.75 213.070312 L 76.75 204.542969 L 85.273438 204.542969 L 85.273438 196.023438 L 68.214844 196.023438 L 68.214844 213.070312 L 59.691406 213.070312 Z M 272.894531 178.976562 L 272.894531 170.457031 L 255.84375 170.457031 L 255.84375 161.929688 L 281.425781 161.929688 L 281.425781 178.976562 Z M 341.121094 144.890625 L 341.121094 170.457031 L 332.59375 170.457031 L 332.59375 153.410156 L 298.484375 153.410156 L 298.484375 161.929688 L 307.011719 161.929688 L 307.011719 170.457031 L 289.953125 170.457031 L 289.953125 153.410156 L 59.691406 153.410156 L 59.691406 170.457031 L 51.164062 170.457031 L 51.164062 144.890625 L 59.691406 144.890625 L 59.691406 127.84375 L 68.214844 127.84375 L 68.214844 144.890625 L 93.800781 144.890625 L 93.800781 136.363281 L 85.273438 136.363281 L 85.273438 127.84375 L 110.855469 127.84375 L 110.855469 144.890625 L 119.390625 144.890625 L 119.390625 136.363281 L 127.914062 136.363281 L 127.914062 144.890625 L 196.140625 144.890625 L 196.140625 144.894531 L 196.144531 144.890625 L 264.367188 144.890625 L 264.367188 136.363281 L 272.894531 136.363281 L 272.894531 144.890625 L 281.425781 144.890625 L 281.425781 127.84375 L 307.011719 127.84375 L 307.011719 136.363281 L 298.484375 136.363281 L 298.484375 144.890625 L 324.070312 144.890625 L 324.070312 127.84375 L 332.59375 127.84375 L 332.59375 144.890625 Z M 264.367188 315.335938 L 255.84375 315.335938 L 255.84375 306.820312 L 264.367188 306.820312 L 264.367188 298.296875 L 272.894531 298.296875 L 272.894531 289.773438 L 281.425781 289.773438 L 281.425781 281.253906 L 289.953125 281.253906 L 289.953125 298.296875 L 281.425781 298.296875 L 281.425781 306.820312 L 272.894531 306.820312 L 272.894531 315.335938 Z M 255.84375 323.863281 L 247.3125 323.863281 L 247.3125 315.335938 L 255.84375 315.335938 Z M 247.3125 340.914062 L 247.3125 349.433594 L 238.785156 349.433594 L 238.785156 323.863281 L 247.3125 323.863281 Z M 315.535156 349.433594 L 307.011719 349.433594 L 307.011719 340.914062 L 315.535156 340.914062 Z M 307.011719 332.382812 L 298.484375 332.382812 L 298.484375 349.433594 L 289.953125 349.433594 L 289.953125 357.953125 L 298.484375 357.953125 L 298.484375 366.480469 L 324.070312 366.480469 L 324.070312 332.382812 Z M 281.425781 357.953125 L 289.953125 357.953125 L 289.953125 366.480469 L 264.367188 366.480469 L 264.367188 357.953125 L 255.84375 357.953125 L 255.84375 366.480469 L 247.3125 366.480469 L 247.3125 349.433594 L 272.894531 349.433594 L 272.894531 357.953125 Z M 230.253906 357.953125 L 238.785156 357.953125 L 238.785156 366.480469 L 230.253906 366.480469 Z M 102.328125 76.703125 L 93.800781 76.703125 L 93.800781 68.179688 L 110.855469 68.179688 L 110.855469 76.703125 L 119.390625 76.703125 L 119.390625 85.226562 L 127.914062 85.226562 L 127.914062 93.746094 L 110.855469 93.746094 L 110.855469 85.226562 L 102.328125 85.226562 Z M 196.140625 76.703125 L 213.203125 76.703125 L 213.203125 85.226562 L 170.558594 85.226562 L 170.558594 76.703125 Z M 136.4375 357.953125 L 136.4375 366.480469 L 127.914062 366.480469 L 127.914062 357.953125 Z M 93.800781 102.273438 L 93.800781 93.746094 L 102.328125 93.746094 L 102.328125 102.273438 L 110.855469 102.273438 L 110.855469 110.792969 L 93.800781 110.792969 Z M 179.082031 34.09375 L 179.082031 25.566406 L 187.617188 25.566406 L 187.617188 42.613281 L 179.082031 42.613281 Z M 213.203125 34.09375 L 221.726562 34.09375 L 221.726562 42.613281 L 213.203125 42.613281 Z M 170.558594 51.132812 L 196.140625 51.132812 L 196.140625 51.128906 L 196.144531 51.132812 L 230.253906 51.132812 L 230.253906 76.703125 L 238.785156 76.703125 L 238.785156 51.132812 L 255.84375 51.132812 L 255.84375 68.179688 L 247.3125 68.179688 L 247.3125 85.226562 L 255.84375 85.226562 L 255.84375 76.703125 L 264.367188 76.703125 L 264.367188 59.664062 L 281.425781 59.664062 L 281.425781 51.132812 L 264.367188 51.132812 L 264.367188 42.613281 L 238.785156 42.613281 L 238.785156 34.09375 L 230.253906 34.09375 L 230.253906 25.566406 L 221.726562 25.566406 L 221.726562 17.046875 L 196.144531 17.046875 L 196.140625 17.054688 L 196.140625 17.046875 L 170.558594 17.046875 L 170.558594 25.566406 L 162.03125 25.566406 L 162.03125 42.613281 L 170.558594 42.613281 Z M 298.484375 85.226562 L 315.535156 85.226562 L 315.535156 102.273438 L 307.011719 102.273438 L 307.011719 93.746094 L 298.484375 93.746094 Z M 85.273438 102.273438 L 76.75 102.273438 L 76.75 85.226562 L 93.800781 85.226562 L 93.800781 93.746094 L 85.273438 93.746094 Z M 119.390625 59.664062 L 110.855469 59.664062 L 110.855469 51.132812 L 127.914062 51.132812 L 127.914062 42.613281 L 144.972656 42.613281 L 144.972656 34.09375 L 153.496094 34.09375 L 153.496094 42.613281 L 162.03125 42.613281 L 162.03125 76.703125 L 153.496094 76.703125 L 153.496094 51.132812 L 136.4375 51.132812 L 136.4375 68.179688 L 144.972656 68.179688 L 144.972656 85.226562 L 136.4375 85.226562 L 136.4375 76.703125 L 127.914062 76.703125 L 127.914062 59.664062 Z M 289.953125 93.746094 L 298.484375 93.746094 L 298.484375 110.792969 L 281.425781 110.792969 L 281.425781 102.273438 L 289.953125 102.273438 Z M 127.914062 170.457031 L 119.390625 170.457031 L 119.390625 178.976562 L 110.855469 178.976562 L 110.855469 161.929688 L 136.4375 161.929688 L 136.4375 170.457031 Z M 281.425781 68.179688 L 298.484375 68.179688 L 298.484375 76.703125 L 289.953125 76.703125 L 289.953125 85.226562 L 281.425781 85.226562 L 281.425781 93.746094 L 264.367188 93.746094 L 264.367188 85.226562 L 272.894531 85.226562 L 272.894531 76.703125 L 281.425781 76.703125 Z M 93.800781 161.929688 L 102.328125 161.929688 L 102.328125 170.457031 L 85.273438 170.457031 L 85.273438 161.929688 Z M 136.4375 366.480469 L 144.972656 366.480469 L 144.972656 375 L 136.4375 375 Z M 127.914062 340.914062 L 136.4375 340.914062 L 136.4375 349.433594 L 127.914062 349.433594 Z M 42.632812 340.914062 L 51.164062 340.914062 L 51.164062 357.953125 L 25.570312 357.953125 L 25.570312 349.433594 L 34.105469 349.433594 L 34.105469 340.914062 Z M 76.75 110.792969 L 68.214844 110.792969 L 68.214844 102.273438 L 76.75 102.273438 Z M 315.535156 110.792969 L 315.535156 102.273438 L 324.070312 102.273438 L 324.070312 110.792969 Z M 93.800781 357.953125 L 85.273438 357.953125 L 85.273438 349.433594 L 93.800781 349.433594 Z M 110.855469 315.335938 L 102.328125 315.335938 L 102.328125 306.820312 L 93.800781 306.820312 L 93.800781 298.296875 L 85.273438 298.296875 L 85.273438 289.773438 L 76.75 289.773438 L 76.75 306.820312 L 85.273438 306.820312 L 85.273438 332.382812 L 93.800781 332.382812 L 93.800781 340.914062 L 76.75 340.914062 L 76.75 332.382812 L 68.214844 332.382812 L 68.214844 323.863281 L 51.164062 323.863281 L 51.164062 332.382812 L 59.691406 332.382812 L 59.691406 357.953125 L 68.214844 357.953125 L 68.214844 366.480469 L 93.800781 366.480469 L 93.800781 375 L 102.328125 375 L 102.328125 357.953125 L 110.855469 357.953125 L 110.855469 366.480469 L 119.390625 366.480469 L 119.390625 323.863281 L 110.855469 323.863281 L 110.855469 315.335938 " fill-opacity="1" fill-rule="nonzero"/></g></svg>