<svg xmlns="http://www.w3.org/2000/svg" xmlns:xlink="http://www.w3.org/1999/xlink" width="500" zoomAndPan="magnify" viewBox="0 0 375 374.999991" height="500" preserveAspectRatio="xMidYMid meet" version="1.0"><defs><clipPath id="68af59acc8"><path d="M 31 178.5 L 352.8125 178.5 L 352.8125 366.75 L 31 366.75 Z M 31 178.5 " clip-rule="nonzero"/></clipPath></defs><path fill="#100f0d" d="M 351.308594 269.359375 L 343.878906 269.359375 L 343.878906 267.859375 L 317.082031 267.859375 L 317.082031 276.789062 L 318.582031 276.789062 L 318.582031 278.289062 L 317.082031 278.289062 L 317.082031 276.789062 L 299.214844 276.789062 L 299.214844 278.289062 L 297.714844 278.289062 L 297.714844 276.789062 L 299.214844 276.789062 L 299.214844 267.859375 L 297.714844 267.859375 L 297.714844 266.359375 L 306.644531 266.359375 L 306.644531 257.429688 L 315.582031 257.429688 L 315.582031 239.570312 L 324.511719 239.570312 L 324.511719 221.71875 L 333.441406 221.71875 L 333.441406 197.921875 L 318.582031 197.921875 L 318.582031 206.859375 L 300.714844 206.859375 L 300.714844 215.78125 L 288.777344 215.78125 L 288.777344 178.574219 L 290.277344 178.574219 L 290.277344 177.074219 L 297.714844 177.074219 L 297.714844 142.855469 L 299.214844 142.855469 L 299.214844 133.929688 L 288.777344 133.929688 L 288.777344 123.496094 L 297.714844 123.496094 L 297.714844 99.710938 L 290.277344 99.710938 L 290.277344 80.351562 L 281.347656 80.351562 L 281.347656 81.851562 L 279.847656 81.851562 L 279.847656 71.429688 L 281.347656 71.429688 L 281.347656 69.929688 L 288.777344 69.929688 L 288.777344 55.070312 L 281.347656 55.070312 L 281.347656 53.570312 L 279.847656 53.570312 L 279.847656 19.359375 L 273.917969 19.359375 L 273.917969 53.570312 L 272.417969 53.570312 L 272.417969 63.992188 L 253.050781 63.992188 L 253.050781 37.210938 L 244.113281 37.210938 L 244.113281 28.28125 L 238.183594 28.28125 L 238.183594 43.140625 L 247.117188 43.140625 L 247.117188 55.070312 L 236.683594 55.070312 L 236.683594 53.570312 L 227.757812 53.570312 L 227.757812 55.070312 L 226.257812 55.070312 L 226.257812 37.210938 L 220.320312 37.210938 L 220.320312 46.140625 L 211.390625 46.140625 L 211.390625 55.070312 L 199.453125 55.070312 L 199.453125 19.359375 L 193.523438 19.359375 L 193.523438 37.210938 L 183.09375 37.210938 L 183.09375 35.710938 L 174.15625 35.710938 L 174.15625 53.570312 L 175.65625 53.570312 L 175.65625 55.070312 L 174.15625 55.070312 L 174.15625 53.570312 L 165.230469 53.570312 L 165.230469 55.070312 L 154.789062 55.070312 L 154.789062 43.140625 L 163.726562 43.140625 L 163.726562 1.5 L 157.789062 1.5 L 157.789062 19.359375 L 148.859375 19.359375 L 148.859375 28.28125 L 130.996094 28.28125 L 130.996094 46.140625 L 129.496094 46.140625 L 129.496094 44.640625 L 120.5625 44.640625 L 120.5625 46.140625 L 119.0625 46.140625 L 119.0625 28.28125 L 113.128906 28.28125 L 113.128906 37.210938 L 104.199219 37.210938 L 104.199219 63.992188 L 95.269531 63.992188 L 95.269531 90.789062 L 86.332031 90.789062 L 86.332031 99.710938 L 75.902344 99.710938 L 75.902344 98.210938 L 74.402344 98.210938 L 74.402344 90.789062 L 68.472656 90.789062 L 68.472656 98.210938 L 66.972656 98.210938 L 66.972656 107.136719 L 68.472656 107.136719 L 68.472656 114.570312 L 75.902344 114.570312 L 75.902344 116.070312 L 77.402344 116.070312 L 77.402344 124.996094 L 75.902344 124.996094 L 75.902344 142.855469 L 77.402344 142.855469 L 77.402344 150.28125 L 84.832031 150.28125 L 84.832031 151.78125 L 86.332031 151.78125 L 86.332031 169.640625 L 84.832031 169.640625 L 84.832031 178.574219 L 93.769531 178.574219 L 93.769531 177.074219 L 95.269531 177.074219 L 95.269531 178.574219 L 93.769531 178.574219 L 93.769531 187.5 L 104.199219 187.5 L 104.199219 197.921875 L 95.269531 197.921875 L 95.269531 215.78125 L 83.328125 215.78125 L 83.328125 206.859375 L 65.472656 206.859375 L 65.472656 197.921875 L 50.605469 197.921875 L 50.605469 221.71875 L 59.535156 221.71875 L 59.535156 239.570312 L 77.402344 239.570312 L 77.402344 267.859375 L 75.902344 267.859375 L 75.902344 276.789062 L 77.402344 276.789062 L 77.402344 278.289062 L 75.902344 278.289062 L 75.902344 276.789062 L 58.035156 276.789062 L 58.035156 278.289062 L 56.535156 278.289062 L 56.535156 276.789062 L 58.035156 276.789062 L 58.035156 267.859375 L 22.3125 267.859375 L 22.3125 276.789062 L 32.738281 276.789062 L 32.738281 302.070312 L 41.667969 302.070312 L 41.667969 310.996094 L 59.535156 310.996094 L 59.535156 312.496094 L 58.035156 312.496094 L 58.035156 321.429688 L 77.402344 321.429688 L 77.402344 328.855469 L 95.269531 328.855469 L 95.269531 337.789062 L 104.199219 337.789062 L 104.199219 339.289062 L 102.695312 339.289062 L 102.695312 357.140625 L 104.199219 357.140625 L 104.199219 358.640625 L 102.695312 358.640625 L 102.695312 357.140625 L 93.769531 357.140625 L 93.769531 366.074219 L 102.695312 366.074219 L 102.695312 364.574219 L 104.199219 364.574219 L 104.199219 366.074219 L 102.695312 366.074219 L 102.695312 375 L 120.5625 375 L 120.5625 366.074219 L 119.0625 366.074219 L 119.0625 364.574219 L 120.5625 364.574219 L 120.5625 366.074219 L 138.429688 366.074219 L 138.429688 364.574219 L 154.789062 364.574219 L 154.789062 357.140625 L 156.289062 357.140625 L 156.289062 355.640625 L 175.65625 355.640625 L 175.65625 364.574219 L 208.390625 364.574219 L 208.390625 355.640625 L 227.757812 355.640625 L 227.757812 357.140625 L 229.257812 357.140625 L 229.257812 364.574219 L 245.617188 364.574219 L 245.617188 366.074219 L 263.480469 366.074219 L 263.480469 364.574219 L 264.984375 364.574219 L 264.984375 366.074219 L 263.480469 366.074219 L 263.480469 375 L 281.347656 375 L 281.347656 366.074219 L 279.847656 366.074219 L 279.847656 364.574219 L 281.347656 364.574219 L 281.347656 366.074219 L 290.277344 366.074219 L 290.277344 357.140625 L 281.347656 357.140625 L 281.347656 358.640625 L 279.847656 358.640625 L 279.847656 357.140625 L 281.347656 357.140625 L 281.347656 339.289062 L 279.847656 339.289062 L 279.847656 337.789062 L 288.777344 337.789062 L 288.777344 328.855469 L 306.644531 328.855469 L 306.644531 321.429688 L 326.011719 321.429688 L 326.011719 312.496094 L 324.511719 312.496094 L 324.511719 310.996094 L 333.441406 310.996094 L 333.441406 302.070312 L 342.378906 302.070312 L 342.378906 276.789062 L 343.878906 276.789062 L 343.878906 275.289062 L 351.308594 275.289062 Z M 306.644531 126.496094 L 300.714844 126.496094 L 300.714844 132.429688 L 306.644531 132.429688 Z M 306.644531 90.789062 L 300.714844 90.789062 L 300.714844 96.710938 L 306.644531 96.710938 Z M 315.582031 123.496094 L 309.644531 123.496094 L 309.644531 117.570312 L 315.582031 117.570312 L 315.582031 123.496094 " fill-opacity="1" fill-rule="nonzero"/><path fill="#bd202c" d="M 120.5625 232.140625 L 129.496094 232.140625 L 129.496094 223.21875 L 120.5625 223.21875 Z M 138.429688 196.421875 L 129.496094 196.421875 L 129.496094 205.359375 L 138.429688 205.359375 Z M 129.496094 214.28125 L 129.496094 223.21875 L 138.429688 223.21875 L 138.429688 214.28125 Z M 147.363281 232.140625 L 147.363281 223.21875 L 138.429688 223.21875 L 138.429688 232.140625 Z M 165.230469 196.421875 L 156.289062 196.421875 L 156.289062 205.359375 L 165.230469 205.359375 Z M 165.230469 223.21875 L 156.289062 223.21875 L 156.289062 232.140625 L 165.230469 232.140625 Z M 165.230469 267.859375 L 174.15625 267.859375 L 174.15625 258.929688 L 147.363281 258.929688 L 147.363281 276.789062 L 156.289062 276.789062 L 156.289062 267.859375 Z M 156.289062 276.789062 L 156.289062 285.710938 L 165.230469 285.710938 L 165.230469 276.789062 Z M 183.09375 276.789062 L 183.09375 267.859375 L 174.15625 267.859375 L 174.15625 276.789062 Z M 200.953125 276.789062 L 209.890625 276.789062 L 209.890625 267.859375 L 200.953125 267.859375 Z M 200.953125 285.710938 L 165.230469 285.710938 L 165.230469 294.648438 L 218.820312 294.648438 L 218.820312 285.710938 Z M 227.757812 196.421875 L 218.820312 196.421875 L 218.820312 205.359375 L 227.757812 205.359375 Z M 227.757812 232.140625 L 227.757812 223.21875 L 218.820312 223.21875 L 218.820312 241.070312 L 227.757812 241.070312 Z M 218.820312 258.929688 L 209.890625 258.929688 L 209.890625 267.859375 L 227.757812 267.859375 L 227.757812 276.789062 L 236.683594 276.789062 L 236.683594 258.929688 Z M 218.820312 285.710938 L 227.757812 285.710938 L 227.757812 276.789062 L 218.820312 276.789062 Z M 245.617188 151.78125 L 236.683594 151.78125 L 236.683594 160.714844 L 245.617188 160.714844 Z M 236.683594 232.140625 L 245.617188 232.140625 L 245.617188 223.21875 L 236.683594 223.21875 Z M 236.683594 258.929688 L 245.617188 258.929688 L 245.617188 250 L 236.683594 250 Z M 245.617188 205.359375 L 254.550781 205.359375 L 254.550781 196.421875 L 245.617188 196.421875 Z M 245.617188 223.21875 L 254.550781 223.21875 L 254.550781 214.28125 L 245.617188 214.28125 Z M 245.617188 250 L 254.550781 250 L 254.550781 241.070312 L 245.617188 241.070312 Z M 263.480469 160.714844 L 263.480469 169.640625 L 254.550781 169.640625 L 254.550781 160.714844 L 263.480469 160.714844 " fill-opacity="1" fill-rule="nonzero"/><path fill="#ffffff" d="M 156.289062 205.359375 L 147.363281 205.359375 L 147.363281 214.28125 L 156.289062 214.28125 Z M 156.289062 241.070312 L 147.363281 241.070312 L 147.363281 232.140625 L 138.429688 232.140625 L 138.429688 223.21875 L 129.496094 223.21875 L 129.496094 232.140625 L 111.628906 232.140625 L 111.628906 223.21875 L 102.695312 223.21875 L 102.695312 196.421875 L 93.769531 196.421875 L 93.769531 232.140625 L 102.695312 232.140625 L 102.695312 241.070312 L 129.496094 241.070312 L 129.496094 258.929688 L 138.429688 258.929688 L 138.429688 267.859375 L 147.363281 267.859375 L 147.363281 258.929688 L 165.230469 258.929688 L 165.230469 250 L 156.289062 250 Z M 147.363281 276.789062 L 147.363281 285.710938 L 156.289062 285.710938 L 156.289062 276.789062 Z M 156.289062 241.070312 L 165.230469 241.070312 L 165.230469 232.140625 L 156.289062 232.140625 Z M 165.230469 285.710938 L 218.820312 285.710938 L 218.820312 276.789062 L 227.757812 276.789062 L 227.757812 267.859375 L 209.890625 267.859375 L 209.890625 276.789062 L 174.15625 276.789062 L 174.15625 267.859375 L 156.289062 267.859375 L 156.289062 276.789062 L 165.230469 276.789062 Z M 218.820312 294.648438 L 165.230469 294.648438 L 165.230469 285.710938 L 156.289062 285.710938 L 156.289062 303.570312 L 165.230469 303.570312 L 165.230469 312.496094 L 174.15625 312.496094 L 174.15625 321.429688 L 209.890625 321.429688 L 209.890625 312.496094 L 218.820312 312.496094 L 218.820312 303.570312 L 227.757812 303.570312 L 227.757812 285.710938 L 218.820312 285.710938 Z M 236.683594 205.359375 L 227.757812 205.359375 L 227.757812 214.28125 L 236.683594 214.28125 Z M 227.757812 250 L 218.820312 250 L 218.820312 258.929688 L 236.683594 258.929688 L 236.683594 250 Z M 227.757812 285.710938 L 236.683594 285.710938 L 236.683594 276.789062 L 227.757812 276.789062 Z M 236.683594 267.859375 L 245.617188 267.859375 L 245.617188 258.929688 L 236.683594 258.929688 Z M 254.550781 258.929688 L 254.550781 250 L 245.617188 250 L 245.617188 258.929688 Z M 263.480469 205.359375 L 263.480469 169.640625 L 254.550781 169.640625 L 254.550781 160.714844 L 263.480469 160.714844 L 263.480469 142.855469 L 236.683594 142.855469 L 236.683594 151.78125 L 245.617188 151.78125 L 245.617188 160.714844 L 236.683594 160.714844 L 236.683594 151.78125 L 227.757812 151.78125 L 227.757812 160.714844 L 218.820312 160.714844 L 218.820312 169.640625 L 165.230469 169.640625 L 165.230469 160.714844 L 156.289062 160.714844 L 156.289062 151.78125 L 147.363281 151.78125 L 147.363281 142.855469 L 120.5625 142.855469 L 120.5625 205.359375 L 111.628906 205.359375 L 111.628906 214.28125 L 120.5625 214.28125 L 120.5625 223.21875 L 129.496094 223.21875 L 129.496094 187.5 L 138.429688 187.5 L 138.429688 196.421875 L 147.363281 196.421875 L 147.363281 178.574219 L 156.289062 178.574219 L 156.289062 196.421875 L 165.230469 196.421875 L 165.230469 214.28125 L 174.15625 214.28125 L 174.15625 223.21875 L 165.230469 223.21875 L 165.230469 232.140625 L 174.15625 232.140625 L 174.15625 241.070312 L 165.230469 241.070312 L 165.230469 250 L 174.15625 250 L 174.15625 258.929688 L 183.09375 258.929688 L 183.09375 267.859375 L 200.953125 267.859375 L 200.953125 258.929688 L 209.890625 258.929688 L 209.890625 250 L 218.820312 250 L 218.820312 241.070312 L 209.890625 241.070312 L 209.890625 232.140625 L 218.820312 232.140625 L 218.820312 223.21875 L 209.890625 223.21875 L 209.890625 214.28125 L 218.820312 214.28125 L 218.820312 196.421875 L 227.757812 196.421875 L 227.757812 178.574219 L 236.683594 178.574219 L 236.683594 196.421875 L 245.617188 196.421875 L 245.617188 187.5 L 254.550781 187.5 L 254.550781 223.21875 L 245.617188 223.21875 L 245.617188 232.140625 L 236.683594 232.140625 L 236.683594 250 L 245.617188 250 L 245.617188 241.070312 L 263.480469 241.070312 L 263.480469 214.28125 L 272.417969 214.28125 L 272.417969 205.359375 Z M 290.277344 196.421875 L 290.277344 223.21875 L 281.347656 223.21875 L 281.347656 241.070312 L 272.417969 241.070312 L 272.417969 214.28125 L 281.347656 214.28125 L 281.347656 196.421875 L 290.277344 196.421875 " fill-opacity="1" fill-rule="nonzero"/><path fill="#bd202c" d="M 66.972656 89.289062 L 66.972656 98.210938 L 75.902344 98.210938 L 75.902344 89.289062 Z M 66.972656 107.136719 L 66.972656 116.070312 L 75.902344 116.070312 L 75.902344 107.136719 Z M 75.902344 116.070312 L 75.902344 124.996094 L 84.832031 124.996094 L 84.832031 116.070312 Z M 75.902344 142.855469 L 75.902344 151.78125 L 84.832031 151.78125 L 84.832031 142.855469 Z M 93.769531 151.78125 L 84.832031 151.78125 L 84.832031 169.640625 L 93.769531 169.640625 L 93.769531 178.574219 L 111.628906 178.574219 L 111.628906 169.640625 L 102.695312 169.640625 L 102.695312 160.714844 L 93.769531 160.714844 Z M 102.695312 196.421875 L 102.695312 223.21875 L 111.628906 223.21875 L 111.628906 187.5 L 102.695312 187.5 Z M 272.417969 116.070312 L 272.417969 98.210938 L 281.347656 98.210938 L 281.347656 71.429688 L 272.417969 71.429688 L 272.417969 62.492188 L 254.550781 62.492188 L 254.550781 35.710938 L 245.617188 35.710938 L 245.617188 26.78125 L 236.683594 26.78125 L 236.683594 44.640625 L 245.617188 44.640625 L 245.617188 53.570312 L 236.683594 53.570312 L 236.683594 71.429688 L 227.757812 71.429688 L 227.757812 80.351562 L 218.820312 80.351562 L 218.820312 89.289062 L 209.890625 89.289062 L 209.890625 80.351562 L 218.820312 80.351562 L 218.820312 71.429688 L 227.757812 71.429688 L 227.757812 35.710938 L 218.820312 35.710938 L 218.820312 44.640625 L 209.890625 44.640625 L 209.890625 53.570312 L 200.953125 53.570312 L 200.953125 17.859375 L 192.023438 17.859375 L 192.023438 35.710938 L 183.09375 35.710938 L 183.09375 53.570312 L 174.15625 53.570312 L 174.15625 62.492188 L 165.230469 62.492188 L 165.230469 71.429688 L 156.289062 71.429688 L 156.289062 98.210938 L 165.230469 98.210938 L 165.230469 107.136719 L 174.15625 107.136719 L 174.15625 116.070312 L 165.230469 116.070312 L 165.230469 124.996094 L 156.289062 124.996094 L 156.289062 116.070312 L 165.230469 116.070312 L 165.230469 107.136719 L 156.289062 107.136719 L 156.289062 98.210938 L 147.363281 98.210938 L 147.363281 71.429688 L 156.289062 71.429688 L 156.289062 62.492188 L 165.230469 62.492188 L 165.230469 53.570312 L 156.289062 53.570312 L 156.289062 44.640625 L 165.230469 44.640625 L 165.230469 0 L 156.289062 0 L 156.289062 17.859375 L 147.363281 17.859375 L 147.363281 26.78125 L 129.496094 26.78125 L 129.496094 53.570312 L 120.5625 53.570312 L 120.5625 71.429688 L 111.628906 71.429688 L 111.628906 53.570312 L 120.5625 53.570312 L 120.5625 26.78125 L 111.628906 26.78125 L 111.628906 35.710938 L 102.695312 35.710938 L 102.695312 62.492188 L 93.769531 62.492188 L 93.769531 89.289062 L 84.832031 89.289062 L 84.832031 98.210938 L 75.902344 98.210938 L 75.902344 107.136719 L 84.832031 107.136719 L 84.832031 116.070312 L 102.695312 116.070312 L 102.695312 124.996094 L 84.832031 124.996094 L 84.832031 142.855469 L 93.769531 142.855469 L 93.769531 151.78125 L 102.695312 151.78125 L 102.695312 160.714844 L 111.628906 160.714844 L 111.628906 142.855469 L 120.5625 142.855469 L 120.5625 133.929688 L 129.496094 133.929688 L 129.496094 124.996094 L 120.5625 124.996094 L 120.5625 116.070312 L 111.628906 116.070312 L 111.628906 89.289062 L 120.5625 89.289062 L 120.5625 116.070312 L 129.496094 116.070312 L 129.496094 124.996094 L 138.429688 124.996094 L 138.429688 133.929688 L 147.363281 133.929688 L 147.363281 142.855469 L 156.289062 142.855469 L 156.289062 151.78125 L 174.15625 151.78125 L 174.15625 142.855469 L 183.09375 142.855469 L 183.09375 124.996094 L 192.023438 124.996094 L 192.023438 116.070312 L 200.953125 116.070312 L 200.953125 107.136719 L 209.890625 107.136719 L 209.890625 98.210938 L 218.820312 98.210938 L 218.820312 107.136719 L 209.890625 107.136719 L 209.890625 116.070312 L 200.953125 116.070312 L 200.953125 124.996094 L 192.023438 124.996094 L 192.023438 151.78125 L 209.890625 151.78125 L 209.890625 133.929688 L 218.820312 133.929688 L 218.820312 124.996094 L 227.757812 124.996094 L 227.757812 116.070312 L 236.683594 116.070312 L 236.683594 107.136719 L 245.617188 107.136719 L 245.617188 116.070312 L 236.683594 116.070312 L 236.683594 124.996094 L 227.757812 124.996094 L 227.757812 133.929688 L 218.820312 133.929688 L 218.820312 142.855469 L 236.683594 142.855469 L 236.683594 133.929688 L 254.550781 133.929688 L 254.550781 124.996094 L 263.480469 124.996094 L 263.480469 116.070312 Z M 281.347656 35.710938 L 281.347656 17.859375 L 272.417969 17.859375 L 272.417969 53.570312 L 281.347656 53.570312 Z M 272.417969 151.78125 L 272.417969 178.574219 L 281.347656 178.574219 L 281.347656 160.714844 L 290.277344 160.714844 L 290.277344 178.574219 L 299.214844 178.574219 L 299.214844 142.855469 L 281.347656 142.855469 L 281.347656 151.78125 Z M 290.277344 62.492188 L 290.277344 53.570312 L 281.347656 53.570312 L 281.347656 71.429688 L 290.277344 71.429688 Z M 281.347656 187.5 L 272.417969 187.5 L 272.417969 205.359375 L 281.347656 205.359375 L 281.347656 196.421875 L 290.277344 196.421875 L 290.277344 178.574219 L 281.347656 178.574219 Z M 299.214844 107.136719 L 299.214844 98.210938 L 290.277344 98.210938 L 290.277344 107.136719 L 281.347656 107.136719 L 281.347656 116.070312 L 272.417969 116.070312 L 272.417969 124.996094 L 263.480469 124.996094 L 263.480469 142.855469 L 281.347656 142.855469 L 281.347656 133.929688 L 290.277344 133.929688 L 290.277344 124.996094 L 299.214844 124.996094 Z M 308.144531 89.289062 L 299.214844 89.289062 L 299.214844 98.210938 L 308.144531 98.210938 Z M 299.214844 133.929688 L 308.144531 133.929688 L 308.144531 124.996094 L 299.214844 124.996094 Z M 317.082031 116.070312 L 317.082031 124.996094 L 308.144531 124.996094 L 308.144531 116.070312 L 317.082031 116.070312 " fill-opacity="1" fill-rule="nonzero"/><g clip-path="url(#68af59acc8)"><path fill="#7c1520" d="M 75.902344 294.648438 L 93.769531 294.648438 L 93.769531 285.710938 L 102.695312 285.710938 L 102.695312 276.789062 L 111.628906 276.789062 L 111.628906 267.859375 L 120.5625 267.859375 L 120.5625 258.929688 L 111.628906 258.929688 L 111.628906 241.070312 L 102.695312 241.070312 L 102.695312 232.140625 L 93.769531 232.140625 L 93.769531 214.28125 L 84.832031 214.28125 L 84.832031 205.359375 L 66.972656 205.359375 L 66.972656 196.421875 L 49.105469 196.421875 L 49.105469 223.21875 L 58.035156 223.21875 L 58.035156 241.070312 L 75.902344 241.070312 L 75.902344 267.859375 L 84.832031 267.859375 L 84.832031 276.789062 L 75.902344 276.789062 L 75.902344 285.710938 L 58.035156 285.710938 L 58.035156 276.789062 L 31.238281 276.789062 L 31.238281 303.570312 L 40.167969 303.570312 L 40.167969 312.496094 L 66.972656 312.496094 L 66.972656 303.570312 L 75.902344 303.570312 Z M 102.695312 339.289062 L 111.628906 339.289062 L 111.628906 321.429688 L 75.902344 321.429688 L 75.902344 330.355469 L 93.769531 330.355469 L 93.769531 339.289062 Z M 111.628906 285.710938 L 111.628906 294.648438 L 102.695312 294.648438 L 102.695312 303.570312 L 93.769531 303.570312 L 93.769531 312.496094 L 129.496094 312.496094 L 129.496094 321.429688 L 156.289062 321.429688 L 156.289062 312.496094 L 147.363281 312.496094 L 147.363281 303.570312 L 138.429688 303.570312 L 138.429688 285.710938 Z M 138.429688 357.140625 L 138.429688 366.074219 L 156.289062 366.074219 L 156.289062 357.140625 Z M 156.289062 187.5 L 156.289062 178.574219 L 147.363281 178.574219 L 147.363281 196.421875 L 156.289062 196.421875 Z M 156.289062 232.140625 L 156.289062 223.21875 L 147.363281 223.21875 L 147.363281 241.070312 L 156.289062 241.070312 Z M 147.363281 330.355469 L 120.5625 330.355469 L 120.5625 348.214844 L 111.628906 348.214844 L 111.628906 357.140625 L 102.695312 357.140625 L 102.695312 366.074219 L 120.5625 366.074219 L 120.5625 357.140625 L 129.496094 357.140625 L 129.496094 348.214844 L 147.363281 348.214844 L 147.363281 339.289062 L 156.289062 339.289062 L 156.289062 330.355469 Z M 218.820312 330.355469 L 200.953125 330.355469 L 200.953125 339.289062 L 183.09375 339.289062 L 183.09375 330.355469 L 165.230469 330.355469 L 165.230469 339.289062 L 156.289062 339.289062 L 156.289062 357.140625 L 174.15625 357.140625 L 174.15625 366.074219 L 209.890625 366.074219 L 209.890625 357.140625 L 227.757812 357.140625 L 227.757812 339.289062 L 218.820312 339.289062 Z M 236.683594 187.5 L 236.683594 178.574219 L 227.757812 178.574219 L 227.757812 196.421875 L 236.683594 196.421875 Z M 236.683594 241.070312 L 236.683594 223.21875 L 227.757812 223.21875 L 227.757812 250 L 236.683594 250 Z M 236.683594 366.074219 L 245.617188 366.074219 L 245.617188 357.140625 L 227.757812 357.140625 L 227.757812 366.074219 Z M 245.617188 321.429688 L 254.550781 321.429688 L 254.550781 312.496094 L 290.277344 312.496094 L 290.277344 303.570312 L 281.347656 303.570312 L 281.347656 294.648438 L 272.417969 294.648438 L 272.417969 285.710938 L 254.550781 285.710938 L 254.550781 294.648438 L 245.617188 294.648438 L 245.617188 303.570312 L 236.683594 303.570312 L 236.683594 312.496094 L 227.757812 312.496094 L 227.757812 321.429688 Z M 272.417969 348.214844 L 263.480469 348.214844 L 263.480469 330.355469 L 227.757812 330.355469 L 227.757812 339.289062 L 236.683594 339.289062 L 236.683594 348.214844 L 254.550781 348.214844 L 254.550781 357.140625 L 263.480469 357.140625 L 263.480469 366.074219 L 281.347656 366.074219 L 281.347656 357.140625 L 272.417969 357.140625 Z M 290.277344 321.429688 L 272.417969 321.429688 L 272.417969 339.289062 L 290.277344 339.289062 L 290.277344 330.355469 L 308.144531 330.355469 L 308.144531 321.429688 Z M 326.011719 276.789062 L 317.082031 276.789062 L 317.082031 285.710938 L 299.214844 285.710938 L 299.214844 276.789062 L 290.277344 276.789062 L 290.277344 267.859375 L 308.144531 267.859375 L 308.144531 258.929688 L 317.082031 258.929688 L 317.082031 241.070312 L 326.011719 241.070312 L 326.011719 223.21875 L 334.9375 223.21875 L 334.9375 196.421875 L 317.082031 196.421875 L 317.082031 205.359375 L 299.214844 205.359375 L 299.214844 214.28125 L 290.277344 214.28125 L 290.277344 223.21875 L 281.347656 223.21875 L 281.347656 241.070312 L 290.277344 241.070312 L 290.277344 232.140625 L 299.214844 232.140625 L 299.214844 241.070312 L 290.277344 241.070312 L 290.277344 250 L 272.417969 250 L 272.417969 258.929688 L 263.480469 258.929688 L 263.480469 267.859375 L 272.417969 267.859375 L 272.417969 276.789062 L 281.347656 276.789062 L 281.347656 285.710938 L 290.277344 285.710938 L 290.277344 294.648438 L 308.144531 294.648438 L 308.144531 303.570312 L 317.082031 303.570312 L 317.082031 312.496094 L 334.9375 312.496094 L 334.9375 303.570312 L 343.878906 303.570312 L 343.878906 276.789062 Z M 352.808594 267.859375 L 352.808594 276.789062 L 343.878906 276.789062 L 343.878906 267.859375 L 352.808594 267.859375 " fill-opacity="1" fill-rule="nonzero"/></g></svg>