<svg xmlns="http://www.w3.org/2000/svg" xmlns:xlink="http://www.w3.org/1999/xlink" width="500" zoomAndPan="magnify" viewBox="0 0 375 374.999991" height="500" preserveAspectRatio="xMidYMid meet" version="1.0"><defs><clipPath id="ae5065ede3"><path d="M 54.023438 14 L 321 14 L 321 373.007812 L 54.023438 373.007812 Z M 54.023438 14 " clip-rule="nonzero"/></clipPath><clipPath id="20712b84bd"><path d="M 169 1.777344 L 206 1.777344 L 206 35 L 169 35 Z M 169 1.777344 " clip-rule="nonzero"/></clipPath><clipPath id="93d42f1cd2"><path d="M 45 151 L 330.171875 151 L 330.171875 188 L 45 188 Z M 45 151 " clip-rule="nonzero"/></clipPath></defs><g clip-path="url(#ae5065ede3)"><path fill="#eeeeec" d="M 187.589844 373.007812 C 327.011719 365.578125 399.691406 23.976562 187.589844 14.183594 C -24.507812 23.972656 48.167969 365.578125 187.589844 373.007812 " fill-opacity="1" fill-rule="evenodd"/></g><path fill="#dbddd9" d="M 161.175781 187.714844 C 152.476562 204.222656 131.441406 212.671875 114.988281 202 C 102.097656 193.628906 96.40625 173.804688 104.078125 160.21875 C 105.339844 158.007812 107 156.035156 109.0625 154.371094 C 117.207031 147.585938 129.382812 147.273438 139.191406 149.957031 C 149.078125 152.640625 159.433594 159.117188 162.910156 169.230469 C 165.125 175.46875 164.183594 181.867188 161.175781 187.714844 Z M 214.007812 187.714844 C 211 181.867188 210.046875 175.46875 212.261719 169.230469 C 219.621094 148.214844 259.15625 139.375 271.105469 160.21875 C 278.773438 173.804688 273 193.628906 260.109375 202 C 243.738281 212.671875 222.707031 204.222656 214.007812 187.714844 " fill-opacity="1" fill-rule="evenodd"/><path fill="#1a1819" d="M 156.746094 185.421875 C 148.996094 200.1875 130.964844 206.425781 117.757812 197.894531 C 106.84375 190.789062 102.097656 173.726562 108.425781 162.671875 C 120.367188 141.738281 170.667969 158.71875 156.746094 185.421875 Z M 218.425781 185.421875 C 226.175781 200.1875 244.210938 206.425781 257.414062 197.894531 C 268.328125 190.789062 273 173.726562 266.746094 162.671875 C 254.804688 141.738281 204.433594 158.71875 218.425781 185.421875 " fill-opacity="1" fill-rule="evenodd"/><path fill="#363332" d="M 156.746094 175.386719 C 148.996094 190.238281 130.964844 196.472656 117.757812 187.863281 C 111.589844 183.917969 107.398438 176.730469 106.054688 169.230469 C 106.527344 166.9375 107.238281 164.726562 108.425781 162.671875 C 118.074219 145.773438 152.796875 153.582031 158.410156 171.363281 C 158.007812 172.707031 157.457031 174.046875 156.746094 175.386719 Z M 269.121094 169.230469 C 268.648438 166.9375 267.859375 164.726562 266.746094 162.671875 C 257.101562 145.773438 222.386719 153.582031 216.773438 171.363281 C 217.164062 172.707031 217.714844 174.046875 218.425781 175.386719 C 226.175781 190.238281 244.210938 196.472656 257.414062 187.863281 C 263.585938 183.917969 267.777344 176.730469 269.121094 169.230469 " fill-opacity="1" fill-rule="evenodd"/><path fill="#b91f28" d="M 187.589844 165.046875 C 203.800781 152.25 221.203125 143.078125 239.710938 136.679688 C 221.984375 136.132812 204.511719 136.601562 187.589844 141.976562 C 170.667969 136.601562 153.105469 136.132812 135.472656 136.679688 C 153.898438 143.078125 171.382812 152.25 187.589844 165.046875 " fill-opacity="1" fill-rule="evenodd"/><path fill="#b91f28" d="M 128.75 213.613281 C 118.230469 230.515625 110.640625 248.847656 105.738281 268.589844 C 111.984375 273.085938 118.550781 275.308594 125.273438 276.332031 C 122.976562 254.695312 123.769531 233.757812 128.75 213.613281 " fill-opacity="1" fill-rule="evenodd"/><path fill="#b91f28" d="M 246.425781 213.613281 C 256.941406 230.515625 264.539062 248.847656 269.363281 268.589844 C 263.195312 273.085938 256.628906 275.308594 249.902344 276.332031 C 252.199219 254.695312 251.328125 233.757812 246.425781 213.613281 " fill-opacity="1" fill-rule="evenodd"/><path fill="#dbddd9" d="M 187.589844 186.523438 C 206.808594 205.164062 216.371094 226.492188 219.460938 249.628906 C 210.125 239.675781 200.402344 230.285156 187.589844 225.941406 C 174.78125 230.285156 164.976562 239.675781 155.722656 249.628906 C 158.800781 226.492188 168.375 205.164062 187.589844 186.523438 " fill-opacity="1" fill-rule="evenodd"/><path fill="#c6c7c3" d="M 219.460938 249.628906 L 155.722656 249.628906 C 164.574219 239.207031 174.929688 230.996094 187.589844 225.941406 C 200.242188 230.996094 210.609375 239.207031 219.460938 249.628906 " fill-opacity="1" fill-rule="evenodd"/><path fill="#363332" d="M 286.835938 132.257812 C 284.066406 132.65625 282.332031 136.601562 283.046875 141.105469 C 283.757812 145.613281 286.605469 148.925781 289.371094 148.535156 C 292.136719 148.136719 293.882812 144.191406 293.160156 139.683594 C 292.527344 135.261719 289.683594 131.867188 286.835938 132.257812 Z M 88.257812 132.257812 C 91.105469 132.65625 92.84375 136.601562 92.136719 141.105469 C 91.421875 145.613281 88.574219 148.925781 85.804688 148.535156 C 82.960938 148.136719 81.300781 144.191406 81.929688 139.683594 C 82.644531 135.261719 85.488281 131.867188 88.257812 132.257812 Z M 299.726562 118.441406 C 297.039062 119.308594 296.167969 123.496094 297.75 127.761719 C 299.335938 132.027344 302.8125 134.789062 305.5 133.917969 C 308.105469 133.046875 309.058594 128.863281 307.476562 124.605469 C 305.902344 120.261719 302.421875 117.488281 299.726562 118.4375 Z M 75.445312 118.441406 C 78.058594 119.308594 79.003906 123.496094 77.425781 127.761719 C 75.84375 132.027344 72.363281 134.789062 69.675781 133.917969 C 66.984375 133.046875 66.113281 128.863281 67.695312 124.605469 C 69.277344 120.261719 72.757812 117.488281 75.445312 118.4375 Z M 283.757812 91.425781 C 281.058594 92.453125 280.277344 96.71875 282.09375 100.984375 C 283.835938 105.171875 287.546875 107.777344 290.242188 106.675781 C 293 105.644531 293.722656 101.378906 291.976562 97.195312 C 290.164062 93.003906 286.523438 90.402344 283.757812 91.425781 Z M 91.425781 91.425781 C 94.109375 92.453125 94.90625 96.71875 93.085938 100.984375 C 91.347656 105.171875 87.628906 107.777344 84.941406 106.675781 C 82.171875 105.644531 81.378906 101.378906 83.199219 97.195312 C 85.019531 93.003906 88.65625 90.402344 91.425781 91.425781 Z M 208.785156 114.484375 C 203.960938 114.484375 200.082031 118.210938 200.082031 122.785156 C 200.082031 127.289062 203.960938 130.996094 208.785156 130.996094 C 213.605469 130.996094 217.484375 127.289062 217.484375 122.785156 C 217.484375 118.210938 213.605469 114.484375 208.785156 114.484375 Z M 166.390625 114.484375 C 171.222656 114.484375 175.089844 118.210938 175.089844 122.785156 C 175.089844 127.289062 171.222656 130.996094 166.390625 130.996094 C 161.566406 130.996094 157.699219 127.289062 157.699219 122.785156 C 157.699219 118.210938 161.566406 114.484375 166.390625 114.484375 Z M 244.761719 107.144531 C 240.019531 107.144531 236.070312 110.78125 236.070312 115.367188 C 236.070312 119.859375 240.019531 123.574219 244.761719 123.574219 C 249.59375 123.574219 253.460938 119.859375 253.460938 115.367188 C 253.460938 110.78125 249.59375 107.144531 244.761719 107.144531 Z M 130.332031 107.144531 C 135.15625 107.144531 139.109375 110.78125 139.109375 115.367188 C 139.109375 119.859375 135.15625 123.574219 130.332031 123.574219 C 125.585938 123.574219 121.632812 119.859375 121.632812 115.367188 C 121.632812 110.78125 125.585938 107.144531 130.332031 107.144531 Z M 244.761719 78.394531 C 240.019531 78.394531 236.070312 82.105469 236.070312 86.609375 C 236.070312 91.191406 240.019531 94.824219 244.761719 94.824219 C 249.59375 94.824219 253.460938 91.191406 253.460938 86.609375 C 253.460938 82.105469 249.59375 78.394531 244.761719 78.394531 Z M 130.332031 78.394531 C 135.15625 78.394531 139.109375 82.105469 139.109375 86.609375 C 139.109375 91.191406 135.15625 94.824219 130.332031 94.824219 C 125.585938 94.824219 121.632812 91.191406 121.632812 86.609375 C 121.632812 82.105469 125.585938 78.394531 130.332031 78.394531 Z M 244.761719 49.722656 C 240.019531 49.722656 236.070312 53.355469 236.070312 57.9375 C 236.070312 62.441406 240.019531 66.152344 244.761719 66.152344 C 249.59375 66.152344 253.460938 62.441406 253.460938 57.9375 C 253.460938 53.355469 249.59375 49.722656 244.761719 49.722656 Z M 130.332031 49.722656 C 135.15625 49.722656 139.109375 53.355469 139.109375 57.9375 C 139.109375 62.441406 135.15625 66.152344 130.332031 66.152344 C 125.585938 66.152344 121.632812 62.441406 121.632812 57.9375 C 121.632812 53.355469 125.585938 49.722656 130.332031 49.722656 " fill-opacity="1" fill-rule="evenodd"/><path fill="#363332" d="M 167.972656 267.25 C 172.796875 267.25 176.675781 270.964844 176.675781 275.539062 C 176.675781 280.046875 172.796875 283.761719 167.972656 283.761719 C 163.152344 283.761719 159.28125 280.046875 159.28125 275.539062 C 159.28125 270.964844 163.152344 267.25 167.972656 267.25 " fill-opacity="1" fill-rule="evenodd"/><path fill="#363332" d="M 207.199219 267.25 C 202.378906 267.25 198.496094 270.964844 198.496094 275.539062 C 198.496094 280.046875 202.378906 283.761719 207.199219 283.761719 C 212.019531 283.761719 215.902344 280.046875 215.902344 275.539062 C 215.902344 270.964844 212.019531 267.25 207.199219 267.25 " fill-opacity="1" fill-rule="evenodd"/><path fill="#363332" d="M 167.972656 301.132812 C 172.796875 301.132812 176.675781 304.765625 176.675781 309.351562 C 176.675781 313.847656 172.796875 317.5625 167.972656 317.5625 C 163.152344 317.5625 159.28125 313.847656 159.28125 309.351562 C 159.28125 304.765625 163.152344 301.132812 167.972656 301.132812 " fill-opacity="1" fill-rule="evenodd"/><path fill="#363332" d="M 207.199219 301.132812 C 202.378906 301.132812 198.496094 304.765625 198.496094 309.351562 C 198.496094 313.847656 202.378906 317.5625 207.199219 317.5625 C 212.019531 317.5625 215.902344 313.847656 215.902344 309.351562 C 215.902344 304.765625 212.019531 301.132812 207.199219 301.132812 " fill-opacity="1" fill-rule="evenodd"/><path fill="#363332" d="M 167.972656 334.941406 C 172.796875 334.941406 176.675781 338.644531 176.675781 343.152344 C 176.675781 347.738281 172.796875 351.363281 167.972656 351.363281 C 163.152344 351.363281 159.28125 347.738281 159.28125 343.152344 C 159.28125 338.644531 163.152344 334.941406 167.972656 334.941406 " fill-opacity="1" fill-rule="evenodd"/><path fill="#363332" d="M 207.199219 334.941406 C 202.378906 334.941406 198.496094 338.644531 198.496094 343.152344 C 198.496094 347.738281 202.378906 351.363281 207.199219 351.363281 C 212.019531 351.363281 215.902344 347.738281 215.902344 343.152344 C 215.902344 338.644531 212.019531 334.941406 207.199219 334.941406 " fill-opacity="1" fill-rule="evenodd"/><path fill="#363332" d="M 135.078125 277.832031 C 138.476562 276.800781 142.351562 279.566406 143.773438 283.910156 C 145.199219 288.253906 143.539062 292.519531 140.136719 293.550781 C 136.738281 294.492188 132.78125 291.808594 131.441406 287.464844 C 130.015625 283.117188 131.679688 278.773438 135.078125 277.832031 " fill-opacity="1" fill-rule="evenodd"/><path fill="#363332" d="M 240.101562 277.832031 C 236.703125 276.800781 232.820312 279.566406 231.398438 283.910156 C 229.976562 288.253906 231.640625 292.519531 235.039062 293.550781 C 238.4375 294.492188 242.394531 291.808594 243.738281 287.464844 C 245.164062 283.117188 243.5 278.773438 240.101562 277.832031 " fill-opacity="1" fill-rule="evenodd"/><path fill="#363332" d="M 113.40625 293.390625 C 116.8125 292.441406 120.683594 295.132812 122.109375 299.46875 C 123.53125 303.8125 121.871094 308.160156 118.46875 309.109375 C 115.066406 310.132812 111.117188 307.367188 109.769531 303.035156 C 108.347656 298.6875 110.007812 294.34375 113.40625 293.390625 " fill-opacity="1" fill-rule="evenodd"/><path fill="#363332" d="M 261.761719 293.390625 C 258.363281 292.441406 254.414062 295.132812 253.070312 299.46875 C 251.648438 303.8125 253.300781 308.160156 256.710938 309.109375 C 260.109375 310.132812 264.058594 307.367188 265.402344 303.035156 C 266.835938 298.6875 265.171875 294.34375 261.761719 293.390625 " fill-opacity="1" fill-rule="evenodd"/><path fill="#363332" d="M 92.929688 219.851562 C 95.773438 219.542969 98.539062 222.9375 99.171875 227.441406 C 99.730469 231.9375 97.988281 235.890625 95.140625 236.203125 C 92.371094 236.523438 89.601562 233.128906 88.972656 228.621094 C 88.335938 224.117188 90.160156 220.253906 92.929688 219.851562 " fill-opacity="1" fill-rule="evenodd"/><path fill="#363332" d="M 282.253906 219.851562 C 279.40625 219.542969 276.640625 222.9375 276.007812 227.441406 C 275.445312 231.9375 277.191406 235.890625 280.039062 236.203125 C 282.804688 236.523438 285.570312 233.128906 286.203125 228.621094 C 286.835938 224.117188 285.019531 220.253906 282.253906 219.851562 " fill-opacity="1" fill-rule="evenodd"/><path fill="#363332" d="M 72.761719 203.191406 C 75.609375 202.871094 78.375 206.277344 78.929688 210.769531 C 79.558594 215.277344 77.742188 219.140625 74.972656 219.542969 C 72.128906 219.851562 69.359375 216.457031 68.804688 211.960938 C 68.171875 207.457031 69.992188 203.503906 72.761719 203.191406 " fill-opacity="1" fill-rule="evenodd"/><path fill="#363332" d="M 302.421875 203.191406 C 299.574219 202.871094 296.800781 206.277344 296.246094 210.769531 C 295.617188 215.277344 297.351562 219.140625 300.199219 219.542969 C 303.042969 219.851562 305.820312 216.457031 306.371094 211.960938 C 307.003906 207.457031 305.191406 203.503906 302.421875 203.191406 " fill-opacity="1" fill-rule="evenodd"/><g clip-path="url(#20712b84bd)"><path fill="#363332" d="M 174.859375 1.777344 L 200.324219 1.777344 C 203.410156 1.777344 205.9375 4.386719 205.9375 7.464844 L 205.9375 34.160156 L 169.234375 34.160156 L 169.234375 7.464844 C 169.234375 4.386719 171.773438 1.777344 174.859375 1.777344 " fill-opacity="1" fill-rule="evenodd"/></g><g clip-path="url(#93d42f1cd2)"><path fill="#363332" d="M 330.179688 184 L 330.179688 155.242188 C 330.179688 153.113281 328.4375 151.300781 326.222656 151.300781 L 307.476562 151.300781 L 307.476562 187.945312 L 326.222656 187.945312 C 328.4375 187.945312 330.179688 186.210938 330.179688 184 Z M 45 184 L 45 155.242188 C 45 153.113281 46.738281 151.300781 48.957031 151.300781 L 67.699219 151.300781 L 67.699219 187.945312 L 48.957031 187.945312 C 46.742188 187.945312 45 186.210938 45 184 " fill-opacity="1" fill-rule="evenodd"/></g></svg>