<svg xmlns="http://www.w3.org/2000/svg" xmlns:xlink="http://www.w3.org/1999/xlink" width="500" zoomAndPan="magnify" viewBox="0 0 375 374.999991" height="500" preserveAspectRatio="xMidYMid meet" version="1.0"><defs><clipPath id="ff090d6e3d"><path d="M 117 112.5 L 259.96875 112.5 L 259.96875 262 L 117 262 Z M 117 112.5 " clip-rule="nonzero"/></clipPath></defs><g clip-path="url(#ff090d6e3d)"><path fill="#00ff88" d="M 258.636719 219.101562 C 253.089844 230.492188 245.261719 239.976562 235.007812 247.414062 C 223.246094 255.941406 210.097656 260.730469 195.589844 261.421875 C 174.324219 262.445312 155.6875 255.792969 140.289062 241.066406 C 122.917969 224.460938 115.234375 203.882812 117.371094 180 C 119.210938 159.417969 128.46875 142.457031 144.457031 129.347656 C 158.082031 118.175781 173.265625 112.855469 191.824219 112.542969 C 205.785156 112.546875 219.449219 116.46875 231.871094 124.570312 C 243.824219 132.363281 252.867188 142.734375 258.886719 155.671875 C 259.207031 156.363281 259.519531 157.058594 259.816406 157.753906 L 251.582031 160.066406 L 249.339844 160.695312 C 246.925781 155.414062 243.742188 150.457031 239.777344 145.824219 C 231.519531 136.167969 221.335938 129.4375 209.089844 125.914062 C 195.234375 121.933594 181.558594 122.574219 168.144531 127.800781 C 157.335938 132.015625 148.398438 138.8125 141.285156 147.960938 C 130.832031 161.402344 126.496094 176.703125 128.160156 193.582031 C 129.546875 207.640625 135.09375 219.992188 144.835938 230.296875 C 159.109375 245.402344 176.722656 252.152344 197.382812 250.410156 C 211.570312 249.21875 223.996094 243.601562 234.394531 233.820312 C 237.289062 231.101562 239.820312 227.988281 242.445312 224.992188 C 243.660156 223.605469 243.589844 223.523438 242.03125 222.640625 C 227.976562 214.621094 213.914062 206.605469 199.855469 198.59375 C 198.238281 197.671875 198.21875 197.671875 199.105469 196.089844 C 200.660156 193.324219 202.269531 190.589844 203.773438 187.796875 C 204.324219 186.773438 204.824219 186.714844 205.792969 187.265625 C 213.414062 191.65625 221.0625 195.992188 228.703125 200.34375 C 230.421875 201.320312 230.546875 201.285156 231.089844 199.4375 C 233.820312 190.113281 233.753906 180.953125 230.304688 172.296875 C 229.636719 170.617188 228.835938 168.953125 227.90625 167.304688 C 227.808594 167.136719 227.714844 166.96875 227.617188 166.800781 C 219.398438 152.644531 206.84375 145.332031 190.265625 145.574219 C 177.808594 145.753906 167.457031 150.898438 159.554688 160.433594 C 150.691406 171.128906 147.964844 183.484375 151.109375 197.042969 C 152.859375 204.617188 156.578125 211.179688 162.144531 216.550781 C 172.21875 226.269531 184.28125 230.210938 198.167969 228.050781 C 207.492188 226.601562 215.351562 222.265625 221.777344 215.359375 C 222.503906 214.578125 223.058594 214.460938 223.976562 215.011719 C 226.816406 216.699219 229.699219 218.332031 232.597656 219.933594 C 233.59375 220.480469 233.644531 220.945312 232.90625 221.789062 C 224.839844 231.085938 214.96875 237.460938 202.847656 239.953125 C 186.464844 243.3125 171.484375 239.976562 158.210938 229.734375 C 150.445312 223.746094 144.625 216.15625 141.117188 206.957031 C 135.476562 192.171875 135.832031 177.484375 142.886719 163.296875 C 150.578125 147.820312 163 137.8125 179.964844 134.21875 C 198.011719 130.402344 214.109375 134.84375 227.894531 147.222656 C 233.035156 151.835938 237.097656 157.207031 240.035156 163.3125 C 240.796875 164.882812 241.484375 166.507812 242.089844 168.179688 C 242.175781 168.421875 242.265625 168.671875 242.351562 168.917969 C 246.507812 180.773438 246.566406 192.730469 242.527344 204.707031 C 241.546875 207.601562 241.523438 207.617188 244.136719 209.121094 C 248.734375 211.761719 253.328125 214.421875 257.972656 216.984375 C 259.054688 217.570312 259.136719 218.078125 258.636719 219.101562 Z M 258.636719 219.101562 " fill-opacity="1" fill-rule="nonzero"/></g></svg>